<svg width="16" height="18" viewBox="0 0 16 18" fill="none" xmlns="http://www.w3.org/2000/svg">
<path d="M3.77253 9.4805C4.31476 10.0908 4.98002 10.5794 5.72457 10.9142C6.46912 11.249 7.2761 11.4225 8.09246 11.4231C8.90883 11.4238 9.71609 11.2516 10.4612 10.918C11.2063 10.5844 11.8723 10.0969 12.4155 9.48751C13.0793 9.93748 13.6535 10.5072 14.1085 11.1675C14.9122 12.3391 15.2882 13.7515 15.1735 15.1675C15.1576 15.421 15.0904 15.6686 14.9761 15.8955C14.8617 16.1223 14.7026 16.3235 14.5083 16.4871C14.314 16.6507 14.0885 16.7731 13.8455 16.8471C13.6025 16.9211 13.347 16.945 13.0945 16.9175C9.7612 16.9375 6.43053 16.9375 3.10253 16.9175C2.83376 16.9444 2.56234 16.9138 2.30628 16.8278C2.05022 16.7418 1.81535 16.6024 1.61726 16.4188C1.41916 16.2351 1.26236 16.0115 1.15724 15.7627C1.05212 15.5139 1.00109 15.2455 1.00753 14.9755C0.960451 14.0213 1.13451 13.0691 1.51614 12.1933C1.89776 11.3175 2.47662 10.5417 3.20753 9.9265C3.38053 9.7755 3.57053 9.6405 3.77453 9.4805" stroke="#91765E" stroke-width="1.2" stroke-linecap="round" stroke-linejoin="round"/>
<path d="M8.15648 8.4425C7.66726 8.44173 7.18303 8.34411 6.73173 8.15527C6.28043 7.96642 5.87099 7.69009 5.52702 7.34221C5.18304 6.99434 4.91135 6.5818 4.72761 6.1284C4.54387 5.67499 4.45172 5.1897 4.45647 4.7005C4.45706 4.21396 4.55348 3.73229 4.74022 3.283C4.92696 2.83372 5.20037 2.42561 5.54483 2.08199C5.88928 1.73837 6.29805 1.46595 6.74779 1.28031C7.19753 1.09466 7.67943 0.999412 8.16598 1C8.65252 1.00059 9.13419 1.09701 9.58347 1.28375C10.0328 1.47049 10.4409 1.7439 10.7845 2.08835C11.1281 2.43281 11.4005 2.84158 11.5862 3.29132C11.7718 3.74106 11.8671 4.22296 11.8665 4.7095C11.8699 5.19875 11.7765 5.68383 11.5915 6.13679C11.4066 6.58975 11.1338 7.00161 10.7889 7.34864C10.444 7.69566 10.0338 7.97098 9.58204 8.15872C9.13023 8.34646 8.64573 8.44291 8.15648 8.4425Z" stroke="#91765E" stroke-width="1.2" stroke-linecap="round" stroke-linejoin="round"/>
</svg>
