<svg width="20" height="18" viewBox="0 0 20 18" fill="none" xmlns="http://www.w3.org/2000/svg">
<path d="M0 6.09202C0.423 6.09202 0.847 6.08102 1.27 6.07902C1.865 6.07902 2.459 6.07302 3.054 6.07902C3.12417 6.0864 3.19491 6.07216 3.25675 6.0382C3.31859 6.00424 3.36858 5.95219 3.4 5.88902C4.496 4.05302 5.596 2.21902 6.7 0.387019C6.75188 0.275021 6.83407 0.179784 6.93729 0.112095C7.0405 0.0444051 7.16061 0.00696686 7.284 0.00401935C7.38412 0.00152507 7.48334 0.0236019 7.57295 0.0683187C7.66257 0.113036 7.73987 0.17903 7.79808 0.26053C7.8563 0.34203 7.89366 0.436553 7.90689 0.53583C7.92013 0.635108 7.90883 0.736116 7.874 0.830019C7.8395 0.918104 7.79628 1.00252 7.745 1.08202C6.789 2.67802 5.833 4.27335 4.877 5.86802C4.843 5.92502 4.765 5.98502 4.804 6.05002C4.843 6.11502 4.932 6.07702 4.999 6.07702C8.149 6.07702 11.2993 6.07702 14.45 6.07702C14.512 6.07702 14.596 6.10702 14.63 6.05602C14.675 5.98802 14.596 5.93002 14.563 5.87402C13.6043 4.27402 12.6443 2.67402 11.683 1.07402C11.6213 0.989865 11.5768 0.894296 11.5523 0.792848C11.5277 0.691401 11.5236 0.586091 11.54 0.483019C11.5647 0.364216 11.6249 0.255699 11.7125 0.171789C11.8002 0.087879 11.9112 0.0325205 12.031 0.0130193C12.159 -0.013709 12.2923 0.000946414 12.4114 0.0548696C12.5306 0.108793 12.6296 0.199193 12.694 0.313019C13.0107 0.838353 13.3267 1.36435 13.642 1.89102C14.442 3.22435 15.242 4.55769 16.042 5.89102C16.0725 5.95183 16.1208 6.00191 16.1805 6.0346C16.2401 6.06729 16.3083 6.08104 16.376 6.07402C17.319 6.06802 18.261 6.07402 19.204 6.06702C19.388 6.06702 19.468 6.10702 19.455 6.30802C19.438 6.57302 19.444 6.83902 19.455 7.10802C19.46 7.26102 19.412 7.32302 19.255 7.31802C18.964 7.30802 18.673 7.32702 18.382 7.31102C18.201 7.30202 18.128 7.36002 18.095 7.54002C17.895 8.64002 17.688 9.74002 17.482 10.84C17.19 12.3987 16.8973 13.9574 16.604 15.516C16.5318 15.9483 16.3058 16.3398 15.9677 16.6186C15.6296 16.8974 15.2021 17.0446 14.764 17.033C11.4047 17.033 8.04567 17.033 4.687 17.033C4.24524 17.0467 3.81362 16.899 3.4728 16.6176C3.13197 16.3362 2.90525 15.9404 2.835 15.504C2.33833 12.8567 1.844 10.21 1.352 7.56402C1.316 7.37002 1.241 7.30602 1.043 7.31402C0.7 7.32902 0.348 7.31102 0 7.30402V6.09202ZM9.725 7.32002H2.818C2.585 7.32002 2.582 7.32002 2.624 7.55202C2.84 8.71335 3.057 9.87469 3.275 11.036C3.54167 12.4454 3.80833 13.8547 4.075 15.264C4.08765 15.3982 4.14742 15.5235 4.24372 15.6178C4.34001 15.7121 4.46659 15.7692 4.601 15.779C4.6884 15.7917 4.77671 15.797 4.865 15.795H14.58C14.637 15.795 14.694 15.795 14.751 15.795C14.9054 15.8007 15.0561 15.7465 15.1715 15.6439C15.287 15.5413 15.3585 15.398 15.371 15.244C15.517 14.481 15.66 13.717 15.803 12.953C16.1363 11.1584 16.4723 9.36369 16.811 7.56902C16.857 7.32302 16.853 7.32202 16.598 7.32202H9.725" fill="#91765E"/>
</svg>
