<svg width="96" height="93" viewBox="0 0 96 93" fill="none" xmlns="http://www.w3.org/2000/svg">
<g clip-path="url(#clip0_1_9)">
<mask id="mask0_1_9" style="mask-type:luminance" maskUnits="userSpaceOnUse" x="0" y="0" width="96" height="93">
<path d="M95.287 0H0V92.449H95.287V0Z" fill="white"/>
</mask>
<g mask="url(#mask0_1_9)">
<path d="M48.4329 44.979C57.1329 42.994 61.6169 36.428 61.4329 30.608C61.2409 24.4 56.0019 20.049 50.9949 18.527C49.0196 17.9175 46.9621 17.616 44.8949 17.633C41.8609 17.614 39.8809 18.545 37.7279 16.322C36.3789 14.929 37.3279 10.404 38.5439 8.327C39.847 6.17747 41.587 4.32555 43.6512 2.89112C45.7155 1.4567 48.0579 0.471734 50.5269 0C47.6559 2 46.9139 4.746 47.4949 6.624C48.3569 9.41 50.7329 9.438 55.0809 12.097C62.7219 16.771 69.2179 25.813 67.9439 33.819C67.626 36.371 66.4645 38.7436 64.6439 40.56C58.9939 46.385 49.3629 45.16 48.4329 44.979Z" fill="#463830"/>
<path d="M54.7411 30.814C56.7191 32.725 53.2971 39.126 48.9881 41.782C46.1613 43.4976 42.8201 44.1615 39.5521 43.657C36.7756 43.0376 34.2199 41.6745 32.1588 39.7136C30.0978 37.7528 28.609 35.2682 27.8521 32.526C26.1671 26.71 27.6191 19.471 32.5051 15.251C31.048 18.2533 30.7283 21.682 31.6051 24.902C32.3811 28.156 35.4411 32.234 39.0221 33.53C41.0955 34.3505 43.3571 34.5742 45.551 34.1759C47.745 33.7775 49.7836 32.773 51.4361 31.276C52.4551 30.25 53.6951 29.808 54.7361 30.814" fill="#463830"/>
<path d="M2.706 73.347C1.99287 73.2132 1.32317 72.9073 0.755 72.456C0.527535 72.2891 0.341249 72.0725 0.21039 71.8225C0.0795318 71.5726 0.00756692 71.296 0 71.014L0 68.447H0.406C0.493263 69.6999 1.02026 70.8818 1.894 71.784C2.76635 72.4446 3.84561 72.7726 4.938 72.709C5.66912 72.7301 6.39159 72.5465 7.024 72.179C7.30272 72.0157 7.53113 71.7788 7.68422 71.4943C7.83732 71.2098 7.9092 70.8886 7.892 70.566C7.90262 69.9645 7.69438 69.3795 7.306 68.92C6.75978 68.3284 6.11989 67.8307 5.412 67.447L2.639 65.801C1.84371 65.376 1.1485 64.7858 0.6 64.07C0.121658 63.2895 -0.0785086 62.3701 0.0320642 61.4614C0.142637 60.5526 0.557442 59.708 1.209 59.065C2.07708 58.2897 3.21428 57.8851 4.377 57.938C5.15376 57.9398 5.92427 58.0768 6.654 58.343C7.33009 58.5717 7.95996 58.9191 8.514 59.369C8.73681 59.5365 8.91859 59.7524 9.04559 60.0005C9.17258 60.2486 9.24146 60.5224 9.247 60.801V63.056H8.839C8.68915 61.8796 8.1816 60.7776 7.385 59.899C6.97961 59.5301 6.50436 59.2462 5.98736 59.0642C5.47036 58.8821 4.9221 58.8055 4.375 58.839C3.69793 58.8334 3.04446 59.0875 2.549 59.549C2.29903 59.7611 2.09877 60.0256 1.96242 60.3237C1.82607 60.6218 1.75696 60.9462 1.76 61.274C1.74138 61.8412 1.94812 62.3928 2.335 62.808C2.9148 63.3615 3.56267 63.839 4.263 64.229L7.036 65.875C7.8478 66.321 8.57924 66.8996 9.2 67.587C9.6368 68.1626 9.85987 68.8721 9.831 69.594C9.85998 70.15 9.76122 70.7052 9.54228 71.2171C9.32335 71.729 8.99006 72.184 8.568 72.547C7.58898 73.2983 6.37319 73.674 5.141 73.606C4.32241 73.6069 3.50608 73.5201 2.706 73.347Z" fill="#463830"/>
<path d="M22.6881 72.841C21.8551 72.3252 21.2479 71.5137 20.9881 70.569L20.4241 68.991H14.1151L12.3151 73.391H11.2971L17.6101 58.397H18.2881L23.2471 70.569C23.4907 71.2251 23.8497 71.8323 24.3071 72.362C24.6998 72.7116 25.2026 72.9126 25.7281 72.93V73.388H24.8281C24.0811 73.3817 23.3465 73.1961 22.6861 72.847M19.9801 68.089L17.2741 61.55L14.4561 68.089H19.9801Z" fill="#463830"/>
<path d="M27.192 59.499C27.0522 59.3002 26.8605 59.1434 26.6378 59.0459C26.4152 58.9484 26.17 58.9139 25.929 58.946H25.478V58.499H27.508C27.9358 58.4752 28.3635 58.5484 28.759 58.713C28.9065 58.7953 29.0358 58.9066 29.1389 59.0404C29.2421 59.1741 29.317 59.3274 29.359 59.491C29.5009 60.0508 29.5615 60.628 29.539 61.205V72.479H37.539V73.379H27.508V61.206C27.5445 60.622 27.4359 60.038 27.192 59.506" fill="#463830"/>
<path d="M49.583 72.841C48.7524 72.3223 48.1484 71.509 47.892 70.564L47.328 68.986H41.014L39.214 73.386H38.196L44.509 58.392H45.185L50.145 70.568C50.3886 71.224 50.7476 71.8313 51.205 72.361C51.5977 72.7106 52.1005 72.9116 52.626 72.929V73.387H51.726C50.979 73.3807 50.2445 73.1951 49.584 72.846M46.878 68.088L44.172 61.549L41.354 68.088H46.878Z" fill="#463830"/>
<path d="M56.4029 72.751C55.2439 72.0351 54.301 71.0179 53.6749 69.808C53.0517 68.5736 52.7167 67.2139 52.6952 65.8313C52.6737 64.4486 52.9663 63.0791 53.5509 61.826C54.0974 60.67 54.968 59.6976 56.0568 59.0271C57.1455 58.3566 58.4056 58.0168 59.6839 58.049C60.8208 58.0248 61.9534 58.1966 63.0319 58.557C63.8226 58.8 64.5345 59.2486 65.0949 59.857C65.3552 60.2075 65.5149 60.6224 65.5569 61.057C65.631 61.6705 65.6644 62.2881 65.6569 62.906H65.2059C65.0201 61.7611 64.4473 60.7145 63.5829 59.941C62.6569 59.2454 61.5155 58.8981 60.3589 58.96C59.2642 58.9207 58.1894 59.2593 57.3149 59.919C56.4969 60.5662 55.8759 61.4289 55.5219 62.41C55.1319 63.4713 54.9371 64.5944 54.9469 65.725C54.9469 68.2657 55.4429 70.1037 56.4349 71.239C56.9205 71.7972 57.5249 72.2395 58.2037 72.5337C58.8825 72.8279 59.6186 72.9663 60.3579 72.939C61.0176 72.9515 61.6763 72.8844 62.3199 72.739C62.8528 72.6068 63.3677 72.41 63.8529 72.153V68.229C63.8422 67.7732 63.9267 67.3203 64.1009 66.899C64.3296 66.4651 64.7112 66.1315 65.1719 65.963C65.9386 65.6782 66.755 65.5516 67.5719 65.591V66.042C67.3209 66.0078 67.0654 66.0373 66.8289 66.1281C66.5924 66.2188 66.3826 66.3677 66.2189 66.561C65.9581 67.0602 65.841 67.6221 65.8809 68.184V72.423C65.0908 72.9098 64.2318 73.2746 63.3329 73.505C62.3588 73.7408 61.3591 73.8543 60.3569 73.843C58.962 73.8645 57.5898 73.4893 56.3999 72.761" fill="#463830"/>
<path d="M72.4919 72.874C71.6522 72.3879 71.016 71.6153 70.6999 70.698C70.3093 69.4901 70.13 68.2238 70.1699 66.955V61.206C70.2063 60.6219 70.0978 60.0379 69.8539 59.506C69.7142 59.307 69.5225 59.1502 69.2998 59.0527C69.0771 58.9552 68.8319 58.9207 68.5909 58.953H68.1399V58.499H70.1689C70.5967 58.4749 71.0244 58.5481 71.4199 58.713C71.5674 58.7952 71.6967 58.9066 71.7998 59.0403C71.903 59.1741 71.9778 59.3274 72.0199 59.491C72.1619 60.0507 72.2229 60.6279 72.2009 61.205V67.631C72.1112 68.959 72.4339 70.2823 73.1249 71.42C73.4905 71.8705 73.9619 72.2235 74.497 72.4477C75.0321 72.6719 75.6144 72.7603 76.1919 72.705C77.136 72.7515 78.075 72.541 78.9089 72.096C79.5924 71.6708 80.1006 71.0143 80.3409 70.246C80.6596 69.1788 80.8041 68.0672 80.7689 66.954V58.499H81.6689V66.954C81.7078 68.2317 81.539 69.5073 81.1689 70.731C80.8745 71.6409 80.2517 72.4085 79.4219 72.884C78.3345 73.4213 77.1271 73.6696 75.9159 73.605C74.7292 73.6631 73.5479 73.4105 72.4889 72.872" fill="#463830"/>
<path d="M85.5021 59.499C85.3624 59.3001 85.1707 59.1433 84.948 59.0458C84.7253 58.9482 84.4801 58.9137 84.2391 58.946H83.7881V58.499H89.6501C91.0066 58.4787 92.3469 58.7963 93.5501 59.423C94.7074 60.0397 95.2861 61.2347 95.2861 63.008C95.3516 63.993 95.0285 64.9645 94.3861 65.714C93.8408 66.3107 93.1431 66.7473 92.3681 66.977C91.7058 67.1754 91.0193 67.2817 90.3281 67.293H87.8481V73.381H85.8161V61.206C85.8526 60.622 85.744 60.0379 85.5001 59.506M91.0691 66.135C91.6775 65.8412 92.1908 65.3818 92.55 64.8095C92.9091 64.2372 93.0997 63.5752 93.0997 62.8995C93.0997 62.2238 92.9091 61.5619 92.55 60.9896C92.1908 60.4173 91.6775 59.9578 91.0691 59.664C90.5905 59.4309 90.0672 59.304 89.5351 59.292C88.9643 59.2978 88.3965 59.3734 87.8441 59.517V66.281C88.3964 66.4252 88.9643 66.5011 89.5351 66.507C90.0673 66.4952 90.5906 66.3683 91.0691 66.135Z" fill="#463830"/>
<path d="M32.5879 92.17C32.248 91.9817 31.9922 91.6715 31.8719 91.302C31.7158 90.7911 31.6452 90.2579 31.6629 89.724V84.843L28.4929 91.88H28.2389L24.9389 84.716V91.88H24.4319V83.512H25.6319L28.6749 90.105L31.6549 83.512H32.7989V89.725C32.7707 90.3476 32.8729 90.9692 33.0989 91.55C33.1644 91.7386 33.2868 91.9021 33.4493 92.018C33.6118 92.1339 33.8063 92.1965 34.0059 92.197V92.45C33.5168 92.4751 33.0291 92.3793 32.5859 92.171" fill="#463830"/>
<path d="M42.6281 91.633C42.1609 91.3417 41.8211 90.8844 41.6771 90.353L41.3601 89.466H37.8101L36.7961 91.938H36.2261L39.7761 83.507H40.1561L42.9451 90.354C43.0833 90.7232 43.2865 91.0645 43.5451 91.362C43.7663 91.5585 44.0493 91.6714 44.3451 91.681V91.938H43.8381C43.4199 91.9353 43.0084 91.8324 42.6381 91.638M41.1161 88.963L39.5941 85.286L38.0091 88.963H41.1161Z" fill="#463830"/>
<path d="M48.0781 92.176C47.6762 92.1014 47.2986 91.9297 46.9781 91.676C46.8501 91.5822 46.7452 91.4603 46.6716 91.3198C46.5979 91.1792 46.5574 91.0236 46.5531 90.865V89.42H46.7811C46.8306 90.1243 47.127 90.7886 47.6181 91.296C48.1085 91.6673 48.7151 91.8516 49.3291 91.816C49.7404 91.8273 50.1467 91.7234 50.5021 91.516C50.6588 91.4241 50.7873 91.2909 50.8733 91.1309C50.9594 90.971 50.9998 90.7904 50.9901 90.609C50.9957 90.2711 50.8788 89.9425 50.6611 89.684C50.3538 89.3527 49.994 89.0742 49.5961 88.86L48.0371 87.934C47.5892 87.6942 47.1978 87.3615 46.8891 86.958C46.6201 86.5192 46.5075 86.0023 46.5696 85.4914C46.6317 84.9805 46.8649 84.5056 47.2311 84.144C47.7192 83.7081 48.3584 83.4806 49.0121 83.51C49.4491 83.5107 49.8827 83.5879 50.2931 83.738C50.6734 83.8663 51.0277 84.0618 51.3391 84.315C51.4643 84.4091 51.5665 84.5305 51.6379 84.67C51.7093 84.8095 51.748 84.9633 51.7511 85.12V86.388H51.5231C51.4385 85.7266 51.1529 85.107 50.7051 84.613C50.4777 84.4046 50.2107 84.2442 49.9201 84.1411C49.6294 84.038 49.321 83.9944 49.0131 84.013C48.6322 84.01 48.2647 84.1532 47.9861 84.413C47.8456 84.5323 47.7329 84.681 47.6562 84.8486C47.5795 85.0162 47.5405 85.1986 47.5421 85.383C47.5367 85.5409 47.5625 85.6984 47.6181 85.8463C47.6737 85.9942 47.758 86.1297 47.8661 86.245C48.1918 86.5568 48.5561 86.8257 48.9501 87.045L50.5091 87.97C50.9657 88.2211 51.3771 88.547 51.7261 88.934C51.9719 89.2577 52.0974 89.6569 52.0811 90.063C52.0975 90.3757 52.042 90.688 51.9189 90.9759C51.7959 91.2638 51.6085 91.5197 51.3711 91.724C50.8213 92.1483 50.1376 92.3612 49.4441 92.324C48.9839 92.3243 48.5249 92.2754 48.0751 92.178" fill="#463830"/>
<path d="M55.265 84.075C55.1865 83.9632 55.0787 83.875 54.9535 83.8202C54.8283 83.7654 54.6905 83.7459 54.555 83.764H54.301V83.511H55.442C55.6815 83.498 55.9208 83.5394 56.142 83.632C56.2247 83.6783 56.2971 83.7409 56.3549 83.816C56.4126 83.8911 56.4545 83.9772 56.478 84.069C56.5574 84.3839 56.5911 84.7085 56.578 85.033V91.372H61.078V91.879H55.436V85.033C55.4571 84.7043 55.3963 84.3754 55.259 84.076" fill="#463830"/>
<path d="M65.084 91.475C64.5083 91.0979 64.0505 90.5662 63.763 89.941C63.4578 89.259 63.3 88.5202 63.3 87.773C63.3 87.0258 63.4578 86.287 63.763 85.605C64.0507 84.9799 64.5085 84.4483 65.084 84.071C65.6835 83.7047 66.3724 83.5109 67.075 83.5109C67.7775 83.5109 68.4665 83.7047 69.066 84.071C69.6417 84.4483 70.0998 84.9798 70.388 85.605C70.6929 86.2871 70.8505 87.0258 70.8505 87.773C70.8505 88.5201 70.6929 89.2589 70.388 89.941C70.1 90.5663 69.6419 91.0979 69.066 91.475C68.4665 91.8413 67.7775 92.035 67.075 92.035C66.3724 92.035 65.6835 91.8413 65.084 91.475ZM68.446 91.086C68.8569 90.7408 69.1628 90.2873 69.329 89.777C69.735 88.4722 69.735 87.0748 69.329 85.77C69.1626 85.2598 68.8567 84.8064 68.446 84.461C68.0522 84.1611 67.571 83.9987 67.076 83.9987C66.581 83.9987 66.0997 84.1611 65.706 84.461C65.2951 84.8062 64.9892 85.2597 64.823 85.77C64.417 87.0748 64.417 88.4722 64.823 89.777C64.989 90.2873 65.295 90.7409 65.706 91.086C66.0996 91.3862 66.5809 91.5488 67.076 91.5488C67.571 91.5488 68.0524 91.3862 68.446 91.086Z" fill="#463830"/>
</g>
</g>
<defs>
<clipPath id="clip0_1_9">
<rect width="95.287" height="92.449" fill="white"/>
</clipPath>
</defs>
</svg>
