<svg width="10" height="20" viewBox="0 0 10 20" fill="none" xmlns="http://www.w3.org/2000/svg">
<path d="M4.69099 19.1533C4.69099 19.4847 4.95961 19.7533 5.29099 19.7533C5.62236 19.7533 5.89099 19.4847 5.89099 19.1533H4.69099ZM5.71525 0.729056C5.48093 0.494742 5.10104 0.494742 4.86672 0.729056L1.04834 4.54743C0.81403 4.78175 0.81403 5.16165 1.04834 5.39596C1.28266 5.63028 1.66256 5.63028 1.89687 5.39596L5.29099 2.00185L8.6851 5.39596C8.91941 5.63028 9.29931 5.63028 9.53363 5.39596C9.76794 5.16165 9.76794 4.78175 9.53363 4.54743L5.71525 0.729056ZM5.89099 19.1533V1.15332H4.69099V19.1533H5.89099Z" fill="#91765E"/>
</svg>
