<svg width="10" height="20" viewBox="0 0 10 20" fill="none" xmlns="http://www.w3.org/2000/svg">
<path d="M5.736 0.599609C5.736 0.268239 5.46737 -0.000390649 5.136 -0.000390649C4.80463 -0.000390649 4.536 0.268239 4.536 0.599609H5.736ZM4.71174 19.0239C4.94605 19.2582 5.32595 19.2582 5.56027 19.0239L9.37864 15.2055C9.61296 14.9712 9.61296 14.5913 9.37864 14.357C9.14433 14.1227 8.76443 14.1227 8.53011 14.357L5.136 17.7511L1.74189 14.357C1.50757 14.1227 1.12768 14.1227 0.893361 14.357C0.659046 14.5913 0.659046 14.9712 0.893361 15.2055L4.71174 19.0239ZM4.536 0.599609V18.5996H5.736V0.599609H4.536Z" fill="#91765E"/>
</svg>
