<svg width="47" height="47" viewBox="0 0 47 47" fill="none" xmlns="http://www.w3.org/2000/svg">
<g clip-path="url(#clip0_1_53)">
<path d="M5.46939 26.4612C5.79605 26.3719 6.06332 26.2628 6.35039 26.2132C7.31057 26.0544 8.14208 26.3421 8.86469 26.9969C10.3792 28.3559 11.8937 29.7249 13.438 31.0542C13.8933 31.451 14.4378 31.7784 14.9822 32.0463C17.7638 33.4252 19.6644 35.5382 20.4266 38.5837C20.6839 39.6055 20.4662 40.6669 20.1692 41.649C19.8227 42.7799 19.7237 43.9108 19.7633 45.0814C19.7633 45.3294 19.7831 45.5774 19.7633 45.8254C19.7237 46.2421 19.4862 46.4702 19.0803 46.5099C18.7141 46.5397 18.3379 46.2619 18.3379 45.8949C18.3379 44.635 18.1894 43.3652 18.5458 42.1153C18.7339 41.4308 18.8526 40.7364 18.9912 40.0419C19.1595 39.2384 19.0011 38.4746 18.6547 37.7405C17.7044 35.7564 16.2789 34.2684 14.2695 33.3359C13.6458 33.0482 13.0519 32.6613 12.5372 32.2149C10.9732 30.8757 9.45863 29.4968 7.9243 28.1179C7.50855 27.7409 7.02351 27.5028 6.49887 27.7012C6.192 27.8202 5.86534 28.1079 5.72676 28.4055C5.55848 28.7428 5.65746 29.1297 5.98413 29.4472C7.72633 31.1634 9.43883 32.8994 11.1612 34.6255C11.2701 34.7346 11.3889 34.8438 11.478 34.9628C11.6958 35.2902 11.676 35.6175 11.4087 35.8953C11.1414 36.1731 10.8049 36.2028 10.4881 35.9846C10.3594 35.8953 10.2604 35.7862 10.1515 35.677C8.38955 33.9212 6.64735 32.1455 4.87546 30.3995C4.43001 29.9531 4.22213 29.4273 4.17264 28.8321C3.99446 26.5505 3.84597 24.2688 3.67769 21.9872C3.6183 21.1737 3.28174 20.7075 2.65811 20.5587C2.23246 20.4595 2.00479 20.6182 2.00479 21.0646C2.00479 24.0506 1.99489 27.0366 2.01468 30.0225C2.01468 30.3598 2.16317 30.7269 2.35125 31.0146C3.26194 32.3736 4.16274 33.7426 5.14272 35.0521C6.76614 37.2345 8.42915 39.3872 10.0823 41.5399C10.6861 42.3236 10.9831 43.1767 10.894 44.1687C10.8445 44.6747 10.894 45.1905 10.8841 45.6965C10.8742 46.2024 10.5574 46.5298 10.1317 46.5099C9.716 46.5 9.43883 46.1826 9.42893 45.6965C9.42893 45.0913 9.39923 44.4862 9.42893 43.891C9.45863 43.395 9.32004 42.9783 9.03298 42.6014C7.39966 40.4487 5.74655 38.3059 4.13304 36.1433C3.16295 34.8438 2.24236 33.5144 1.32176 32.1752C0.717934 31.3221 0.480362 30.3995 0.500159 29.3579C0.549654 26.6199 0.510058 23.8819 0.519957 21.1439C0.519957 19.527 1.76721 18.654 3.27184 19.2194C4.28152 19.5964 4.91505 20.3305 5.03384 21.4019C5.19222 22.8601 5.28131 24.3283 5.40009 25.7965C5.41989 26.0048 5.43969 26.2132 5.46939 26.4513V26.4612Z" fill="#7E5531"/>
<path d="M41.4912 26.4612C41.5704 25.3997 41.6496 24.3879 41.7288 23.376C41.7882 22.7014 41.8179 22.0169 41.9069 21.3424C42.0752 20.1123 43.1344 19.15 44.3619 19.0607C45.52 18.9813 46.4109 19.775 46.4208 20.9356C46.4406 22.7907 46.4208 24.6458 46.4208 26.5009C46.4208 27.106 46.3515 27.7211 46.4307 28.3063C46.6881 30.2904 45.9655 31.9272 44.7974 33.4549C43.0552 35.7167 41.3328 37.9984 39.6104 40.28C38.9967 41.0935 38.3928 41.9169 37.8286 42.7601C37.6504 43.018 37.5712 43.3851 37.5514 43.7025C37.5118 44.3473 37.5514 45.0021 37.5415 45.6469C37.5415 46.1627 37.2545 46.4802 36.8189 46.4802C36.3834 46.4802 36.0963 46.1528 36.0864 45.6369C36.0864 44.8632 36.0171 44.0795 36.1062 43.3156C36.1656 42.7998 36.3834 42.2542 36.6803 41.8375C37.8187 40.2404 39.0264 38.6928 40.2043 37.1254C41.5209 35.3497 42.8374 33.574 44.1342 31.7983C44.7281 30.9848 45.0152 30.092 44.9855 29.0404C44.9162 26.4314 44.9657 23.8125 44.9657 21.2035C44.9657 20.519 44.6489 20.3206 44.0253 20.638C43.5304 20.886 43.3324 21.3225 43.2928 21.8483C43.1938 23.128 43.0948 24.4077 42.9958 25.6874C42.9166 26.739 42.877 27.7905 42.7879 28.8321C42.7384 29.4075 42.5405 29.9233 42.1049 30.3598C40.3231 32.1157 38.5611 33.9013 36.7991 35.6671C36.6803 35.7862 36.5616 35.9151 36.4131 35.9945C36.1161 36.1731 35.8092 36.1235 35.5618 35.8854C35.2945 35.6275 35.245 35.3199 35.443 35.0025C35.5321 34.8636 35.6608 34.7446 35.7795 34.6255C37.4722 32.9292 39.165 31.2328 40.8577 29.5365C41.3328 29.0603 41.4318 28.5444 41.115 28.1079C40.7983 27.6615 40.1251 27.473 39.5807 27.731C39.3629 27.8302 39.165 27.9889 38.9769 28.1476C37.492 29.4571 36.0468 30.8062 34.5323 32.076C33.9285 32.5919 33.2454 33.0284 32.5327 33.3756C30.4342 34.4073 28.979 36.0044 28.1178 38.1571C27.6724 39.2781 27.91 40.409 28.2465 41.4705C28.7019 42.8791 28.6326 44.3076 28.6227 45.7461C28.6227 46.1925 28.296 46.4901 27.8902 46.4802C27.4744 46.4802 27.1576 46.1627 27.1774 45.6766C27.2368 44.139 27.1477 42.6212 26.6429 41.153C26.5637 40.9248 26.5736 40.6669 26.5241 40.4189C26.1975 38.8019 26.6924 37.3635 27.5338 36.0143C28.6623 34.189 30.1768 32.8101 32.1467 31.9371C32.5921 31.7387 33.0178 31.461 33.384 31.1435C34.8788 29.844 36.3438 28.5147 37.8187 27.2052C39.1056 26.0644 39.7787 25.9255 41.4813 26.4413L41.4912 26.4612Z" fill="#7E5531"/>
<path d="M23.4554 30.1713C18.3179 30.1713 14.0911 26.61 13.2398 21.5209C12.8339 19.0805 13.3091 16.7592 14.4969 14.6264C15.4472 12.9102 16.5361 11.2733 17.6448 9.66625C19.5552 6.90843 21.4459 4.14069 22.7625 1.03567C22.9011 0.7083 23.1386 0.430534 23.495 0.519816C23.7524 0.579338 24.079 0.797582 24.178 1.03567C25.5836 4.30934 27.6228 7.20604 29.6224 10.1226C30.7212 11.7197 31.8298 13.3466 32.6712 15.0827C34.3738 18.5845 34.3144 22.1062 32.1961 25.4691C30.3054 28.465 27.0784 30.1812 23.4554 30.1713ZM23.4554 3.09907C23.4158 3.14867 23.3762 3.17843 23.3564 3.21811C21.8716 6.24378 19.8918 8.94207 17.9813 11.6999C17.1795 12.8705 16.4173 14.0708 15.7541 15.3307C14.7345 17.2453 14.2791 19.2988 14.7048 21.4713C15.5561 25.8362 19.1197 28.7329 23.5544 28.713C29.2957 28.6833 33.4235 23.4355 32.107 17.8405C31.6417 15.8763 30.642 14.1799 29.5234 12.5431C28.2365 10.6384 26.8903 8.76351 25.6331 6.83899C24.8511 5.63864 24.178 4.36886 23.4356 3.09907H23.4554Z" fill="#7E5531"/>
<path d="M18.0804 21.2828C18.1893 21.382 18.4764 21.5308 18.5852 21.759C19.1891 23.1082 20.1493 24.0704 21.5054 24.6359C21.9311 24.8144 22.0795 25.2112 21.9212 25.5783C21.7628 25.9553 21.3767 26.1437 20.961 25.9751C19.199 25.2708 17.9418 24.0307 17.239 22.2649C17.0509 21.7888 17.4073 21.2928 18.0705 21.2928L18.0804 21.2828Z" fill="#7E5531"/>
</g>
<defs>
<clipPath id="clip0_1_53">
<rect width="46" height="46" fill="white" transform="translate(0.5 0.5)"/>
</clipPath>
</defs>
</svg>
