<svg width="61" height="46" viewBox="0 0 61 46" fill="none" xmlns="http://www.w3.org/2000/svg">
<mask id="mask0_1_42" style="mask-type:luminance" maskUnits="userSpaceOnUse" x="0" y="28" width="61" height="18">
<path d="M60.5 28.1911H0.5V46H60.5V28.1911Z" fill="white"/>
</mask>
<g mask="url(#mask0_1_42)">
<path d="M51.5156 44.9156H9.48315C7.40687 44.8912 5.42401 44.0564 3.96451 42.5924C2.50501 41.1284 1.68652 39.1532 1.68652 37.095C1.68652 35.0368 2.50501 33.0615 3.96451 31.5975C5.42401 30.1335 7.40687 29.2988 9.48315 29.2743H51.5156C52.5596 29.262 53.5957 29.4552 54.5638 29.8427C55.5319 30.2302 56.4129 30.8043 57.1555 31.5318C57.8982 32.2592 58.4878 33.1255 58.8902 34.0805C59.2926 35.0354 59.4998 36.0601 59.4998 37.095C59.4998 38.1299 59.2926 39.1545 58.8902 40.1095C58.4878 41.0645 57.8982 41.9308 57.1555 42.6582C56.4129 43.3856 55.5319 43.9597 54.5638 44.3472C53.5957 44.7347 52.5596 44.9279 51.5156 44.9156Z" stroke="#7E5531" stroke-width="1.5" stroke-miterlimit="10"/>
<path d="M16.0009 37.2071C16.0009 38.0464 15.7499 38.8668 15.2795 39.5646C14.8091 40.2624 14.1405 40.8063 13.3583 41.1274C12.5761 41.4486 11.7153 41.5326 10.8849 41.3689C10.0545 41.2052 9.29173 40.801 8.69304 40.2076C8.09436 39.6142 7.68664 38.8581 7.52147 38.0349C7.35629 37.2118 7.44107 36.3586 7.76507 35.5833C8.08908 34.8079 8.63777 34.1452 9.34175 33.6789C10.0457 33.2127 10.8734 32.9638 11.7201 32.9638C12.8554 32.9638 13.9443 33.4109 14.7471 34.2066C15.5499 35.0024 16.0009 36.0817 16.0009 37.2071Z" stroke="#7E5531" stroke-width="1.5" stroke-miterlimit="10"/>
<path d="M34.7802 37.2071C34.7802 38.0464 34.5291 38.8668 34.0588 39.5646C33.5884 40.2624 32.9198 40.8063 32.1376 41.1274C31.3553 41.4486 30.4946 41.5326 29.6642 41.3689C28.8338 41.2052 28.071 40.801 27.4723 40.2076C26.8736 39.6142 26.4659 38.8581 26.3008 38.0349C26.1356 37.2118 26.2204 36.3586 26.5444 35.5833C26.8684 34.8079 27.4171 34.1452 28.121 33.6789C28.825 33.2127 29.6527 32.9638 30.4994 32.9638C31.6347 32.9638 32.7236 33.4109 33.5264 34.2066C34.3292 35.0024 34.7802 36.0817 34.7802 37.2071Z" stroke="#7E5531" stroke-width="1.5" stroke-miterlimit="10"/>
<path d="M52.9819 37.2071C52.9819 38.0464 52.7308 38.8668 52.2604 39.5646C51.79 40.2624 51.1215 40.8063 50.3392 41.1274C49.557 41.4486 48.6963 41.5326 47.8659 41.3689C47.0355 41.2052 46.2727 40.801 45.674 40.2076C45.0753 39.6142 44.6676 38.8581 44.5024 38.0349C44.3373 37.2118 44.422 36.3586 44.746 35.5833C45.07 34.8079 45.6187 34.1452 46.3227 33.6789C47.0267 33.2127 47.8543 32.9638 48.701 32.9638C49.8364 32.9638 50.9252 33.4109 51.728 34.2066C52.5308 35.0024 52.9819 36.0817 52.9819 37.2071Z" stroke="#7E5531" stroke-width="1.5" stroke-miterlimit="10"/>
</g>
<rect x="16.3337" y="0.75" width="28.3323" height="23.7748" rx="4.25" stroke="#7E5531" stroke-width="1.5"/>
<path d="M24.5334 5.83265H36.4664" stroke="#7E5531" stroke-width="2" stroke-linecap="round"/>
</svg>
