<svg width="46" height="46" viewBox="0 0 46 46" fill="none" xmlns="http://www.w3.org/2000/svg">
<g clip-path="url(#clip0_1_141)">
<mask id="mask0_1_141" style="mask-type:luminance" maskUnits="userSpaceOnUse" x="0" y="0" width="46" height="46">
<path d="M46 0H0V46H46V0Z" fill="white"/>
</mask>
<g mask="url(#mask0_1_141)">
<path d="M14.3117 45.9968C12.1714 46.0363 10.0851 45.3504 8.41983 44.0597C6.75452 42.769 5.61682 40.9561 5.20682 38.94C4.80835 36.8543 5.22652 34.7009 6.38108 32.8929C7.53564 31.0848 9.34528 29.7496 11.4628 29.1433C12.3773 28.8754 12.3708 28.8785 12.1221 28.0104C10.6602 22.9452 9.18958 17.8832 7.75809 12.8087C7.62871 12.1943 7.31331 11.6301 6.85138 11.1868C6.38945 10.7436 5.80152 10.4409 5.1612 10.3168C3.95127 10.0333 2.75764 9.69146 1.56075 9.36316C1.30097 9.31545 1.05434 9.21652 0.836462 9.07264C0.61858 8.92876 0.434184 8.74306 0.294938 8.52728C0.155693 8.3115 0.0646267 8.07034 0.0275009 7.81906C-0.00962483 7.56777 0.00799738 7.31183 0.079253 7.06741C0.150509 6.823 0.273847 6.59543 0.441467 6.39911C0.609086 6.20278 0.81734 6.04197 1.05305 5.92685C1.28877 5.81173 1.54682 5.7448 1.81087 5.73029C2.07493 5.71579 2.33925 5.75402 2.58712 5.84258C3.82637 6.16358 5.0591 6.50647 6.2951 6.82747C7.53806 7.099 8.67616 7.70104 9.579 8.56462C10.4818 9.4282 11.1129 10.5184 11.3998 11.7102C12.9834 17.2569 14.593 22.7972 16.1787 28.3439C16.21 28.5305 16.2993 28.7037 16.435 28.8408C16.5707 28.9779 16.7463 29.0724 16.939 29.112C19.1257 29.6941 20.9961 31.0595 22.1642 32.9265C22.2018 33.0121 22.257 33.0897 22.3264 33.1544C22.3959 33.2191 22.4783 33.2697 22.5687 33.3032C22.659 33.3367 22.7555 33.3523 22.8522 33.3492C22.949 33.3461 23.0442 33.3242 23.132 33.285C29.6175 31.6522 36.1037 30.0319 42.5907 28.4241C42.866 28.3462 43.1481 28.2925 43.4335 28.2636C43.9124 28.2101 44.3945 28.3342 44.781 28.6107C45.1676 28.8872 45.4293 29.295 45.5126 29.7507C45.5959 30.2063 45.4945 30.6753 45.2291 31.0615C44.9637 31.4477 44.5545 31.722 44.0852 31.828C42.5896 32.224 41.0854 32.5867 39.5833 32.9609C34.4684 34.2351 29.3525 35.5084 24.2355 36.7806C23.7695 36.8942 23.5241 37.0484 23.5045 37.5674C23.4545 39.765 22.5122 41.857 20.8783 43.3976C20.0226 44.2324 19.0005 44.8934 17.8728 45.341C16.7452 45.7887 15.5352 46.0138 14.3149 46.0031M14.2823 32.4054C13.5814 32.3754 12.8815 32.4822 12.2248 32.7191C11.568 32.9561 10.9682 33.3183 10.4615 33.784C9.95478 34.2497 9.5517 34.8091 9.27663 35.4284C9.00155 36.0478 8.86019 36.7142 8.86107 37.3874C8.86195 38.0607 9.00506 38.7268 9.28176 39.3454C9.55846 39.9641 9.96299 40.5226 10.4709 40.987C10.9789 41.4514 11.5796 41.8122 12.237 42.0476C12.8943 42.283 13.5945 42.388 14.2954 42.3564C14.9942 42.383 15.6914 42.2738 16.3451 42.0353C16.9988 41.7969 17.5955 41.4341 18.0994 40.9687C18.6034 40.5034 19.0041 39.9451 19.2775 39.3274C19.5509 38.7098 19.6914 38.0455 19.6905 37.3744C19.6896 36.7033 19.5474 36.0393 19.2724 35.4223C18.9973 34.8053 18.5952 34.248 18.09 33.7839C17.5849 33.3197 16.9872 32.9584 16.3329 32.7215C15.6786 32.4846 14.9811 32.3771 14.2823 32.4054Z" fill="#7E5531"/>
<path d="M14.3117 45.9968C12.1714 46.0363 10.0851 45.3504 8.41983 44.0597C6.75452 42.769 5.61682 40.9561 5.20682 38.94C4.80835 36.8543 5.22652 34.7009 6.38108 32.8929C7.53564 31.0848 9.34528 29.7496 11.4628 29.1433C12.3773 28.8754 12.3708 28.8785 12.1221 28.0104C10.6602 22.9452 9.18958 17.8832 7.75809 12.8087C7.62871 12.1943 7.31331 11.6301 6.85138 11.1868C6.38945 10.7436 5.80152 10.4409 5.1612 10.3168C3.95127 10.0333 2.75764 9.69146 1.56075 9.36316C1.30097 9.31545 1.05434 9.21652 0.836462 9.07264C0.61858 8.92876 0.434184 8.74306 0.294938 8.52728C0.155693 8.3115 0.0646267 8.07034 0.0275009 7.81906C-0.00962483 7.56777 0.00799738 7.31183 0.079253 7.06741C0.150509 6.823 0.273847 6.59543 0.441467 6.39911C0.609086 6.20278 0.81734 6.04197 1.05305 5.92685C1.28877 5.81173 1.54682 5.7448 1.81087 5.73029C2.07493 5.71579 2.33925 5.75402 2.58712 5.84258C3.82637 6.16358 5.0591 6.50647 6.2951 6.82747C7.53806 7.099 8.67616 7.70104 9.579 8.56462C10.4818 9.4282 11.1129 10.5184 11.3998 11.7102C12.9834 17.2569 14.593 22.7972 16.1787 28.3439C16.21 28.5305 16.2993 28.7037 16.435 28.8408C16.5707 28.9779 16.7463 29.0724 16.939 29.112C19.1257 29.6941 20.9961 31.0595 22.1642 32.9265C22.2018 33.0121 22.257 33.0897 22.3264 33.1544C22.3959 33.2191 22.4783 33.2697 22.5687 33.3032C22.659 33.3367 22.7555 33.3523 22.8522 33.3492C22.949 33.3461 23.0442 33.3242 23.132 33.285C29.6175 31.6522 36.1037 30.0319 42.5907 28.4241C42.866 28.3462 43.1481 28.2925 43.4335 28.2636C43.9124 28.2101 44.3945 28.3342 44.781 28.6107C45.1676 28.8872 45.4293 29.295 45.5126 29.7507C45.5959 30.2063 45.4945 30.6753 45.2291 31.0615C44.9637 31.4477 44.5545 31.722 44.0852 31.828C42.5896 32.224 41.0854 32.5867 39.5833 32.9609C34.4684 34.2351 29.3525 35.5084 24.2355 36.7806C23.7695 36.8942 23.5241 37.0484 23.5045 37.5674C23.4545 39.765 22.5122 41.857 20.8783 43.3976C20.0226 44.2324 19.0005 44.8934 17.8728 45.341C16.7452 45.7887 15.5352 46.0138 14.3149 46.0031M14.2823 32.4054C13.5814 32.3754 12.8815 32.4822 12.2248 32.7191C11.568 32.9561 10.9682 33.3183 10.4615 33.784C9.95478 34.2497 9.5517 34.8091 9.27663 35.4284C9.00155 36.0478 8.86019 36.7142 8.86107 37.3874C8.86195 38.0607 9.00506 38.7268 9.28176 39.3454C9.55846 39.9641 9.96299 40.5226 10.4709 40.987C10.9789 41.4514 11.5796 41.8122 12.237 42.0476C12.8943 42.283 13.5945 42.388 14.2954 42.3564C14.9942 42.383 15.6914 42.2738 16.3451 42.0353C16.9988 41.7969 17.5955 41.4341 18.0994 40.9687C18.6034 40.5034 19.0041 39.9451 19.2775 39.3275C19.5509 38.7098 19.6914 38.0455 19.6905 37.3744C19.6896 36.7033 19.5474 36.0393 19.2724 35.4223C18.9973 34.8053 18.5952 34.248 18.09 33.7839C17.5849 33.3197 16.9872 32.9584 16.3329 32.7215C15.6786 32.4846 14.9811 32.3771 14.2823 32.4054Z" stroke="#FFFAF4" stroke-width="2"/>
<path d="M25.2749 29.0838C24.0054 29.1748 22.7388 28.8752 21.659 28.2284C20.5791 27.5816 19.7422 26.6214 19.2698 25.4872C18.4555 23.5998 17.8063 21.6508 17.3289 19.6602C16.5458 16.9108 15.6432 14.1917 15.0698 11.3923C14.7207 10.0634 14.7731 8.66662 15.2207 7.36521C15.5509 6.58658 16.0515 5.88506 16.6885 5.30808C17.3256 4.73109 18.0844 4.29209 18.9135 4.02076C20.7609 3.35137 22.6555 2.80875 24.583 2.397C27.6849 1.64556 30.7499 0.755517 33.8975 0.183344C34.9139 -0.0161651 35.9579 -0.0513899 36.9864 0.0791229C37.9144 0.198594 38.7967 0.538571 39.5531 1.0682C40.3095 1.59782 40.9161 2.30033 41.3178 3.11195C42.074 4.62069 42.6599 6.20273 43.0653 7.83108C43.9179 10.8108 44.8227 13.7717 45.5927 16.7784C45.9542 18.0026 46.0699 19.2815 45.9338 20.5471C45.7734 21.5931 45.3082 22.5743 44.5918 23.3776C43.8754 24.1808 42.937 24.7734 41.8847 25.0869C39.9256 25.7821 37.9201 26.3506 35.8818 26.7889C32.9276 27.5122 30.0027 28.3459 27.0061 28.8941C26.4387 29.0154 25.8594 29.0787 25.2781 29.0828M18.5801 9.50174C18.6061 9.71852 18.629 9.93947 18.6615 10.1562C19.0456 12.1651 19.5592 14.1491 20.1995 16.0968C20.8783 18.4533 21.455 20.841 22.3206 23.1443C23.1765 25.4163 23.9107 25.7936 26.3697 25.3329C29.7203 24.7128 32.9949 23.7633 36.2978 22.9577C37.9126 22.6391 39.4866 22.153 40.992 21.508C41.4448 21.3372 41.819 21.0166 42.0469 20.6041C42.2748 20.1915 42.3413 19.7144 42.2345 19.2589C42.1436 18.6022 42.0145 17.9508 41.8478 17.3079C41.0745 14.5012 40.2708 11.6987 39.4736 8.89517C39.1357 7.61147 38.7042 6.35216 38.1822 5.12654C38.0212 4.61675 37.6728 4.18039 37.2018 3.89858C36.7307 3.61678 36.169 3.50872 35.6211 3.5945C34.9908 3.65755 34.3646 3.75428 33.7454 3.88423C30.6402 4.54499 27.5752 5.37563 24.4961 6.1427C22.8871 6.47386 21.3177 6.96279 19.8128 7.60179C19.4271 7.75632 19.1011 8.02232 18.8802 8.36281C18.6593 8.70331 18.5544 9.1014 18.5801 9.50174Z" fill="#7E5531"/>
<path d="M25.2749 29.0838C24.0054 29.1748 22.7388 28.8752 21.659 28.2284C20.5791 27.5816 19.7422 26.6214 19.2698 25.4871C18.4555 23.5998 17.8063 21.6508 17.3289 19.6602C16.5458 16.9108 15.6432 14.1917 15.0698 11.3923C14.7207 10.0634 14.7731 8.66662 15.2207 7.36521C15.5509 6.58658 16.0515 5.88506 16.6885 5.30808C17.3256 4.73109 18.0844 4.29209 18.9135 4.02076C20.7609 3.35137 22.6555 2.80875 24.583 2.397C27.6849 1.64556 30.7499 0.755517 33.8975 0.183344C34.9139 -0.0161651 35.9579 -0.0513899 36.9864 0.0791229C37.9144 0.198594 38.7967 0.538571 39.5531 1.0682C40.3095 1.59782 40.9161 2.30033 41.3178 3.11195C42.074 4.62069 42.6599 6.20273 43.0653 7.83108C43.9179 10.8108 44.8227 13.7717 45.5927 16.7784C45.9542 18.0026 46.0699 19.2815 45.9338 20.5471C45.7734 21.5931 45.3082 22.5743 44.5918 23.3776C43.8754 24.1808 42.937 24.7734 41.8847 25.0869C39.9256 25.7821 37.9201 26.3506 35.8818 26.7889C32.9276 27.5122 30.0027 28.3459 27.0061 28.8941C26.4387 29.0154 25.8594 29.0787 25.2781 29.0828M18.5801 9.50174C18.6061 9.71852 18.629 9.93947 18.6615 10.1562C19.0456 12.1651 19.5592 14.1491 20.1995 16.0968C20.8783 18.4533 21.455 20.841 22.3206 23.1443C23.1765 25.4163 23.9107 25.7936 26.3697 25.3329C29.7203 24.7128 32.9949 23.7633 36.2978 22.9577C37.9126 22.6391 39.4866 22.153 40.992 21.508C41.4448 21.3372 41.819 21.0166 42.0469 20.6041C42.2748 20.1915 42.3413 19.7144 42.2345 19.2589C42.1436 18.6022 42.0145 17.9508 41.8478 17.3079C41.0745 14.5012 40.2708 11.6987 39.4736 8.89517C39.1357 7.61147 38.7042 6.35216 38.1822 5.12654C38.0212 4.61675 37.6728 4.18039 37.2018 3.89858C36.7307 3.61678 36.169 3.50872 35.6211 3.5945C34.9908 3.65755 34.3646 3.75428 33.7454 3.88423C30.6402 4.54499 27.5752 5.37563 24.4961 6.1427C22.8871 6.47386 21.3177 6.96279 19.8128 7.60179C19.4271 7.75632 19.1011 8.02231 18.8802 8.36281C18.6593 8.70331 18.5544 9.1014 18.5801 9.50174Z" stroke="#FFFAF4" stroke-width="2"/>
</g>
</g>
<defs>
<clipPath id="clip0_1_141">
<rect width="46" height="46" fill="white"/>
</clipPath>
</defs>
</svg>
