<svg width="36" height="46" viewBox="0 0 36 46" fill="none" xmlns="http://www.w3.org/2000/svg">
<mask id="mask0_1_150" style="mask-type:luminance" maskUnits="userSpaceOnUse" x="0" y="0" width="36" height="46">
<path d="M36 0H0V46H36V0Z" fill="white"/>
</mask>
<g mask="url(#mask0_1_150)">
<path d="M33.1617 20.852C32.7389 21.185 32.3963 21.5022 32.0106 21.752C29.8956 23.1229 27.7877 24.5037 25.6437 25.828C23.5481 26.9981 21.5702 28.3633 19.7367 29.9051C18.6551 30.8388 17.8004 32.0019 17.2361 33.3078C16.6718 34.6137 16.4126 36.0287 16.4777 37.4475C16.5065 38.4699 16.7266 39.4782 17.1269 40.4212C17.2183 40.577 17.2497 40.7603 17.2153 40.9372C17.1808 41.1141 17.0829 41.2727 16.9395 41.3837C16.5177 41.7228 15.9968 41.5354 15.7533 40.9595C15.1169 39.4064 14.8727 37.7233 15.042 36.0558C15.1831 34.4225 15.6918 32.8411 16.5308 31.4276C17.3699 30.0141 18.518 28.8043 19.891 27.8869C21.9869 26.3633 24.2331 25.036 26.4462 23.677C28.86 22.3067 31.1173 20.6825 33.1787 18.8328C33.2848 18.7415 33.411 18.6761 33.5472 18.6416C33.6834 18.6072 33.8259 18.6048 33.9632 18.6345C34.0917 18.7052 34.2031 18.8028 34.2896 18.9204C34.3761 19.038 34.4357 19.1728 34.4641 19.3155C34.912 22.3408 35.3658 25.3622 35.7345 28.4003C36.1352 31.7042 36.2194 35.0001 34.952 38.182C33.9069 41.134 31.7627 43.5803 28.9569 45.0216C27.1952 45.8453 25.2366 46.1676 23.3004 45.9524C21.581 45.8742 19.8923 45.4736 18.3241 44.7718C18.1663 44.7264 17.9979 44.733 17.8442 44.7907C16.5107 45.1644 15.1833 45.5629 13.8468 45.9247C13.2667 46.0823 12.873 45.8711 12.7658 45.429C12.6586 44.9869 12.9461 44.644 13.5252 44.524C16.3889 43.9844 19.1094 42.8664 21.5168 41.2398C23.9243 39.6133 25.9669 37.5131 27.5172 35.0705C28.5717 33.4437 29.3816 31.674 29.9217 29.8168C30.1221 29.1329 30.4717 28.8504 30.9316 28.9822C31.4245 29.1249 31.5587 29.5373 31.3323 30.252C29.6442 35.908 25.7699 40.6772 20.5502 43.5248C20.4013 43.6088 20.2524 43.6934 20.1034 43.7786C20.0914 43.7855 20.0854 43.8024 20.0213 43.8936C20.442 44.0026 20.8278 44.1305 21.2235 44.2019C23.1129 44.6603 25.0858 44.6644 26.9772 44.2138C28.2631 43.8117 29.452 43.1531 30.4705 42.2787C31.4891 41.4042 32.3156 40.3325 32.8992 39.1296C34.2667 36.5332 34.8041 33.5868 34.4401 30.6812C34.1836 28.0712 33.7678 25.4761 33.4232 22.8741C33.338 22.2318 33.2539 21.5855 33.1567 20.852" fill="#7E5531"/>
<path d="M14.9879 2.24614C14.9138 2.33635 14.8727 2.37897 14.8396 2.42754C12.3924 6.06874 9.94552 9.7096 7.49896 13.3501C5.64155 15.9689 4.0762 18.779 2.83027 21.7312C1.92183 23.9408 1.46093 26.3054 1.47375 28.6907C1.5625 31.7771 2.73883 34.7357 4.79922 37.0546C6.85961 39.3736 9.67445 40.907 12.7567 41.3897C13.2346 41.459 13.7175 41.5027 14.1984 41.5532C14.6994 41.6067 14.9869 41.8893 14.9689 42.3095C14.9627 42.4141 14.9344 42.5162 14.8858 42.6092C14.8371 42.7022 14.7693 42.7841 14.6866 42.8495C14.604 42.915 14.5084 42.9625 14.406 42.989C14.3036 43.0155 14.1967 43.0204 14.0922 43.0034C10.2841 42.833 6.69419 41.1967 4.08862 38.4437C2.68325 37.0146 1.59506 35.3109 0.893757 33.4416C0.192453 31.5723 -0.106504 29.5787 0.0160361 27.5885C0.231504 24.403 1.13951 21.3011 2.67799 18.4947C4.30693 15.5191 6.11348 12.642 8.08806 9.87878C10.182 6.76823 12.2218 3.622 14.2796 0.486671C14.6803 -0.125923 15.2995 -0.178459 15.6531 0.428187C18.245 4.88089 21.3578 8.9926 24.198 13.2827C25.816 15.6325 27.2007 18.1315 28.3327 20.7449C28.4129 20.9431 28.5201 21.2058 28.4449 21.3575C28.3297 21.5924 28.0903 21.8789 27.8639 21.9185C27.7244 21.9174 27.5867 21.8871 27.4598 21.8297C27.3329 21.7723 27.2197 21.6891 27.1275 21.5855C26.9613 21.3425 26.8354 21.0748 26.7548 20.7924C25.347 17.8079 23.6704 14.9548 21.7455 12.2677C19.5347 8.9926 17.3306 5.71222 15.1332 2.42655C15.1001 2.37699 15.06 2.32742 14.9869 2.2392" fill="#7E5531"/>
<path d="M5.40305 26.0531C5.34194 26.7906 5.22873 27.5281 5.23073 28.2655C5.19664 29.7705 5.53589 31.2607 6.21881 32.6059C6.90172 33.951 7.90747 35.11 9.14802 35.9814C9.23518 36.0459 9.32836 36.1044 9.41051 36.1797C9.49078 36.2352 9.55883 36.3062 9.6105 36.3884C9.66218 36.4707 9.69642 36.5625 9.71113 36.6583C9.72584 36.7541 9.72072 36.8518 9.69608 36.9455C9.67144 37.0393 9.6278 37.1271 9.5678 37.2037C9.50823 37.2806 9.43382 37.3451 9.34888 37.3934C9.26393 37.4417 9.17015 37.4728 9.07295 37.485C8.97575 37.4972 8.87708 37.4901 8.78266 37.4643C8.68823 37.4385 8.59992 37.3944 8.52286 37.3345C7.39262 36.5825 6.41916 35.6224 5.65552 34.5065C4.80931 33.2685 4.22366 31.8747 3.93346 30.4081C3.64326 28.9415 3.65445 27.4321 3.96638 25.9698C4.05554 25.4742 4.36712 25.2095 4.78189 25.2472C4.87854 25.2545 4.97252 25.282 5.05765 25.3278C5.14279 25.3736 5.21714 25.4368 5.27583 25.5131C5.33451 25.5894 5.37619 25.6772 5.39812 25.7706C5.42004 25.864 5.42173 25.961 5.40305 26.0551" fill="#7E5531"/>
</g>
</svg>
