<svg width="46" height="40" viewBox="0 0 46 40" fill="none" xmlns="http://www.w3.org/2000/svg">
<g clip-path="url(#clip0_1_158)">
<mask id="mask0_1_158" style="mask-type:luminance" maskUnits="userSpaceOnUse" x="0" y="0" width="46" height="40">
<path d="M46 0H0V40H46V0Z" fill="white"/>
</mask>
<g mask="url(#mask0_1_158)">
<path d="M23.1041 36.011C21.6648 36.9315 20.3325 37.8569 18.9259 38.661C17.5889 39.4582 16.0647 39.9123 14.4967 39.9807C13.36 40.0619 12.2268 39.7836 11.2669 39.1875C10.3071 38.5915 9.57231 37.7098 9.17279 36.6747C8.4316 34.8212 8.16541 32.8209 8.39706 30.8457C8.46947 29.8925 8.61728 28.944 8.73433 27.9754C8.00027 27.6792 7.25232 27.4031 6.52718 27.0799C4.68199 26.3298 3.01765 25.2161 1.63971 23.8095C1.11934 23.3119 0.70613 22.7191 0.424096 22.0653C0.142063 21.4116 -0.00317383 20.71 -0.00317383 20.0014C-0.00317383 19.2928 0.142063 18.5912 0.424096 17.9375C0.70613 17.2837 1.11934 16.6908 1.63971 16.1933C3.19248 14.6359 5.07807 13.427 7.16403 12.6516C7.67292 12.4391 8.1947 12.2544 8.73036 12.0505C8.61629 11.0972 8.47344 10.1507 8.39607 9.19942C8.17153 7.3157 8.39551 5.40713 9.05077 3.62049C9.49142 2.30937 10.4416 1.21636 11.6997 0.573435C12.9578 -0.0694884 14.4248 -0.211716 15.7893 0.176938C18.1577 0.786512 20.3532 1.90785 22.2113 3.45697C22.4425 3.63299 22.6667 3.81767 22.8948 3.99755C22.9329 4.01914 22.9727 4.0378 23.0139 4.05334C23.4206 3.74169 23.8372 3.41272 24.2647 3.09722C25.8427 1.85921 27.6467 0.920113 29.5827 0.328916C30.8556 -0.076529 32.2254 -0.0976607 33.511 0.268317C34.379 0.555121 35.1598 1.04673 35.7832 1.69888C36.4066 2.35104 36.8529 3.14328 37.0821 4.00428C37.6083 5.65716 37.7831 7.3964 37.5959 9.1167C37.5166 10.0844 37.3757 11.0482 37.2626 12.011C38.2486 12.4314 39.2466 12.8228 40.2157 13.2807C41.7784 13.9811 43.1844 14.9716 44.3543 16.1962C44.8746 16.6941 45.2876 17.2874 45.5693 17.9416C45.851 18.5957 45.9957 19.2976 45.9952 20.0065C45.9946 20.7153 45.8488 21.417 45.566 22.0707C45.2833 22.7244 44.8694 23.3171 44.3483 23.8143C42.729 25.4358 40.7532 26.6819 38.5681 27.4599C38.1425 27.632 37.708 27.7869 37.2358 27.9658C37.3241 28.5853 37.4223 29.2028 37.4987 29.8232C37.777 31.6828 37.6976 33.5763 37.2646 35.4079C36.9788 36.7248 36.2662 37.9186 35.2311 38.8149C34.5454 39.3568 33.7359 39.7317 32.8703 39.9084C32.0047 40.0851 31.1081 40.0585 30.2553 39.8307C27.8492 39.237 25.6209 38.1025 23.7509 36.5189C23.5089 36.3332 23.2738 36.1418 23.1081 36.011M22.9771 28.7007C24.4889 28.6208 26.0186 28.5554 27.5402 28.4467C27.8054 28.4177 28.0486 28.2901 28.2188 28.0909C30.0119 25.6667 31.5559 23.0781 32.8285 20.3621C32.9241 20.1356 32.9262 19.8821 32.8344 19.6542C31.5622 16.9397 30.0204 14.3519 28.2307 11.9273C28.0763 11.7332 27.8514 11.6034 27.6018 11.5647C24.5368 11.2819 21.4512 11.2819 18.3863 11.5647C18.1371 11.6051 17.9132 11.7362 17.7603 11.9312C15.9812 14.3476 14.4462 16.9245 13.1764 19.6263C13.0763 19.8656 13.0742 20.1329 13.1705 20.3736C14.446 23.0715 15.9734 25.6504 17.7336 28.0783C17.8111 28.1974 17.9182 28.2958 18.045 28.3643C18.1719 28.4329 18.3145 28.4695 18.4597 28.4708C19.9576 28.5449 21.4545 28.6266 22.9722 28.7074M36.9591 26.5557C37.467 26.3575 37.9709 26.1767 38.4619 25.968C40.301 25.2818 41.9577 24.2039 43.3097 22.8139C43.7005 22.45 44.0112 22.0131 44.2233 21.5296C44.4354 21.0461 44.5445 20.526 44.5439 20.0006C44.5434 19.4752 44.4332 18.9554 44.2201 18.4723C44.007 17.9893 43.6953 17.553 43.3038 17.1898C42.3278 16.1412 41.1479 15.2897 39.8318 14.6841C38.9004 14.2301 37.9352 13.8424 36.968 13.4183C36.8946 13.5722 36.8569 13.6356 36.8331 13.7068C36.1298 15.7172 35.4225 17.7256 34.7351 19.7407C34.6797 19.935 34.6888 20.1413 34.7609 20.3304C35.0456 21.0893 35.3927 21.8271 35.6596 22.5918C36.109 23.8797 36.5137 25.1821 36.963 26.5576M9.0716 13.4461C8.57562 13.6385 8.13815 13.7905 7.71359 13.9675C5.85806 14.6502 4.17638 15.7132 2.78346 17.084C2.36285 17.4511 2.02635 17.8997 1.79571 18.4008C1.56507 18.9018 1.44542 19.4443 1.44448 19.993C1.44355 20.5417 1.56135 21.0845 1.79029 21.5864C2.01922 22.0882 2.35418 22.5378 2.77354 22.9063C4.53624 24.59 6.68997 25.8389 9.05375 26.548C9.10632 26.4037 9.147 26.295 9.18568 26.1854C9.86618 24.2462 10.5536 22.3099 11.2143 20.365C11.2912 20.118 11.2881 19.8541 11.2053 19.6089C10.7094 18.2383 10.1707 16.8858 9.67969 15.5152C9.44261 14.8553 9.2829 14.1685 9.0716 13.4413M21.9584 5.08351C20.2259 3.55202 18.1809 2.39062 15.9559 1.67459C13.0018 0.862762 10.9464 2.01414 10.1598 4.89595C9.80847 6.2813 9.70778 7.71527 9.86221 9.13401C9.93363 9.94777 10.0556 10.7567 10.1598 11.5974C10.4048 11.5378 10.5566 11.4954 10.7014 11.4666C12.7598 11.0741 14.8191 10.6903 16.8735 10.2844C17.0887 10.2288 17.2811 10.1106 17.4251 9.94585C18.417 8.81948 19.3763 7.66137 20.3851 6.54654C20.8513 6.0329 21.4059 5.59524 21.9624 5.08351M10.1578 28.4496C10.0586 29.2778 9.92768 30.0848 9.86023 30.9063C9.64874 32.6399 9.86218 34.3975 10.4832 36.036C10.8024 36.9351 11.4561 37.6864 12.3163 38.1429C13.1766 38.5994 14.1815 38.7282 15.1346 38.5042C17.7703 38.0444 19.8494 36.5853 21.88 34.9972C21.8422 34.9366 21.8008 34.8781 21.756 34.8221C20.2909 33.1994 18.8287 31.5758 17.3526 29.9636C17.2134 29.8333 17.036 29.748 16.8447 29.7193C15.9163 29.5635 14.9788 29.4635 14.0553 29.2855C12.7856 29.0412 11.5277 28.7459 10.1578 28.4496ZM24.1249 5.0133C24.1844 5.09794 24.2062 5.13738 24.236 5.17008C25.7011 6.79182 27.1633 8.41549 28.6394 10.0276C28.773 10.1619 28.9463 10.2526 29.1353 10.2873C30.2444 10.4797 31.3643 10.6115 32.4694 10.8212C33.5744 11.0309 34.6607 11.3021 35.7766 11.5551C35.808 11.4737 35.8338 11.3905 35.854 11.306C36.2087 9.56824 36.281 7.78745 36.0683 6.02809C35.965 4.79398 35.4811 3.61857 34.6795 2.65475C34.1528 2.09721 33.4707 1.69965 32.7158 1.51016C31.9609 1.32067 31.1655 1.34738 30.4259 1.58706C28.0786 2.23667 25.9207 3.41005 24.1249 5.0133ZM24.1467 35.0068C25.8462 36.4983 27.8485 37.6286 30.0252 38.3253C32.9951 39.1496 35.0614 37.9906 35.8411 35.0828C36.1836 33.7262 36.2842 32.3228 36.1387 30.9332C36.0653 30.1031 35.9403 29.2778 35.8411 28.4323C35.6685 28.4593 35.5763 28.465 35.49 28.4891C33.3943 29.0623 31.2557 29.4762 29.0937 29.727C28.8905 29.7744 28.71 29.8873 28.5818 30.0473C28.1047 30.5966 27.6791 31.19 27.1931 31.7297C26.2011 32.8204 25.1912 33.8862 24.1477 35.0058M33.8691 18.2094L35.5753 13.021C33.7835 12.4884 31.9489 12.1023 30.0906 11.8667L33.8691 18.2152M30.0331 28.2351L35.5237 27.0732C35.0975 25.3033 34.527 23.569 33.8175 21.8867L30.0331 28.2351ZM12.1269 18.2113L15.9589 11.7782L10.3979 12.9479C10.9931 14.7524 11.5446 16.4386 12.1269 18.2113ZM15.9599 28.2313L12.1269 21.7972C11.5436 23.5709 10.9871 25.2658 10.3979 27.0597L15.9599 28.2313ZM19.1561 30.0194L23 34.1103L26.8389 30.0194H19.1561ZM19.1561 9.98817H26.8389L22.999 5.89727L19.1561 9.98817Z" fill="#7E5531"/>
<path d="M23.0139 24.3107C22.1348 24.3136 21.2746 24.0633 20.5422 23.5918C19.8099 23.1202 19.2383 22.4485 18.9 21.6617C18.5617 20.8749 18.4718 20.0084 18.6417 19.172C18.8116 18.3356 19.2337 17.567 19.8545 16.9634C20.4753 16.3598 21.2668 15.9485 22.1289 15.7815C22.991 15.6144 23.8848 15.6993 24.6971 16.0252C25.5095 16.3512 26.2037 16.9036 26.692 17.6125C27.1803 18.3213 27.4407 19.1548 27.4401 20.0072C27.4362 21.1454 26.969 22.2361 26.1401 23.042C25.3112 23.8479 24.1877 24.3039 23.0139 24.3107ZM22.9573 22.8929C23.547 22.9008 24.1258 22.739 24.6206 22.428C25.1155 22.117 25.5041 21.6707 25.7374 21.1455C25.9706 20.6204 26.0381 20.0399 25.9312 19.4776C25.8243 18.9153 25.5478 18.3963 25.1368 17.9863C24.7258 17.5763 24.1986 17.2937 23.6219 17.1742C23.0452 17.0546 22.445 17.1036 21.897 17.3149C21.349 17.5261 20.878 17.8902 20.5434 18.361C20.2087 18.8319 20.0256 19.3883 20.0171 19.9601C20.0084 20.7264 20.3126 21.4649 20.8635 22.0144C21.4144 22.5639 22.1671 22.8797 22.9573 22.8929Z" fill="#7E5531"/>
</g>
</g>
<defs>
<clipPath id="clip0_1_158">
<rect width="46" height="40" fill="white"/>
</clipPath>
</defs>
</svg>
