<svg width="46" height="46" viewBox="0 0 46 46" fill="none" xmlns="http://www.w3.org/2000/svg">
<g clip-path="url(#clip0_1_166)">
<mask id="mask0_1_166" style="mask-type:luminance" maskUnits="userSpaceOnUse" x="0" y="0" width="46" height="46">
<path d="M46 0H0V46H46V0Z" fill="white"/>
</mask>
<g mask="url(#mask0_1_166)">
<path d="M37.9451 27.4126C37.9104 30.8494 36.639 34.1587 34.3637 36.7346C32.0883 39.3104 28.9613 40.9804 25.5552 41.4387C21.909 41.905 18.2247 40.9305 15.2859 38.7223C12.347 36.5141 10.3854 33.2465 9.81825 29.6144C9.29465 26.0149 10.0191 22.3447 11.8712 19.2143C13.1208 16.9966 14.5409 14.8702 15.971 12.7616C18.4624 9.29715 20.6425 5.61908 22.4858 1.77039C22.6375 1.43219 22.7883 1.09299 22.9321 0.751807C23.0917 0.370953 23.2564 -0.00791708 23.7582 0.00100918C24.2332 0.00894364 24.3949 0.371945 24.5516 0.73693C25.5371 3.12321 26.7319 5.41761 28.1219 7.59329C29.9853 10.4695 31.9411 13.2962 33.8313 16.1605C35.4811 18.4653 36.6875 21.0571 37.3887 23.8034C37.6485 24.9935 37.7616 26.2085 37.9411 27.4126M23.6937 2.70467C23.6649 2.74044 23.6396 2.77897 23.6184 2.81972C21.7386 6.66684 19.5283 10.3434 17.0124 13.808C15.4448 15.9364 14.042 18.1814 12.8163 20.5235C11.3714 23.2821 10.8331 26.4261 11.2781 29.5083C11.5599 31.2037 12.1839 32.8241 13.1121 34.2706C14.0403 35.7171 15.2533 36.9595 16.6771 37.9221C18.1009 38.8847 19.7057 39.5473 21.3939 39.8696C23.082 40.1919 24.8181 40.1672 26.4963 39.7968C28.1746 39.4265 29.7599 38.7184 31.1557 37.7156C32.5515 36.7128 33.7285 35.4363 34.6151 33.9639C35.5017 32.4915 36.0792 30.8541 36.3126 29.1512C36.546 27.4484 36.4302 25.7159 35.9725 24.0593C35.254 21.4957 34.1018 19.074 32.5659 16.8994C30.749 14.1551 28.8498 11.4633 27.0904 8.68329C25.8706 6.75621 24.8283 4.71606 23.6927 2.70467" fill="#7E5531"/>
<path d="M40.0664 2.21973C40.2527 2.22291 40.4314 2.29383 40.5692 2.41923C40.707 2.54463 40.7945 2.71593 40.8152 2.9011C40.956 3.54875 41.0968 4.19739 41.2743 4.83611C41.446 5.56282 41.8145 6.22823 42.3393 6.75938C42.8641 7.29053 43.525 7.6669 44.2496 7.84724C44.5759 7.93948 44.8982 8.0456 45.2284 8.12494C45.6579 8.22413 46.002 8.40959 45.995 8.9045C45.9891 9.37264 45.6618 9.54819 45.2502 9.6553C44.7544 9.78225 44.2714 9.93797 43.7924 10.1076C43.2455 10.2858 42.7487 10.5914 42.343 10.9992C41.9373 11.407 41.6342 11.9053 41.4588 12.4532C41.197 13.2248 41.0086 14.0232 40.8251 14.8177C40.7259 15.2461 40.5375 15.5516 40.0763 15.5516C39.6152 15.5516 39.4218 15.2471 39.3285 14.8177C39.1709 14.0946 39.0013 13.3726 38.7801 12.6674C38.5973 12.0323 38.2554 11.4544 37.7868 10.9884C37.3182 10.5224 36.7385 10.1837 36.1024 10.0044C35.6898 9.87449 35.2773 9.74456 34.8588 9.64142C34.4402 9.53827 34.1378 9.32106 34.1596 8.85789C34.1794 8.42249 34.469 8.21817 34.8836 8.14875C35.1416 8.09998 35.3968 8.03741 35.6482 7.9613C36.518 7.74774 37.3055 7.2824 37.9121 6.62349C38.5188 5.96458 38.9176 5.14138 39.0588 4.2569C39.158 3.78876 39.2512 3.31964 39.3563 2.8525C39.3834 2.68125 39.469 2.52466 39.5984 2.40932C39.7278 2.29397 39.8932 2.22699 40.0664 2.21973ZM40.0793 11.9255C40.3253 11.2563 40.7029 10.6432 41.1899 10.1224C41.677 9.60162 42.2634 9.18379 42.9147 8.89359C42.2631 8.59902 41.676 8.17868 41.1873 7.65668C40.6985 7.13468 40.3176 6.52129 40.0664 5.85172C39.8231 6.52414 39.4452 7.13984 38.9558 7.66117C38.4664 8.1825 37.8758 8.59848 37.2201 8.88368C37.8762 9.17233 38.4674 9.5903 38.9583 10.1126C39.4492 10.6349 39.8298 11.2508 40.0773 11.9236" fill="#7E5531"/>
<path d="M5.57064 33.406C5.7496 33.4179 5.91875 33.4921 6.04879 33.6156C6.17883 33.7392 6.26158 33.9043 6.28271 34.0824C6.3918 34.612 6.51973 35.1367 6.63874 35.6634C6.81459 36.4707 7.22653 37.2074 7.82219 37.78C8.41785 38.3526 9.17031 38.735 9.98389 38.8788C10.1182 38.9157 10.2542 38.9458 10.3915 38.9691C10.5806 38.9732 10.7606 39.0516 10.8925 39.1872C11.0244 39.3228 11.0977 39.5049 11.0966 39.6941C11.1065 40.1334 10.8269 40.3516 10.4203 40.4488C10.1049 40.5252 9.79744 40.6283 9.48505 40.7166C8.87059 40.8575 8.30374 41.1569 7.84092 41.585C7.37809 42.013 7.03542 42.5548 6.84701 43.1565C6.62288 43.8438 6.45031 44.545 6.29064 45.2551C6.18353 45.7272 5.95047 46.0129 5.55279 46C5.36464 45.9983 5.18398 45.926 5.0466 45.7974C4.90922 45.6688 4.82512 45.4933 4.81096 45.3057C4.64534 44.5847 4.48468 43.8587 4.25757 43.1555C4.0888 42.598 3.78324 42.0916 3.36873 41.6824C2.95421 41.2733 2.44392 40.9743 1.88433 40.8128C1.45887 40.675 1.02647 40.5559 0.595064 40.429C0.423175 40.3948 0.269175 40.3002 0.160848 40.1625C0.0525208 40.0247 -0.00300071 39.8527 0.00430049 39.6776C0.0116017 39.5025 0.0812449 39.3357 0.200665 39.2074C0.320086 39.0791 0.48142 38.9978 0.65556 38.978C0.853909 38.9383 1.05226 38.8986 1.24366 38.8451C2.03801 38.6844 2.76749 38.2934 3.34117 37.7209C3.91486 37.1484 4.30738 36.4197 4.4698 35.6257C4.58617 35.0967 4.70418 34.5697 4.82385 34.0447C4.85061 33.8663 4.9409 33.7035 5.07811 33.5863C5.21532 33.4692 5.39022 33.4045 5.57064 33.406ZM5.57064 42.3233C6.04511 41.1621 6.94003 40.2225 8.07677 39.6921C6.91011 39.1461 6.00121 38.1681 5.54188 36.9646C5.09496 38.172 4.19077 39.155 3.02483 39.701C4.15341 40.2504 5.05383 41.178 5.56965 42.3224" fill="#7E5531"/>
<path d="M21.498 36.5719C21.5078 36.6996 21.484 36.8277 21.4291 36.9434C21.3742 37.0591 21.2901 37.1585 21.185 37.2317C21.0799 37.3049 20.9575 37.3495 20.83 37.3609C20.7024 37.3723 20.5741 37.3503 20.4577 37.2969C18.9423 36.7902 17.5641 35.9411 16.43 34.8155C15.2958 33.6899 14.4363 32.3181 13.9181 30.8065C13.7416 30.2908 13.8973 29.8891 14.3247 29.7384C14.4244 29.7056 14.5299 29.6944 14.6343 29.7054C14.7386 29.7164 14.8394 29.7495 14.9301 29.8023C15.0207 29.8552 15.0991 29.9267 15.16 30.0121C15.221 30.0975 15.2632 30.1949 15.2837 30.2977C15.7216 31.6001 16.4547 32.7836 17.4257 33.7557C18.3967 34.7278 19.5793 35.4622 20.8811 35.9015C21.0404 35.9363 21.185 36.0194 21.2954 36.1393C21.4058 36.2593 21.4765 36.4103 21.498 36.5719Z" fill="#7E5531"/>
</g>
</g>
<defs>
<clipPath id="clip0_1_166">
<rect width="46" height="46" fill="white"/>
</clipPath>
</defs>
</svg>
