<svg width="30" height="46" viewBox="0 0 30 46" fill="none" xmlns="http://www.w3.org/2000/svg">
<g clip-path="url(#clip0_1_176)">
<mask id="mask0_1_176" style="mask-type:luminance" maskUnits="userSpaceOnUse" x="0" y="0" width="30" height="46">
<path d="M30 0H0V46H30V0Z" fill="white"/>
</mask>
<g mask="url(#mask0_1_176)">
<path d="M12.7774 46C12.0414 45.8523 11.2888 45.7657 10.5722 45.5477C7.92266 44.8767 5.52332 43.3937 3.67969 41.2874C1.83605 39.1812 0.631521 36.547 0.219446 33.7202C0.0750519 32.8518 0.0100234 31.9711 0.0252461 31.0898C0.00582614 23.9403 0.0242751 16.7877 1.45286e-07 9.6352C-0.0278594 9.37487 -0.00258681 9.11131 0.0741383 8.86201C0.150863 8.61272 0.277284 8.38342 0.444996 8.18935C0.612709 7.99527 0.817873 7.84087 1.04685 7.73641C1.27583 7.63194 1.52338 7.57981 1.77305 7.58347C2.64479 7.59705 3.49826 7.84767 4.25006 8.31085C4.31027 8.34854 4.37338 8.38318 4.48505 8.44838L4.61225 7.93901C5.1463 5.78846 5.68812 3.64096 6.2144 1.49041C6.30106 1.14276 6.47019 0.823776 6.70601 0.563175C6.94184 0.302573 7.23669 0.108833 7.56312 0L8.41759 0C8.78852 0.17726 9.174 0.327014 9.52842 0.534836C10.4962 1.09684 11.2593 1.97933 11.6985 3.04445C12.1376 4.10956 12.2282 5.2973 11.9559 6.42211C11.8132 6.97136 11.7029 7.52933 11.6258 8.09284C11.6967 7.99096 11.7714 7.89724 11.8394 7.79537C12.6162 6.63197 13.3881 5.46654 14.1698 4.3062C14.305 4.06661 14.4894 3.86167 14.7096 3.7063C14.9299 3.55093 15.1803 3.44904 15.4428 3.40805C15.7053 3.36706 15.9732 3.38801 16.227 3.46936C16.4808 3.55072 16.7141 3.69043 16.91 3.87833C17.8809 4.67021 18.5396 5.80967 18.7603 7.07896C18.981 8.34824 18.7481 9.65834 18.1062 10.7589C17.1226 12.4703 16.1875 14.2134 15.235 15.9442C15.1505 16.0981 15.0922 16.2672 14.9874 16.5096C15.2903 16.3803 15.5292 16.2733 15.771 16.1755C17.831 15.3177 20.0992 15.1774 22.241 15.7754C24.3828 16.3734 26.2846 17.678 27.6657 19.4966C28.227 20.2124 28.7869 20.9296 29.3455 21.6481C30.269 22.8441 30.2301 23.6683 29.1659 24.7858C29.8728 25.3686 29.8087 26.2019 29.8087 27.0271C29.894 28.9109 29.7724 30.7988 29.4465 32.6535C28.9952 35.0752 28.0499 37.3657 26.6756 39.368C25.3012 41.3703 23.5303 43.0371 21.4843 44.2539C19.9166 45.1758 18.1819 45.7422 16.3924 45.9165C16.2966 45.9356 16.2027 45.9639 16.1118 46.001L12.7774 46ZM1.44679 21.0124C1.44679 24.3213 1.44096 27.6342 1.45164 30.938C1.44467 31.6259 1.48361 32.3136 1.56816 32.9958C1.81899 35.2049 2.60745 37.3091 3.85771 39.1059C5.10797 40.9028 6.77794 42.3318 8.70695 43.2555C10.7337 44.2302 12.9615 44.6544 15.1855 44.4892C17.1564 44.453 19.0894 43.9138 20.8173 42.9183C24.1342 40.9288 26.5877 37.6686 27.6628 33.822C28.2964 31.3641 28.5311 28.8118 28.3571 26.2722C28.3571 25.9666 28.1842 25.8749 27.9124 25.8647C27.4699 25.8391 27.0271 25.9088 26.6113 26.0694C26.1954 26.2301 25.8153 26.4783 25.4943 26.7989C25.1733 27.1194 24.9183 27.5055 24.7448 27.9333C24.5714 28.3612 24.4832 28.8217 24.4857 29.2866C24.4895 30.049 24.2367 30.7883 23.7718 31.3742C23.307 31.9602 22.6599 32.3552 21.9446 32.4895C21.0137 32.6266 20.0687 32.6208 19.1394 32.4722C18.0834 32.3261 17.0957 31.8428 16.3104 31.0877C15.5251 30.3327 14.9802 29.3426 14.7495 28.2516C14.4444 27.1798 14.4575 26.0359 14.787 24.9721C15.1166 23.9082 15.747 22.9749 16.5944 22.2961C17.0862 21.8335 17.6623 21.4804 18.2878 21.2579C18.9133 21.0355 19.5753 20.9484 20.2338 21.0019C20.8923 21.0554 21.5337 21.2484 22.1191 21.5693C22.7045 21.8901 23.2219 22.3321 23.64 22.8686C23.7463 23.0093 23.8601 23.1436 23.9808 23.271C24.5355 23.8613 25.2769 24.2184 26.0652 24.2747C26.8535 24.331 27.6342 24.0827 28.26 23.5766C28.5649 23.3209 28.6231 23.0876 28.3571 22.7555C27.6851 21.9222 27.0433 21.0624 26.3694 20.2301C24.9391 18.4551 22.9288 17.3041 20.7321 17.0026C18.5354 16.7011 16.3105 17.2708 14.4931 18.6001C14.1919 18.7989 13.9736 19.1102 13.8824 19.4711C13.7241 20.0905 13.5338 20.7007 13.359 21.315C13.1949 21.8937 12.8502 22.1412 12.3938 22.0047C11.9841 21.8824 11.8219 21.4648 11.9695 20.8953C12.4361 18.9542 13.1016 17.0719 13.9542 15.281C14.8281 13.538 15.7817 11.8397 16.7701 10.166C17.2725 9.39359 17.4841 8.45319 17.3639 7.52663C17.2438 6.60007 16.8004 5.75317 16.1196 5.14971C15.7312 4.81149 15.5816 4.82881 15.2932 5.25158C15.1767 5.42171 15.0641 5.59388 14.9505 5.76605C13.4376 7.88213 12.0746 10.1117 10.8723 12.4367C10.7589 12.6429 10.6847 12.8702 10.6538 13.106C10.5266 15.3748 10.4081 17.6435 10.311 19.9132C10.2751 20.7496 10.3305 21.5911 10.2887 22.4275C10.2673 22.7004 10.1445 22.9536 9.94692 23.1324C9.47113 23.5002 8.87882 23.0754 8.86911 22.3786C8.85746 21.1062 8.81862 19.8317 8.87688 18.5614C8.96815 16.5911 9.02544 14.6087 9.29149 12.6608C9.58279 10.5103 10.0576 8.38216 10.5295 6.26421C10.7866 5.32895 10.6963 4.3262 10.2766 3.45808C9.85694 2.58997 9.1392 1.92105 8.26806 1.58617C7.90976 1.45883 7.70003 1.52301 7.60196 1.92949C7.00382 4.40196 6.39597 6.87137 5.80561 9.34486C5.7655 9.52833 5.79216 9.72089 5.88037 9.88479C6.50282 10.8964 6.8168 12.0829 6.78049 13.2864C6.77272 16.8642 6.78049 20.443 6.78049 24.0208C6.78049 24.7339 6.52318 25.123 6.04739 25.122C5.5716 25.121 5.3405 24.7553 5.3405 24.0147C5.3405 20.3615 5.34729 16.7083 5.3405 13.0551C5.37616 12.0875 5.05835 11.142 4.45198 10.4119C3.84562 9.68185 2.99645 9.22219 2.07794 9.12685C1.51379 9.04841 1.45262 9.10139 1.45262 9.69429C1.45262 13.467 1.45262 17.2397 1.45262 21.0124M24.71 25.5102C23.7709 25.1166 22.9525 24.4605 22.3437 23.6133C21.9902 23.1783 21.5313 22.8515 21.0156 22.6674C20.4998 22.4832 19.9462 22.4486 19.4132 22.567C18.4927 22.7216 17.6514 23.2053 17.032 23.9363C16.4126 24.6673 16.0532 25.6005 16.0147 26.5778C15.9467 27.5632 16.2189 28.5415 16.7816 29.3337C17.3442 30.126 18.1597 30.6796 19.0792 30.8932C19.9449 31.0495 20.827 31.081 21.7009 30.9869C22.0664 30.9381 22.4031 30.7532 22.6496 30.4658C22.8961 30.1784 23.036 29.8076 23.0438 29.4211C23.0376 28.6813 23.1838 27.9488 23.4722 27.2737C23.7606 26.5986 24.1844 25.9967 24.7148 25.5091" fill="#7E5531"/>
</g>
</g>
<defs>
<clipPath id="clip0_1_176">
<rect width="30" height="46" fill="white"/>
</clipPath>
</defs>
</svg>
