<svg width="36" height="46" viewBox="0 0 36 46" fill="none" xmlns="http://www.w3.org/2000/svg">
<mask id="mask0_1_231" style="mask-type:luminance" maskUnits="userSpaceOnUse" x="-10" y="0" width="46" height="46">
<path d="M36 0H-10V46H36V0Z" fill="white"/>
</mask>
<g mask="url(#mask0_1_231)">
<path d="M7.79063 37.361C7.79063 38.334 7.79063 39.307 7.79063 40.281C7.79063 40.8467 7.52986 41.1668 7.07872 41.1727C6.61073 41.1836 6.33509 40.8527 6.3341 40.2641C6.3341 38.333 6.32419 36.3999 6.34203 34.4708C6.35571 34.3291 6.32412 34.1867 6.2518 34.064C6.17948 33.9414 6.07015 33.8448 5.93948 33.7881C4.28664 32.8528 2.65065 31.8867 0.996817 30.9524C0.801572 30.8624 0.638412 30.7151 0.529108 30.5301C0.419803 30.3451 0.369551 30.1312 0.385058 29.9169C0.404888 27.8032 0.404888 25.6868 0.385058 23.5677C0.369427 23.3612 0.416884 23.1547 0.521156 22.9757C0.625429 22.7967 0.781608 22.6535 0.969055 22.565C2.62289 21.6317 4.25987 20.6666 5.91271 19.7303C6.05124 19.6717 6.16756 19.5706 6.2449 19.4417C6.32224 19.3128 6.3566 19.1626 6.34303 19.0129C6.31923 17.3147 6.31923 15.6154 6.34303 13.9151C6.35661 13.7733 6.32499 13.6308 6.2527 13.5081C6.1804 13.3853 6.07112 13.2885 5.94047 13.2315C4.26086 12.2803 2.59116 11.3103 0.920472 10.3442C0.438599 10.0658 0.286899 9.71503 0.46537 9.32663C0.510542 9.22288 0.579283 9.13107 0.666143 9.05849C0.753003 8.98591 0.855593 8.93455 0.965773 8.90849C1.07595 8.88244 1.19069 8.88239 1.3009 8.90836C1.4111 8.93433 1.51373 8.98561 1.60065 9.05812C3.26241 10.0083 4.92814 10.9546 6.57306 11.9315C6.71958 12.0368 6.89591 12.0926 7.07638 12.0908C7.25686 12.0891 7.43205 12.0298 7.57646 11.9216C9.18369 10.9694 10.8147 10.0559 12.4229 9.10568C12.594 8.98809 12.7968 8.92513 13.0045 8.92513C13.2121 8.92513 13.4149 8.98809 13.586 9.10568C15.4242 10.1837 17.2694 11.2495 19.1216 12.3031C19.3019 12.3896 19.4519 12.5287 19.5517 12.702C19.6515 12.8753 19.6965 13.0747 19.6808 13.2741C19.6639 15.2052 19.6808 17.1383 19.6659 19.0684C19.6527 19.1958 19.68 19.3241 19.7439 19.435C19.8078 19.546 19.9051 19.6341 20.0219 19.6867C21.5422 20.5454 23.0539 21.417 24.557 22.3015C24.6566 22.3703 24.7752 22.4064 24.8962 22.4046C25.0173 22.4028 25.1348 22.3633 25.2322 22.2916C26.9128 21.3087 28.6034 20.3436 30.2889 19.3676C30.416 19.2658 30.5703 19.2037 30.7325 19.1889C30.8947 19.1741 31.0577 19.2073 31.2011 19.2844C31.3181 19.3548 31.4129 19.4566 31.4749 19.5782C31.537 19.6998 31.5637 19.8363 31.552 19.9722C31.5403 20.1082 31.4908 20.2382 31.409 20.3474C31.3271 20.4567 31.2163 20.5408 31.0891 20.5903C29.9449 21.2631 28.7908 21.921 27.6406 22.5848C27.0923 22.9019 26.5499 23.2289 25.9917 23.5271C25.8668 23.5796 25.762 23.6708 25.6929 23.7873C25.6238 23.9038 25.594 24.0394 25.608 24.1741C25.6259 26.0894 25.608 28.0056 25.6249 29.9209C25.6408 30.1353 25.5911 30.3494 25.4824 30.5349C25.3737 30.7204 25.211 30.8684 25.0161 30.9593C23.1977 31.9858 21.3898 33.0275 19.5925 34.0844C19.3964 34.218 19.1639 34.288 18.9266 34.285C18.6892 34.282 18.4586 34.2061 18.2659 34.0675C16.6329 33.0975 14.9761 32.1661 13.3381 31.205C13.241 31.135 13.1242 31.0973 13.0045 31.0973C12.8847 31.0973 12.768 31.135 12.6708 31.205C11.1657 32.0888 9.65367 32.9601 8.13468 33.8188C8.01795 33.8715 7.92098 33.9598 7.85772 34.0711C7.79446 34.1824 7.76819 34.3109 7.78269 34.4381C7.80352 35.4111 7.79063 36.3841 7.79063 37.358M24.1505 26.7562C24.1505 25.8645 24.1634 24.9648 24.1386 24.0691C24.1316 23.9778 24.1051 23.889 24.061 23.8087C24.0169 23.7284 23.9561 23.6584 23.8828 23.6034C22.3407 22.6919 20.7896 21.7968 19.2296 20.9183C19.146 20.8798 19.055 20.8599 18.9629 20.8599C18.8709 20.8599 18.7799 20.8798 18.6962 20.9183C17.1237 21.8028 15.5604 22.7037 14.0064 23.6213C13.9317 23.6742 13.8693 23.7428 13.8236 23.8221C13.7779 23.9015 13.7499 23.9898 13.7417 24.081C13.7238 25.8579 13.7238 27.6341 13.7417 29.4096C13.7508 29.5074 13.7807 29.6022 13.8292 29.6876C13.8777 29.773 13.9439 29.8471 14.0232 29.9051C15.5512 30.8097 17.0969 31.6885 18.6278 32.5803C18.7202 32.646 18.8307 32.6813 18.9441 32.6813C19.0575 32.6813 19.168 32.646 19.2604 32.5803C20.7807 31.6912 22.3056 30.8123 23.8352 29.9437C23.9444 29.891 24.0342 29.8051 24.0915 29.6983C24.1489 29.5915 24.1709 29.4693 24.1545 29.3492C24.1406 28.4842 24.1495 27.6192 24.1495 26.7542M1.85051 26.7146C1.85051 27.6113 1.83563 28.507 1.8634 29.4017C1.87163 29.5002 1.90084 29.5958 1.94906 29.6821C1.99729 29.7684 2.06341 29.8434 2.143 29.9021C3.68248 30.8156 5.2332 31.7113 6.79515 32.5892C6.8794 32.6274 6.97085 32.6471 7.06336 32.6471C7.15586 32.6471 7.24731 32.6274 7.33156 32.5892C8.89219 31.7107 10.4432 30.8156 11.9847 29.9041C12.0608 29.8515 12.1247 29.7831 12.1719 29.7036C12.2192 29.6241 12.2486 29.5353 12.2584 29.4433C12.2769 27.6519 12.2769 25.8605 12.2584 24.0691C12.2498 23.9778 12.2215 23.8894 12.1754 23.81C12.1294 23.7307 12.0667 23.6622 11.9916 23.6094C10.4508 22.6985 8.90078 21.8044 7.34147 20.9272C7.25161 20.8859 7.15386 20.8644 7.05493 20.8644C6.956 20.8644 6.85824 20.8859 6.76838 20.9272C5.22064 21.7962 3.69471 22.6978 2.14498 23.5717C2.04362 23.6208 1.96031 23.7005 1.90691 23.7996C1.85351 23.8986 1.83273 24.012 1.84753 24.1236C1.85943 24.9886 1.85249 25.8536 1.85249 26.7186M7.79063 16.4477C7.79063 17.3275 7.79955 18.2084 7.78567 19.0872C7.77207 19.1998 7.79425 19.3137 7.84905 19.4129C7.90386 19.5122 7.98853 19.5916 8.09105 19.6401C9.63318 20.5147 11.1687 21.4005 12.6976 22.2975C12.7906 22.3617 12.9015 22.395 13.0145 22.3927C13.1275 22.3903 13.2369 22.3525 13.3272 22.2846C14.8475 21.3982 16.3705 20.5206 17.8961 19.652C17.9999 19.6061 18.0867 19.5288 18.1443 19.4311C18.2019 19.3334 18.2274 19.22 18.2173 19.1071C18.2054 17.346 18.2054 15.586 18.2173 13.827C18.2275 13.7145 18.2023 13.6016 18.1452 13.5041C18.0882 13.4066 18.0021 13.3293 17.899 13.283C16.3701 12.4121 14.8531 11.5203 13.3183 10.6603C13.2221 10.615 13.1173 10.5911 13.0111 10.59C12.9048 10.589 12.7996 10.6109 12.7026 10.6543C11.1538 11.5223 9.61665 12.4094 8.09105 13.3157C8.01059 13.373 7.94331 13.4469 7.89373 13.5324C7.84414 13.6178 7.81338 13.7128 7.80352 13.8111C7.77575 14.69 7.79063 15.5708 7.79063 16.4507" fill="#7E5531"/>
<path d="M-4.83126 37.7366V40.2275C-4.83126 40.3821 -4.83126 40.5366 -4.83126 40.6912C-4.82031 40.7954 -4.8316 40.9007 -4.86438 41.0002C-4.89717 41.0996 -4.95071 41.191 -5.02147 41.2683C-5.09223 41.3455 -5.17859 41.4069 -5.27484 41.4484C-5.3711 41.4898 -5.47506 41.5103 -5.57985 41.5086C-5.68081 41.5054 -5.78001 41.4814 -5.87125 41.4381C-5.96248 41.3947 -6.04378 41.333 -6.11005 41.2569C-6.17632 41.1807 -6.22614 41.0917 -6.25638 40.9953C-6.28662 40.899 -6.29664 40.7975 -6.28581 40.6972C-6.29275 39.1673 -6.28581 37.6385 -6.28581 36.1087C-6.28581 35.9382 -6.29076 35.7678 -6.28581 35.5984C-6.2936 35.5016 -6.28058 35.4044 -6.24761 35.3131C-6.21464 35.2218 -6.16249 35.1386 -6.09467 35.0691C-6.02684 34.9997 -5.94492 34.9455 -5.85441 34.9104C-5.7639 34.8752 -5.6669 34.8598 -5.56994 34.8652C-3.85132 34.8572 -2.13469 34.8572 -0.420047 34.8652C-0.319164 34.8568 -0.217648 34.8696 -0.12197 34.9026C-0.0262914 34.9357 0.061451 34.9882 0.135664 35.057C0.209878 35.1258 0.268936 35.2093 0.309072 35.3022C0.34921 35.3951 0.369546 35.4953 0.368786 35.5964C0.368025 35.6976 0.346184 35.7975 0.304655 35.8897C0.263126 35.982 0.20282 36.0646 0.127581 36.1322C0.052341 36.1999 -0.0361824 36.2512 -0.132347 36.2828C-0.228511 36.3144 -0.330207 36.3256 -0.430954 36.3157C-1.46708 36.3247 -2.5032 36.3157 -3.53933 36.3157C-3.68706 36.3157 -3.83678 36.3276 -4.09854 36.3395C-3.6246 36.8696 -3.23295 37.3393 -2.80958 37.7762C-0.0591011 40.6602 3.43416 42.7301 7.28585 43.7581C11.1375 44.7862 15.1984 44.7326 19.0215 43.6033C22.8447 42.4739 26.2821 40.3125 28.9554 37.357C31.6287 34.4014 33.4343 30.7662 34.1736 26.8514C34.3858 25.6396 34.4394 24.3991 34.5365 23.1695C34.5831 22.5829 34.8231 22.2431 35.2841 22.251C35.7452 22.2589 36.0238 22.5928 35.999 23.1913C35.6094 32.6051 31.2755 39.6053 22.8001 43.7152C18.2515 45.9 13.1103 46.5293 8.16852 45.5062C3.22679 44.4831 -1.24113 41.8644 -4.5467 38.0536C-4.60718 37.9843 -4.67064 37.9169 -4.83523 37.7366" fill="#7E5531"/>
<path d="M30.8323 8.14646C30.8323 7.12987 30.8243 6.19255 30.8323 5.25523C30.8402 4.60624 31.449 4.21288 31.9229 4.56661C32.021 4.64659 32.1021 4.7454 32.1614 4.8572C32.2206 4.96901 32.2569 5.09155 32.268 5.21758C32.2967 6.9327 32.2888 8.64781 32.2809 10.3629C32.2894 10.4599 32.2766 10.5576 32.2435 10.6492C32.2104 10.7408 32.1577 10.824 32.0891 10.8932C32.0204 10.9623 31.9376 11.0157 31.8462 11.0495C31.7548 11.0834 31.6572 11.0969 31.56 11.0892C29.8414 11.0958 28.1248 11.0958 26.4101 11.0892C26.3093 11.0971 26.2079 11.0838 26.1126 11.0502C26.0172 11.0165 25.93 10.9632 25.8565 10.8937C25.7831 10.8242 25.725 10.7401 25.6862 10.6468C25.6473 10.5535 25.6284 10.4531 25.6308 10.352C25.6329 10.2511 25.6559 10.1516 25.6983 10.06C25.7407 9.9683 25.8016 9.8864 25.8773 9.8194C25.9529 9.7524 26.0415 9.70175 26.1377 9.67064C26.2338 9.63954 26.3354 9.62864 26.4359 9.63864C27.6109 9.6317 28.7848 9.63864 30.0232 9.63864C29.9744 9.53497 29.917 9.43554 29.8517 9.34139C26.3404 5.01568 21.2625 2.2497 15.7217 1.64467C7.61513 0.738065 0.964099 3.55894 -4.10845 9.92994C-6.66874 13.1642 -8.18653 17.0987 -8.46117 21.2134C-8.5048 21.7515 -8.52264 22.2925 -8.54148 22.8325C-8.56032 23.3725 -8.83894 23.7103 -9.28908 23.7004C-9.73922 23.6905 -9.99999 23.3596 -9.99999 22.8007C-10.0038 18.6046 -8.82003 14.493 -6.58524 10.9406C-4.90494 8.10925 -2.6141 5.6879 0.120565 3.85273C2.85523 2.01757 5.96493 0.814754 9.22336 0.331827C17.552 -0.978042 24.6463 1.609 30.4248 7.75706C30.509 7.84723 30.5884 7.94235 30.6716 8.0335C30.7229 8.0743 30.7765 8.11202 30.8323 8.14646Z" fill="#7E5531"/>
<path d="M22.6375 28.62C22.5368 28.8024 22.4022 28.9638 22.2409 29.0956C21.2821 29.6822 20.3054 30.241 19.3248 30.7909C19.2406 30.8462 19.1455 30.883 19.0459 30.8989C18.9464 30.9147 18.8446 30.9093 18.7473 30.8829C18.65 30.8565 18.5594 30.8097 18.4815 30.7457C18.4037 30.6816 18.3403 30.6018 18.2956 30.5115C18.2482 30.4267 18.2187 30.333 18.2092 30.2363C18.1997 30.1396 18.2104 30.0419 18.2404 29.9495C18.2705 29.8571 18.3194 29.7719 18.384 29.6993C18.4486 29.6267 18.5276 29.5682 18.6159 29.5276C19.5697 28.9638 20.5285 28.405 21.4972 27.866C22.0435 27.5618 22.6305 27.8858 22.6335 28.62" fill="#7E5531"/>
<path d="M4.82006 26.7522C4.82006 27.2754 4.82006 27.7995 4.82006 28.3227C4.81511 28.8865 4.55137 29.1877 4.0804 29.1817C3.63422 29.1758 3.36751 28.8736 3.36453 28.3455C3.35924 27.2833 3.35924 26.2212 3.36453 25.159C3.35157 25.0554 3.36016 24.9503 3.38976 24.8502C3.41936 24.7501 3.46933 24.6572 3.53653 24.5773C3.60374 24.4974 3.68674 24.4322 3.78032 24.3858C3.87391 24.3395 3.97607 24.3129 4.0804 24.3079C4.51766 24.2999 4.81511 24.6457 4.82006 25.1818C4.82502 25.7178 4.82006 26.2291 4.82006 26.7522Z" fill="#7E5531"/>
<path d="M16.6954 14.6245C16.7043 15.2854 16.1411 15.6699 15.6513 15.4053C14.6092 14.8415 13.587 14.2381 12.5776 13.6218C12.5012 13.5747 12.4351 13.5125 12.3835 13.4391C12.3318 13.3656 12.2956 13.2825 12.2771 13.1946C12.2585 13.1068 12.258 13.0161 12.2756 12.9281C12.2932 12.8401 12.3285 12.7565 12.3793 12.6825C12.4182 12.6013 12.4734 12.529 12.5414 12.47C12.6095 12.4111 12.689 12.3668 12.775 12.3399C12.861 12.313 12.9515 12.3042 13.0411 12.3139C13.1307 12.3235 13.2173 12.3516 13.2955 12.3962C14.3339 12.9682 15.3605 13.5627 16.3751 14.1797C16.5466 14.2837 16.6319 14.5334 16.6964 14.6275" fill="#7E5531"/>
</g>
</svg>
