<svg width="36" height="46" viewBox="0 0 36 46" fill="none" xmlns="http://www.w3.org/2000/svg">
<mask id="mask0_92_247" style="mask-type:luminance" maskUnits="userSpaceOnUse" x="0" y="0" width="36" height="46">
<path d="M36 0H0V46H36V0Z" fill="white"/>
</mask>
<g mask="url(#mask0_92_247)">
<path d="M33.1617 20.8521C32.7389 21.1851 32.3963 21.5023 32.0106 21.7521C29.8957 23.123 27.7877 24.5039 25.6437 25.8282C23.5482 26.9982 21.5702 28.3634 19.7367 29.9052C18.6551 30.8389 17.8004 32.002 17.2361 33.3079C16.6718 34.6138 16.4126 36.0288 16.4777 37.4476C16.5065 38.47 16.7266 39.4783 17.1269 40.4214C17.2183 40.5772 17.2497 40.7604 17.2153 40.9373C17.1808 41.1142 17.0829 41.2728 16.9395 41.3839C16.5178 41.7229 15.9968 41.5355 15.7533 40.9596C15.1169 39.4065 14.8727 37.7234 15.042 36.0559C15.1831 34.4226 15.6918 32.8412 16.5308 31.4277C17.3699 30.0142 18.518 28.8044 19.891 27.887C21.9869 26.3634 24.2331 25.0362 26.4462 23.6771C28.86 22.3068 31.1173 20.6826 33.1788 18.8329C33.2848 18.7416 33.411 18.6762 33.5472 18.6418C33.6834 18.6073 33.8259 18.6049 33.9632 18.6347C34.0917 18.7053 34.2031 18.8029 34.2896 18.9205C34.3761 19.0381 34.4357 19.1729 34.4642 19.3156C34.912 22.3409 35.3658 25.3623 35.7345 28.4005C36.1353 31.7043 36.2194 35.0002 34.9521 38.1821C33.9069 41.1342 31.7627 43.5804 28.9569 45.0218C27.1952 45.8454 25.2367 46.1677 23.3004 45.9525C21.581 45.8743 19.8923 45.4737 18.3241 44.772C18.1663 44.7265 17.9979 44.7331 17.8442 44.7908C16.5107 45.1645 15.1833 45.563 13.8468 45.9248C13.2667 46.0824 12.873 45.8713 12.7658 45.4292C12.6586 44.9871 12.9461 44.6441 13.5252 44.5242C16.3889 43.9845 19.1094 42.8665 21.5168 41.2399C23.9243 39.6134 25.9669 37.5132 27.5172 35.0706C28.5717 33.4439 29.3817 31.6742 29.9217 29.817C30.1221 29.133 30.4717 28.8505 30.9316 28.9823C31.4245 29.1251 31.5587 29.5374 31.3323 30.2521C29.6442 35.9081 25.7699 40.6773 20.5503 43.525C20.4013 43.6089 20.2524 43.6935 20.1034 43.7787C20.0914 43.7857 20.0854 43.8025 20.0213 43.8937C20.4421 44.0028 20.8278 44.1306 21.2235 44.202C23.1129 44.6604 25.0859 44.6645 26.9772 44.2139C28.2631 43.8118 29.452 43.1532 30.4705 42.2788C31.4891 41.4043 32.3157 40.3326 32.8992 39.1298C34.2667 36.5333 34.8041 33.5869 34.4401 30.6813C34.1836 28.0714 33.7679 25.4763 33.4232 22.8742C33.3381 22.2319 33.2539 21.5856 33.1567 20.8521" fill="#7E5531"/>
<path d="M14.9879 2.24614C14.9138 2.33635 14.8727 2.37897 14.8396 2.42754C12.3924 6.06874 9.94553 9.7096 7.49898 13.3501C5.64157 15.9689 4.07622 18.779 2.83029 21.7312C1.92185 23.9408 1.46095 26.3054 1.47376 28.6907C1.56252 31.7771 2.73885 34.7357 4.79924 37.0546C6.85963 39.3736 9.67447 40.907 12.7568 41.3897C13.2347 41.459 13.7176 41.5027 14.1984 41.5532C14.6994 41.6067 14.9869 41.8893 14.9689 42.3095C14.9627 42.4141 14.9344 42.5162 14.8858 42.6092C14.8371 42.7022 14.7693 42.7841 14.6867 42.8495C14.604 42.915 14.5084 42.9625 14.406 42.989C14.3036 43.0155 14.1967 43.0204 14.0922 43.0034C10.2842 42.833 6.6942 41.1967 4.08863 38.4437C2.68326 37.0146 1.59508 35.3109 0.893772 33.4416C0.192468 31.5723 -0.106489 29.5787 0.0160514 27.5885C0.231519 24.403 1.13952 21.3011 2.67801 18.4947C4.30695 15.5191 6.1135 12.642 8.08807 9.87878C10.182 6.76823 12.2218 3.622 14.2796 0.486671C14.6803 -0.125923 15.2995 -0.178459 15.6532 0.428187C18.245 4.88089 21.3578 8.9926 24.1981 13.2827C25.816 15.6325 27.2007 18.1315 28.3328 20.7449C28.4129 20.9431 28.5201 21.2058 28.445 21.3575C28.3297 21.5924 28.0903 21.8789 27.8639 21.9185C27.7244 21.9174 27.5867 21.8871 27.4598 21.8297C27.3329 21.7723 27.2197 21.6891 27.1275 21.5855C26.9613 21.3425 26.8354 21.0748 26.7548 20.7924C25.347 17.8079 23.6705 14.9548 21.7455 12.2677C19.5347 8.9926 17.3306 5.71222 15.1332 2.42655C15.1001 2.37699 15.06 2.32742 14.9869 2.2392" fill="#7E5531"/>
<path d="M5.40307 26.0531C5.34195 26.7906 5.22874 27.5281 5.23074 28.2655C5.19665 29.7705 5.53591 31.2607 6.21882 32.6059C6.90173 33.951 7.90748 35.11 9.14804 35.9814C9.2352 36.0459 9.32837 36.1044 9.41052 36.1797C9.4908 36.2352 9.55884 36.3062 9.61052 36.3884C9.6622 36.4707 9.69643 36.5625 9.71114 36.6583C9.72585 36.7541 9.72073 36.8518 9.6961 36.9455C9.67146 37.0393 9.62781 37.1271 9.56782 37.2037C9.50825 37.2806 9.43384 37.3451 9.34889 37.3934C9.26395 37.4417 9.17016 37.4728 9.07297 37.485C8.97577 37.4972 8.8771 37.4901 8.78267 37.4643C8.68824 37.4385 8.59994 37.3944 8.52287 37.3345C7.39264 36.5825 6.41917 35.6224 5.65554 34.5065C4.80933 33.2685 4.22367 31.8747 3.93347 30.4081C3.64327 28.9415 3.65447 27.4321 3.96639 25.9698C4.05556 25.4742 4.36714 25.2095 4.78191 25.2472C4.87855 25.2545 4.97253 25.282 5.05767 25.3278C5.1428 25.3736 5.21716 25.4368 5.27584 25.5131C5.33453 25.5894 5.3762 25.6772 5.39813 25.7706C5.42006 25.864 5.42174 25.961 5.40307 26.0551" fill="#7E5531"/>
</g>
</svg>
