<svg width="46" height="46" viewBox="0 0 46 46" fill="none" xmlns="http://www.w3.org/2000/svg">
<g clip-path="url(#clip0_92_257)">
<path d="M4.96939 25.9613C5.29605 25.872 5.56332 25.7629 5.85039 25.7133C6.81057 25.5545 7.64208 25.8422 8.36469 26.497C9.87922 27.856 11.3937 29.225 12.938 30.5543C13.3933 30.9511 13.9378 31.2785 14.4822 31.5463C17.2638 32.9253 19.1644 35.0383 19.9266 38.0838C20.1839 39.1055 19.9662 40.167 19.6692 41.1491C19.3227 42.28 19.2237 43.4109 19.2633 44.5815C19.2633 44.8295 19.2831 45.0775 19.2633 45.3255C19.2237 45.7422 18.9862 45.9703 18.5803 46.01C18.2141 46.0398 17.8379 45.762 17.8379 45.395C17.8379 44.1351 17.6894 42.8653 18.0458 41.6154C18.2339 40.9309 18.3526 40.2364 18.4912 39.542C18.6595 38.7385 18.5011 37.9746 18.1547 37.2405C17.2044 35.2565 15.7789 33.7685 13.7695 32.836C13.1458 32.5483 12.5519 32.1614 12.0372 31.715C10.4732 30.3758 8.95863 28.9969 7.4243 27.6179C7.00855 27.241 6.52351 27.0029 5.99887 27.2013C5.692 27.3203 5.36534 27.608 5.22676 27.9056C5.05848 28.2429 5.15746 28.6298 5.48413 28.9473C7.22633 30.6634 8.93883 32.3995 10.6612 34.1256C10.7701 34.2347 10.8889 34.3438 10.978 34.4629C11.1958 34.7903 11.176 35.1176 10.9087 35.3954C10.6414 35.6732 10.3049 35.7029 9.98811 35.4847C9.85942 35.3954 9.76043 35.2863 9.65155 35.1771C7.88955 33.4213 6.14735 31.6455 4.37546 29.8996C3.93001 29.4532 3.72213 28.9274 3.67264 28.3322C3.49446 26.0506 3.34597 23.7689 3.17769 21.4873C3.1183 20.6738 2.78174 20.2075 2.15811 20.0587C1.73246 19.9595 1.50479 20.1183 1.50479 20.5647C1.50479 23.5507 1.49489 26.5366 1.51468 29.5226C1.51468 29.8599 1.66317 30.227 1.85125 30.5146C2.76194 31.8737 3.66274 33.2427 4.64272 34.5522C6.26614 36.7346 7.92915 38.8873 9.58226 41.04C10.1861 41.8237 10.4831 42.6768 10.394 43.6688C10.3445 44.1748 10.394 44.6906 10.3841 45.1966C10.3742 45.7025 10.0574 46.0299 9.63175 46.01C9.216 46.0001 8.93883 45.6826 8.92893 45.1966C8.92893 44.5914 8.89923 43.9863 8.92893 43.3911C8.95863 42.8951 8.82004 42.4784 8.53298 42.1014C6.89966 39.9488 5.24655 37.806 3.63304 35.6434C2.66295 34.3438 1.74236 33.0145 0.821765 31.6753C0.217934 30.8222 -0.0196382 29.8996 0.000159493 28.858C0.0496538 26.12 0.0100584 23.382 0.0199572 20.644C0.0199572 19.027 1.26721 18.1541 2.77184 18.7195C3.78152 19.0965 4.41505 19.8306 4.53384 20.902C4.69222 22.3602 4.78131 23.8284 4.90009 25.2966C4.91989 25.5049 4.93969 25.7133 4.96939 25.9513V25.9613Z" fill="#7E5531"/>
<path d="M40.9912 25.9611C41.0704 24.8996 41.1496 23.8878 41.2288 22.8759C41.2882 22.2014 41.3179 21.5169 41.4069 20.8423C41.5752 19.6122 42.6344 18.6499 43.8619 18.5606C45.02 18.4813 45.9109 19.2749 45.9208 20.4356C45.9406 22.2906 45.9208 24.1457 45.9208 26.0008C45.9208 26.6059 45.8515 27.221 45.9307 27.8063C46.1881 29.7903 45.4655 31.4271 44.2974 32.9549C42.5552 35.2167 40.8328 37.4983 39.1104 39.78C38.4967 40.5934 37.8928 41.4168 37.3286 42.26C37.1504 42.5179 37.0712 42.885 37.0514 43.2024C37.0118 43.8472 37.0514 44.502 37.0415 45.1468C37.0415 45.6626 36.7545 45.9801 36.3189 45.9801C35.8834 45.9801 35.5963 45.6527 35.5864 45.1369C35.5864 44.3631 35.5171 43.5794 35.6062 42.8155C35.6656 42.2997 35.8834 41.7541 36.1803 41.3374C37.3187 39.7403 38.5264 38.1927 39.7043 36.6253C41.0209 34.8496 42.3374 33.0739 43.6342 31.2982C44.2281 30.4847 44.5152 29.5919 44.4855 28.5404C44.4162 25.9314 44.4657 23.3124 44.4657 20.7034C44.4657 20.0189 44.1489 19.8205 43.5253 20.1379C43.0304 20.386 42.8324 20.8224 42.7928 21.3482C42.6938 22.6279 42.5948 23.9076 42.4958 25.1873C42.4166 26.2389 42.377 27.2904 42.2879 28.332C42.2384 28.9074 42.0405 29.4233 41.6049 29.8598C39.8231 31.6156 38.0611 33.4013 36.2991 35.1671C36.1803 35.2861 36.0616 35.4151 35.9131 35.4944C35.6161 35.673 35.3092 35.6234 35.0618 35.3853C34.7945 35.1274 34.745 34.8199 34.943 34.5024C35.0321 34.3635 35.1608 34.2445 35.2795 34.1254C36.9722 32.4291 38.665 30.7327 40.3577 29.0364C40.8328 28.5602 40.9318 28.0444 40.615 27.6079C40.2983 27.1615 39.6251 26.973 39.0807 27.2309C38.8629 27.3301 38.665 27.4888 38.4769 27.6475C36.992 28.957 35.5468 30.3062 34.0323 31.5759C33.4285 32.0918 32.7454 32.5283 32.0327 32.8755C29.9342 33.9072 28.479 35.5043 27.6178 37.657C27.1724 38.778 27.41 39.9089 27.7465 40.9704C28.2019 42.3791 28.1326 43.8076 28.1227 45.246C28.1227 45.6924 27.796 45.99 27.3902 45.9801C26.9744 45.9801 26.6576 45.6626 26.6774 45.1766C26.7368 43.6389 26.6477 42.1211 26.1429 40.6529C26.0637 40.4248 26.0736 40.1668 26.0241 39.9188C25.6975 38.3018 26.1924 36.8634 27.0338 35.5143C28.1623 33.689 29.6768 32.31 31.6467 31.4371C32.0921 31.2387 32.5178 30.9609 32.884 30.6434C34.3788 29.3439 35.8438 28.0146 37.3187 26.7051C38.6056 25.5643 39.2787 25.4254 40.9813 25.9413L40.9912 25.9611Z" fill="#7E5531"/>
<path d="M22.9554 29.6713C17.8179 29.6713 13.5911 26.11 12.7398 21.0209C12.334 18.5805 12.8091 16.2592 13.997 14.1264C14.9473 12.4102 16.0361 10.7733 17.1448 9.16627C19.0553 6.40845 20.946 3.64071 22.2625 0.53569C22.4011 0.208323 22.6387 -0.0694427 22.995 0.0198391C23.2524 0.0793604 23.5791 0.297605 23.6781 0.53569C25.0837 3.80936 27.1229 6.70606 29.1224 9.6226C30.2212 11.2198 31.3299 12.8467 32.1713 14.5827C33.8739 18.0845 33.8145 21.6062 31.6961 24.9692C29.8055 27.9651 26.5784 29.6813 22.9554 29.6713ZM22.9554 2.59909C22.9159 2.64869 22.8763 2.67845 22.8565 2.71814C21.3716 5.7438 19.3919 8.44209 17.4814 11.1999C16.6796 12.3705 15.9174 13.5708 15.2541 14.8307C14.2346 16.7453 13.7792 18.7988 14.2049 20.9713C15.0562 25.3362 18.6197 28.2329 23.0544 28.2131C28.7958 28.1833 32.9236 22.9355 31.6071 17.3405C31.1418 15.3763 30.142 13.68 29.0234 12.0431C27.7366 10.1385 26.3904 8.26353 25.1332 6.33901C24.3512 5.13867 23.6781 3.86888 22.9357 2.59909H22.9554Z" fill="#7E5531"/>
<path d="M17.5804 20.7827C17.6893 20.8819 17.9764 21.0307 18.0852 21.2589C18.6891 22.608 19.6493 23.5703 21.0054 24.1357C21.4311 24.3143 21.5795 24.7111 21.4212 25.0782C21.2628 25.4551 20.8767 25.6436 20.461 25.475C18.699 24.7706 17.4418 23.5306 16.739 21.7648C16.5509 21.2886 16.9073 20.7926 17.5705 20.7926L17.5804 20.7827Z" fill="#7E5531"/>
</g>
<defs>
<clipPath id="clip0_92_257">
<rect width="46" height="46" fill="white"/>
</clipPath>
</defs>
</svg>
