<svg width="46" height="46" viewBox="0 0 46 46" fill="none" xmlns="http://www.w3.org/2000/svg">
<path d="M22.2324 29.1402C22.3293 29.1259 22.3682 29.0968 22.3879 29.0777C22.4167 29.0498 22.4622 28.9855 22.4986 28.8328L22.4993 28.83C22.6181 28.3436 22.7356 27.8553 22.8534 27.3661C23.2447 25.741 23.6386 24.105 24.0907 22.4891L24.0908 22.4886C24.588 20.7184 25.4298 19.2701 26.62 18.1709C27.8098 17.072 29.3231 16.3448 31.1282 15.9777C31.1284 15.9776 31.1287 15.9776 31.129 15.9775L31.2286 16.4675C32.4434 16.2161 33.6685 16.0063 34.8928 15.7967C35.3581 15.717 35.8234 15.6373 36.2879 15.5554L22.2324 29.1402ZM22.2324 29.1402C22.1662 29.1229 22.1356 29.0991 22.1189 29.0826C22.0911 29.0551 22.0475 28.9926 22.0156 28.8438L22.0157 28.8438L22.0139 28.8361C21.5969 27.0303 21.1696 25.2231 20.7223 23.425L20.7217 23.4225C20.5872 22.8939 20.3985 22.3872 20.2196 21.9067C20.1898 21.8268 20.1603 21.7475 20.1314 21.669C19.0954 18.8051 17.084 16.9046 14.1032 16.1992C12.7504 15.8753 11.3747 15.6291 10.0114 15.3851C9.44046 15.2829 8.8717 15.1812 8.30769 15.0742C8.09701 15.0337 8.00127 14.9759 7.96432 14.9417C7.9489 14.9275 7.94304 14.917 7.93956 14.9084C7.9357 14.8988 7.929 14.8768 7.93004 14.834L7.93019 14.834V14.8218C7.93019 14.7778 7.93751 14.754 7.94235 14.7426C7.94679 14.7321 7.95372 14.7207 7.96942 14.7065C8.00624 14.6731 8.10092 14.6169 8.30902 14.5809L8.30966 14.5808C8.67215 14.5176 9.03557 14.4552 9.39948 14.3926C10.7407 14.1622 12.0888 13.9306 13.4229 13.6561C15.2196 13.2888 16.7232 12.5584 17.9053 11.4593C19.0873 10.3603 19.9234 8.91532 20.4205 7.15639C20.8379 5.68569 21.1965 4.19468 21.5525 2.71442C21.6981 2.10919 21.8432 1.50575 21.9918 0.906233C22.0538 0.663401 22.1167 0.560376 22.1525 0.522025C22.165 0.508634 22.1712 0.506362 22.173 0.505681L22.1732 0.505603C22.1763 0.504438 22.1935 0.49832 22.2359 0.500439L22.2359 0.500464L22.2408 0.500663C22.3088 0.503378 22.3421 0.515858 22.3559 0.522503C22.3682 0.528389 22.3793 0.536339 22.3935 0.55396C22.4332 0.603221 22.4772 0.700628 22.5302 0.907475C22.6766 1.48783 22.8198 2.07248 22.9634 2.65923C23.3699 4.31961 23.7806 5.99686 24.2825 7.64163L24.2831 7.64387C25.0219 10.0249 26.4797 11.9683 28.9529 12.9378C29.7441 13.248 30.589 13.548 31.4548 13.7253C32.6264 13.9698 33.8184 14.1656 34.9941 14.3587C35.4033 14.426 35.8105 14.4928 36.2142 14.5613C36.4232 14.5968 36.5108 14.6536 36.5421 14.6834C36.559 14.6994 36.5815 14.7247 36.5815 14.8119C36.5815 14.8921 36.5613 14.9144 36.5424 14.9318C36.5063 14.9652 36.4119 15.0229 36.198 15.0636L22.2324 29.1402ZM21.864 23.9621C21.7237 23.5767 21.5901 23.1883 21.4564 22.7999C21.0986 21.7601 20.7409 20.7206 20.2569 19.7389C19.0368 17.2407 16.8345 15.9321 14.2255 15.2085L21.864 23.9621ZM21.864 23.9621C21.9088 24.0814 21.9463 24.2024 21.98 24.3245M21.864 23.9621L21.98 24.3245M21.98 24.3245C21.9077 24.5498 21.8306 24.7656 21.7357 24.9756L22.1914 25.1815L22.6743 25.0518C22.6465 24.9483 22.6186 24.8297 22.5888 24.7029C22.5613 24.5861 22.5323 24.4625 22.5001 24.3371C22.5289 24.2438 22.5569 24.1507 22.5847 24.0579C22.6577 23.814 22.7301 23.5727 22.8163 23.3376C22.8929 23.1295 22.9687 22.9207 23.0446 22.7116C23.4206 21.6749 23.7992 20.6314 24.2944 19.6497L21.98 24.3245ZM22.1406 4.34589L21.7582 4.24287C21.6903 4.49488 21.642 4.65893 21.5927 4.82658L21.5918 4.82958C21.5331 5.03359 21.4753 5.23664 21.4177 5.43885C21.2298 6.09828 21.0445 6.74886 20.8414 7.39542L20.8411 7.39642C19.749 10.8981 17.5169 13.1308 13.9293 13.9988L13.9288 13.9989C13.6193 14.0741 13.316 14.1565 13.0157 14.238C12.9521 14.2552 12.8887 14.2724 12.8253 14.2896L11.5387 14.6371L12.7364 15.2216C13.1577 15.4272 13.5805 15.5462 13.9485 15.6497C13.996 15.6631 14.0426 15.6762 14.0882 15.6893L14.0918 15.6903C16.6215 16.3919 18.6728 17.6348 19.8077 19.9584L19.8085 19.96C20.2774 20.9112 20.6196 21.9057 20.9738 22.9348C21.1096 23.3293 21.2471 23.7289 21.3941 24.1331L21.3941 24.1331L21.3959 24.1378C21.4845 24.3739 21.5356 24.5938 21.5939 24.8448C21.627 24.9873 21.6625 25.1399 21.7085 25.3111L22.0711 26.6618L22.647 25.3874C22.7997 25.0494 22.909 24.7117 23.0045 24.3976C23.0257 24.328 23.0461 24.2601 23.066 24.1936C23.1384 23.9521 23.2051 23.7296 23.2856 23.5102C23.364 23.2972 23.441 23.085 23.5176 22.8739C23.8935 21.8382 24.2599 20.8284 24.7402 19.8762C25.9047 17.5957 27.9312 16.3717 30.4201 15.6803L30.4235 15.6793C30.6582 15.6123 30.8835 15.5518 31.1142 15.4899C31.3002 15.44 31.4896 15.3892 31.6903 15.3332L32.6082 15.0772L31.876 14.4674C31.5993 14.237 31.3091 14.1677 31.1052 14.1247C27.5715 13.3532 25.0795 11.4174 23.8943 7.96772L23.8942 7.96732C23.5995 7.11173 23.336 6.24997 23.0567 5.33633C22.9602 5.02088 22.8619 4.69924 22.7597 4.36954L22.7732 4.31932L22.6881 4.14919L22.6782 4.12937L22.1406 4.34589Z" stroke="#7E5531"/>
<path d="M34.5333 41.6353C34.5609 41.7491 34.5884 41.8629 34.616 41.9767C34.8754 43.0484 35.1343 44.1182 35.377 45.1962C35.4074 45.3314 35.449 45.3897 35.4756 45.4157C35.4981 45.4377 35.5431 45.47 35.6555 45.484L35.6736 45.4863C35.7204 45.4749 35.7481 45.4595 35.7644 45.4475C35.7877 45.4303 35.8222 45.3951 35.8506 45.3047L35.8532 45.2965L35.8533 45.2965C35.8702 45.246 35.8823 45.1869 35.8984 45.0955C35.9 45.0866 35.9016 45.0772 35.9033 45.0673C35.9171 44.9881 35.9356 44.8812 35.9648 44.7761C36.0953 44.3028 36.2209 43.8208 36.3476 43.3351C36.6265 42.2647 36.9103 41.176 37.2618 40.1221C37.8538 38.3369 39.1821 37.1585 40.986 36.7022C40.9862 36.7022 40.9864 36.7021 40.9866 36.7021L41.1091 37.1868C42.0921 36.9359 43.0907 36.7523 44.0899 36.5687C44.4721 36.4984 44.8544 36.4282 45.2359 36.3541L34.5333 41.6353ZM34.5333 41.6353C34.5061 41.511 34.4614 41.3757 34.43 41.281C34.4218 41.2562 34.4145 41.2342 34.4087 41.2159C34.0212 39.6526 33.2631 38.4946 32.2032 37.6791C31.1481 36.8673 29.8291 36.4216 28.3617 36.2158L28.3612 36.2158C27.5855 36.1078 26.8186 35.9801 26.0441 35.8511C25.8857 35.824 25.8087 35.7715 25.7782 35.7398C25.7569 35.7176 25.7407 35.6905 25.7454 35.6282L25.7456 35.6248C25.7534 35.5115 25.7846 35.4799 25.7991 35.4664C25.8262 35.4413 25.8941 35.3989 26.0526 35.3685C26.3406 35.3162 26.6304 35.265 26.9214 35.2137C27.9382 35.0341 28.9695 34.852 29.9851 34.61C31.9891 34.1362 33.4438 32.8775 34.076 30.8849C34.4269 29.7838 34.7115 28.6541 34.9915 27.5429C35.1112 27.068 35.23 26.5965 35.3527 26.1321C35.4125 25.906 35.4776 25.8042 35.5164 25.7647C35.5318 25.749 35.5407 25.7454 35.5448 25.7439C35.5498 25.7421 35.567 25.7367 35.6058 25.7396L35.6057 25.7396L35.6113 25.74C35.6747 25.744 35.7085 25.7561 35.7249 25.764C35.7398 25.7711 35.752 25.7801 35.7655 25.7963C35.8007 25.838 35.8458 25.9269 35.8901 26.117C36.1502 27.2464 36.4264 28.3675 36.7032 29.4908C36.7335 29.6139 36.7638 29.737 36.7942 29.8602C37.1465 31.3203 37.8077 32.4797 38.7736 33.3302C39.7376 34.1792 40.9715 34.691 42.4216 34.9151L42.4228 34.9153C42.9681 34.9982 43.5049 35.0904 44.0471 35.1835C44.4127 35.2462 44.7808 35.3094 45.1555 35.3705L45.157 35.3707C45.3485 35.4013 45.4299 35.4534 45.4593 35.4808C45.4758 35.4961 45.4978 35.5206 45.4999 35.603C45.5017 35.6771 45.4822 35.7064 45.4575 35.7306C45.42 35.7675 45.3291 35.8254 45.1392 35.8635L34.5333 41.6353ZM35.6332 42.2372H36.0194L36.117 41.8634C36.4942 40.4185 37.0209 39.1674 37.8153 38.1838C38.6021 37.2094 39.6696 36.4747 41.175 36.0847L41.1729 35.1161C39.6607 34.7314 38.5963 33.9909 37.8102 33.0103C37.0159 32.0195 36.4885 30.7619 36.0957 29.3226L35.601 27.5099L35.1294 29.3288C34.7523 30.7829 34.2232 32.0364 33.4276 33.0212C32.6393 33.9971 31.5713 34.7322 30.0698 35.127L28.2006 35.6186L30.0737 36.0951C31.5876 36.4803 32.6517 37.2144 33.4358 38.1882C34.228 39.172 34.7527 40.4237 35.1404 41.8669L35.2399 42.2372H35.6233H35.6332Z" stroke="#7E5531"/>
<path d="M8.39956 26.7535L8.4001 26.7559C8.47926 27.1163 8.56054 27.4599 8.64087 27.7995C8.74951 28.2589 8.85643 28.7109 8.95409 29.1874C9.21825 30.4809 9.75372 31.5243 10.5871 32.2815C11.4198 33.0382 12.5081 33.4711 13.8108 33.6189C14.1944 33.6644 14.5651 33.726 14.9472 33.7896C15.1366 33.8211 15.3288 33.8531 15.5268 33.8838C15.6584 33.9049 15.7228 33.9503 15.7513 33.9805C15.7761 34.0069 15.7988 34.0472 15.7988 34.1235C15.7988 34.1981 15.7773 34.2343 15.7535 34.259C15.7239 34.2899 15.6538 34.3387 15.507 34.3648C15.2696 34.4069 15.0301 34.4487 14.7892 34.4906C14.1327 34.6049 13.4664 34.7209 12.8081 34.8525L12.8059 34.853C11.8802 35.0423 11.1017 35.4246 10.4895 36.0065C9.87812 36.5877 9.4579 37.3442 9.21006 38.2432C8.91992 39.293 8.66033 40.3508 8.41174 41.4041L8.41139 41.4056C8.36738 41.5947 8.32264 41.6811 8.2882 41.7216C8.27462 41.7375 8.26148 41.7477 8.24398 41.7562C8.22517 41.7653 8.18918 41.7781 8.12464 41.7839C8.0875 41.7864 8.07083 41.7812 8.06599 41.7794C8.06186 41.7779 8.05294 41.7743 8.03753 41.7586C7.99893 41.7193 7.93427 41.6183 7.87471 41.3942C7.81068 41.1382 7.74733 40.8807 7.68378 40.6223C7.47474 39.7723 7.26342 38.9131 7.01755 38.0684C6.49455 36.2669 5.21396 35.2136 3.43354 34.853C2.7094 34.7033 1.98435 34.581 1.26423 34.4595C1.12027 34.4352 0.9765 34.411 0.832979 34.3865C0.658546 34.3449 0.578556 34.2904 0.545403 34.2566C0.523074 34.2338 0.5 34.2008 0.5 34.1135C0.5 34.0375 0.521184 34.0067 0.543361 33.9849C0.575137 33.9538 0.654737 33.9017 0.826158 33.8731L0.826163 33.8732L0.831472 33.8722C1.02447 33.8379 1.21899 33.8039 1.41457 33.7698C2.11514 33.6473 2.82921 33.5225 3.53523 33.3736C4.44013 33.184 5.20491 32.8069 5.80742 32.236C6.40922 31.6658 6.82501 30.9252 7.06841 30.0452C7.36615 28.9988 7.61756 27.9354 7.86408 26.8927C7.87477 26.8475 7.88545 26.8023 7.89612 26.7572C7.93193 26.6155 7.97457 26.5556 8.00173 26.529C8.02028 26.5109 8.05585 26.4838 8.14175 26.4676C8.23567 26.4801 8.27681 26.5086 8.29759 26.5279C8.32534 26.5537 8.36948 26.6132 8.39956 26.7535ZM8.89838 41.519C8.79917 41.9452 8.63053 42.2427 8.16428 42.2823L9.69199 38.3764C9.4043 39.4173 9.14638 40.4681 8.89838 41.519ZM11.8901 34.5821L13.1762 34.1034L11.8836 33.6426C10.1124 33.0111 9.20905 31.6597 8.61926 29.8725L8.13163 28.3948L7.66723 29.8799C7.09985 31.6943 6.17082 33.0284 4.39745 33.6517L3.04553 34.127L4.39965 34.5959C6.19653 35.2182 7.09872 36.5761 7.67856 38.3714L8.16329 39.8723L8.6318 38.3663C9.19746 36.5479 10.1359 35.2351 11.8901 34.5821Z" stroke="#7E5531"/>
</svg>
