<svg width="24" height="8" viewBox="0 0 24 8" fill="none" xmlns="http://www.w3.org/2000/svg">
<path d="M23 4.5C23.2761 4.5 23.5 4.27614 23.5 4C23.5 3.72386 23.2761 3.5 23 3.5L23 4.5ZM0.198269 3.64644C0.0030079 3.84171 0.00300787 4.15829 0.198269 4.35355L3.38025 7.53553C3.57551 7.73079 3.8921 7.73079 4.08736 7.53553C4.28262 7.34027 4.28262 7.02369 4.08736 6.82843L1.25893 4L4.08736 1.17157C4.28262 0.976309 4.28262 0.659727 4.08736 0.464464C3.8921 0.269202 3.57551 0.269202 3.38025 0.464464L0.198269 3.64644ZM23 3.5L0.551823 3.5L0.551823 4.5L23 4.5L23 3.5Z" fill="#91765E"/>
</svg>
