<svg width="24" height="8" viewBox="0 0 24 8" fill="none" xmlns="http://www.w3.org/2000/svg">
<path d="M1 3.5C0.723858 3.5 0.5 3.72386 0.5 4C0.5 4.27614 0.723858 4.5 1 4.5V3.5ZM23.8017 4.35355C23.997 4.15829 23.997 3.84171 23.8017 3.64645L20.6197 0.464466C20.4245 0.269204 20.1079 0.269204 19.9126 0.464466C19.7174 0.659728 19.7174 0.976311 19.9126 1.17157L22.7411 4L19.9126 6.82843C19.7174 7.02369 19.7174 7.34027 19.9126 7.53553C20.1079 7.7308 20.4245 7.7308 20.6197 7.53553L23.8017 4.35355ZM1 4.5H23.4482V3.5H1V4.5Z" fill="#91765E"/>
</svg>
