<svg width="18" height="38" viewBox="0 0 18 38" fill="none" xmlns="http://www.w3.org/2000/svg">
<g opacity="0.34">
<path d="M3.8743 37.4586C3.22629 37.3157 2.62938 36.9992 2.14757 36.5429C1.66576 36.0867 1.31721 35.5079 1.1393 34.8686C1.0479 34.5523 1.00112 34.2248 1.0003 33.8956C1.0003 25.8526 1.0003 24.8096 1.0003 16.7676C0.989189 15.9137 1.29162 15.0854 1.8503 14.4396C3.0903 12.9863 4.33363 11.5346 5.5803 10.0846C5.73035 9.93604 5.86442 9.77214 5.9803 9.59561C6.04391 8.42981 6.04391 7.26141 5.9803 6.09561C5.79745 6.02542 5.64376 5.89539 5.54425 5.7267C5.44474 5.55801 5.40528 5.36059 5.4323 5.16661C5.4203 4.10761 5.4173 3.05261 5.4323 1.99761C5.41863 1.86173 5.43586 1.72452 5.48269 1.59624C5.52953 1.46796 5.60475 1.35193 5.70275 1.25682C5.80075 1.1617 5.91898 1.08998 6.0486 1.047C6.17822 1.00402 6.31589 0.990893 6.4513 1.00861C8.6263 1.00861 9.8443 1.00861 12.0193 1.00861C12.1548 0.989726 12.2929 1.002 12.423 1.04449C12.5531 1.08699 12.6717 1.15859 12.77 1.25385C12.8682 1.34911 12.9435 1.46552 12.99 1.59423C13.0365 1.72294 13.053 1.86055 13.0383 1.99661C13.0533 3.05161 13.0483 4.10661 13.0383 5.16161C13.0383 5.55361 12.5493 6.06161 12.5903 6.08861C12.6313 6.11561 12.3163 9.36261 12.5903 9.68861C13.1563 10.3666 13.7333 11.0346 14.3103 11.7046C15.0403 12.5546 15.7673 13.4046 16.5103 14.2496C17.1797 15.0078 17.537 15.9915 17.5103 17.0026C17.5003 24.8206 17.4813 25.6396 17.5223 33.4576C17.592 34.3587 17.3396 35.2552 16.8102 35.9877C16.2808 36.7202 15.5087 37.2411 14.6313 37.4576L3.8743 37.4586ZM2.7923 28.8276C2.7923 32.7826 2.8113 29.7386 2.7773 33.6926C2.76371 33.9606 2.80618 34.2285 2.90199 34.4791C2.9978 34.7297 3.14485 34.9576 3.33374 35.1482C3.52262 35.3388 3.74919 35.4879 3.99896 35.5859C4.24873 35.6839 4.5162 35.7288 4.7843 35.7176C7.9213 35.6696 10.5763 35.6696 13.7133 35.7176C13.9814 35.7288 14.2489 35.6839 14.4987 35.586C14.7484 35.488 14.9751 35.3391 15.1641 35.1486C15.3531 34.9582 15.5004 34.7304 15.5965 34.4799C15.6926 34.2294 15.7355 33.9616 15.7223 33.6936C15.6983 25.7826 15.7063 24.8726 15.7133 16.9636C15.7258 16.4065 15.5263 15.8654 15.1553 15.4496C13.8023 13.8836 12.4703 12.2996 11.1123 10.7386C10.9423 10.5734 10.812 10.3717 10.7312 10.1487C10.6505 9.92578 10.6215 9.68741 10.6463 9.45161C10.6893 9.11461 10.6533 6.06461 10.6463 6.08961H7.8533C7.8193 6.08261 7.8123 9.15761 7.8533 9.48961C7.87523 9.71249 7.8472 9.93746 7.77126 10.1482C7.69532 10.3588 7.57338 10.55 7.4143 10.7076C6.0573 12.2706 4.7283 13.8556 3.3713 15.4176C2.98134 15.8513 2.77173 16.4175 2.7853 17.0006C2.7963 20.9416 2.7923 24.8836 2.7923 28.8256M9.4923 2.79061C8.7813 2.79061 8.0683 2.79761 7.3563 2.79061C7.0893 2.79061 6.9673 2.87361 6.9843 3.15461C7.0013 3.43561 7.0003 3.73261 6.9853 4.01761C6.9763 4.26161 7.0853 4.34161 7.3163 4.34161C8.7663 4.34161 9.7333 4.34161 11.1833 4.34161C11.4133 4.34161 11.5243 4.26161 11.5143 4.01761C11.5033 3.72761 11.4983 3.43661 11.5143 3.14861C11.5303 2.86061 11.4083 2.77961 11.1423 2.78461C10.4313 2.79461 10.2013 2.78461 9.4903 2.78461" fill="#7E5531"/>
<path d="M2.7923 28.8276C2.7923 32.7826 2.8113 29.7386 2.7773 33.6926C2.76371 33.9606 2.80618 34.2285 2.90199 34.4791C2.9978 34.7297 3.14485 34.9576 3.33374 35.1482C3.52262 35.3388 3.74919 35.4879 3.99896 35.5859C4.24873 35.6839 4.5162 35.7288 4.7843 35.7176C7.9213 35.6696 10.5763 35.6696 13.7133 35.7176C13.9814 35.7288 14.2489 35.6839 14.4987 35.586C14.7484 35.488 14.9751 35.3391 15.1641 35.1486C15.3531 34.9582 15.5004 34.7304 15.5965 34.4799C15.6926 34.2294 15.7355 33.9616 15.7223 33.6936C15.6983 25.7826 15.7063 24.8726 15.7133 16.9636C15.7258 16.4065 15.5263 15.8654 15.1553 15.4496C13.8023 13.8836 12.4703 12.2996 11.1123 10.7386C10.9423 10.5734 10.812 10.3717 10.7312 10.1487C10.6505 9.92578 10.6215 9.68741 10.6463 9.45161C10.6893 9.11461 10.6533 6.06461 10.6463 6.08961H7.8533C7.8193 6.08261 7.8123 9.15761 7.8533 9.48961C7.87523 9.71249 7.8472 9.93746 7.77126 10.1482C7.69532 10.3588 7.57338 10.55 7.4143 10.7076C6.0573 12.2706 4.7283 13.8556 3.3713 15.4176C2.98134 15.8513 2.77173 16.4175 2.7853 17.0006C2.7963 20.9416 2.7923 24.8836 2.7923 28.8256M9.4923 2.79061C8.7813 2.79061 8.0683 2.79761 7.3563 2.79061C7.0893 2.79061 6.9673 2.87361 6.9843 3.15461C7.0013 3.43561 7.0003 3.73261 6.9853 4.01761C6.9763 4.26161 7.0853 4.34161 7.3163 4.34161C8.7663 4.34161 9.7333 4.34161 11.1833 4.34161C11.4133 4.34161 11.5243 4.26161 11.5143 4.01761C11.5033 3.72761 11.4983 3.43661 11.5143 3.14861C11.5303 2.86061 11.4083 2.77961 11.1423 2.78461C10.4313 2.79461 10.2013 2.78461 9.4903 2.78461M3.8743 37.4586C3.22629 37.3157 2.62938 36.9992 2.14757 36.5429C1.66576 36.0867 1.31721 35.5079 1.1393 34.8686C1.0479 34.5523 1.00112 34.2248 1.0003 33.8956C1.0003 25.8526 1.0003 24.8096 1.0003 16.7676C0.989189 15.9137 1.29162 15.0854 1.8503 14.4396C3.0903 12.9863 4.33363 11.5346 5.5803 10.0846C5.73035 9.93604 5.86442 9.77214 5.9803 9.59561C6.04391 8.42981 6.04391 7.26141 5.9803 6.09561C5.79745 6.02542 5.64376 5.89539 5.54425 5.7267C5.44474 5.55801 5.40528 5.36059 5.4323 5.16661C5.4203 4.10761 5.4173 3.05261 5.4323 1.99761C5.41863 1.86173 5.43586 1.72452 5.48269 1.59624C5.52953 1.46796 5.60476 1.35193 5.70275 1.25682C5.80075 1.1617 5.91898 1.08998 6.0486 1.047C6.17822 1.00402 6.31589 0.990893 6.4513 1.00861C8.6263 1.00861 9.8443 1.00861 12.0193 1.00861C12.1548 0.989726 12.2929 1.002 12.423 1.04449C12.5531 1.08699 12.6717 1.15859 12.77 1.25385C12.8682 1.34911 12.9435 1.46552 12.99 1.59423C13.0365 1.72294 13.053 1.86055 13.0383 1.99661C13.0533 3.05161 13.0483 4.10661 13.0383 5.16161C13.0383 5.55361 12.5493 6.06161 12.5903 6.08861C12.6313 6.11561 12.3163 9.36261 12.5903 9.68861C13.1563 10.3666 13.7333 11.0346 14.3103 11.7046C15.0403 12.5546 15.7673 13.4046 16.5103 14.2496C17.1797 15.0078 17.537 15.9915 17.5103 17.0026C17.5003 24.8206 17.4813 25.6396 17.5223 33.4576C17.592 34.3587 17.3396 35.2552 16.8102 35.9877C16.2808 36.7202 15.5087 37.241 14.6313 37.4576L3.8743 37.4586Z" stroke="#FFFAF4" stroke-width="0.5"/>
</g>
</svg>
