<svg width="18" height="48" viewBox="0 0 18 48" fill="none" xmlns="http://www.w3.org/2000/svg">
<path d="M3.87428 47.5496C3.22628 47.4067 2.62937 47.0902 2.14756 46.6339C1.66575 46.1777 1.3172 45.5989 1.13928 44.9596C1.04789 44.6433 1.00111 44.3158 1.00028 43.9866C1.00028 35.9439 1.00028 27.9009 1.00028 19.8576C0.989422 19.0041 1.29183 18.1762 1.85028 17.5306C3.09028 16.0773 4.33362 14.6256 5.58028 13.1756C5.73034 13.027 5.86441 12.8631 5.98028 12.6866C6.09828 12.4656 5.98928 6.09961 5.98028 6.09261C5.79744 6.02242 5.64374 5.89239 5.54424 5.7237C5.44473 5.55501 5.40527 5.35759 5.43228 5.16361C5.42128 4.10961 5.41728 3.05361 5.43228 1.99961C5.41829 1.86358 5.43528 1.72614 5.48197 1.5976C5.52866 1.46907 5.60384 1.35277 5.70188 1.25743C5.79991 1.16208 5.91826 1.09017 6.04805 1.04708C6.17783 1.00399 6.31569 0.990837 6.45128 1.00861C8.62628 1.00861 9.84428 1.00861 12.0193 1.00861C12.1548 0.989726 12.2929 1.002 12.423 1.04449C12.553 1.08699 12.6717 1.15859 12.77 1.25385C12.8682 1.34911 12.9435 1.46552 12.9899 1.59423C13.0364 1.72294 13.053 1.86055 13.0383 1.99661C13.0533 3.05161 13.0483 4.10661 13.0383 5.16161C13.0383 5.55361 12.5493 6.06161 12.5903 6.08861C12.6313 6.11561 12.3163 12.4516 12.5903 12.7796C13.1563 13.4576 13.7333 14.1256 14.3103 14.7956C15.0403 15.6456 15.7673 16.4956 16.5103 17.3406C17.1797 18.0988 17.537 19.0825 17.5103 20.0936C17.5003 27.9116 17.4813 35.7306 17.5223 43.5486C17.5919 44.4497 17.3396 45.3462 16.8102 46.0787C16.2808 46.8112 15.5087 47.3321 14.6313 47.5486L3.87428 47.5496ZM2.79228 31.9186C2.79228 35.8736 2.81128 39.8296 2.77728 43.7836C2.7637 44.0516 2.80617 44.3195 2.90198 44.5701C2.99779 44.8207 3.14484 45.0486 3.33372 45.2392C3.52261 45.4298 3.74918 45.5789 3.99895 45.6769C4.24871 45.7749 4.51619 45.8198 4.78428 45.8086C7.92128 45.7606 10.5763 45.7606 13.7133 45.8086C13.9814 45.8198 14.2488 45.7749 14.4986 45.677C14.7484 45.579 14.9751 45.4301 15.1641 45.2396C15.3531 45.0492 15.5004 44.8214 15.5965 44.5709C15.6926 44.3204 15.7354 44.0526 15.7223 43.7846C15.6983 35.8739 15.6953 27.9639 15.7133 20.0546C15.7257 19.4975 15.5263 18.9564 15.1553 18.5406C13.8023 16.9746 12.4703 15.3906 11.1123 13.8296C10.9422 13.6644 10.8119 13.4627 10.7312 13.2397C10.6505 13.0168 10.6215 12.7784 10.6463 12.5426C10.6893 12.2056 10.6533 6.06661 10.6463 6.09161H7.85328C7.81928 6.08461 7.81228 12.2496 7.85328 12.5836C7.87521 12.8065 7.84719 13.0315 7.77125 13.2422C7.69531 13.4528 7.57336 13.644 7.41428 13.8016C6.05728 15.3616 4.72828 16.9466 3.37128 18.5086C2.98133 18.9423 2.77172 19.5085 2.78528 20.0916C2.79628 24.0326 2.79228 27.9746 2.79228 31.9166M9.49228 2.79161C8.78128 2.79161 8.06828 2.79861 7.35628 2.79161C7.08928 2.79161 6.96728 2.87461 6.98428 3.15561C7.00128 3.43661 6.99628 3.73561 6.98428 4.02461C6.97528 4.26861 7.08428 4.34861 7.31528 4.34861C8.76528 4.34861 9.73228 4.34861 11.1823 4.34861C11.4123 4.34861 11.5233 4.26861 11.5133 4.02461C11.5023 3.73461 11.4973 3.44361 11.5133 3.15561C11.5293 2.86761 11.4073 2.78661 11.1413 2.79161C10.4303 2.80161 10.2003 2.79161 9.48928 2.79161" fill="#7E5531"/>
<path d="M2.79228 31.9186C2.79228 35.8736 2.81128 39.8296 2.77728 43.7836C2.7637 44.0516 2.80617 44.3195 2.90198 44.5701C2.99779 44.8207 3.14484 45.0486 3.33372 45.2392C3.52261 45.4298 3.74918 45.5789 3.99895 45.6769C4.24871 45.7749 4.51619 45.8198 4.78428 45.8086C7.92128 45.7606 10.5763 45.7606 13.7133 45.8086C13.9814 45.8198 14.2488 45.7749 14.4986 45.677C14.7484 45.579 14.9751 45.4301 15.1641 45.2396C15.3531 45.0492 15.5004 44.8214 15.5965 44.5709C15.6926 44.3204 15.7354 44.0526 15.7223 43.7846C15.6983 35.8739 15.6953 27.9639 15.7133 20.0546C15.7257 19.4975 15.5263 18.9564 15.1553 18.5406C13.8023 16.9746 12.4703 15.3906 11.1123 13.8296C10.9422 13.6644 10.8119 13.4627 10.7312 13.2397C10.6505 13.0168 10.6215 12.7784 10.6463 12.5426C10.6893 12.2056 10.6533 6.06661 10.6463 6.09161H7.85328C7.81928 6.08461 7.81228 12.2496 7.85328 12.5836C7.87521 12.8065 7.84719 13.0315 7.77125 13.2422C7.69531 13.4528 7.57336 13.644 7.41428 13.8016C6.05728 15.3616 4.72828 16.9466 3.37128 18.5086C2.98133 18.9423 2.77172 19.5085 2.78528 20.0916C2.79628 24.0326 2.79228 27.9746 2.79228 31.9166M9.49228 2.79161C8.78128 2.79161 8.06828 2.79861 7.35628 2.79161C7.08928 2.79161 6.96728 2.87461 6.98428 3.15561C7.00128 3.43661 6.99628 3.73561 6.98428 4.02461C6.97528 4.26861 7.08428 4.34861 7.31528 4.34861C8.76528 4.34861 9.73228 4.34861 11.1823 4.34861C11.4123 4.34861 11.5233 4.26861 11.5133 4.02461C11.5023 3.73461 11.4973 3.44361 11.5133 3.15561C11.5293 2.86761 11.4073 2.78661 11.1413 2.79161C10.4303 2.80161 10.2003 2.79161 9.48928 2.79161M3.87428 47.5496C3.22628 47.4067 2.62937 47.0902 2.14756 46.6339C1.66575 46.1777 1.3172 45.5989 1.13928 44.9596C1.04789 44.6433 1.00111 44.3158 1.00028 43.9866C1.00028 35.9439 1.00028 27.9009 1.00028 19.8576C0.989422 19.0041 1.29183 18.1762 1.85028 17.5306C3.09028 16.0773 4.33362 14.6256 5.58028 13.1756C5.73034 13.027 5.86441 12.8631 5.98028 12.6866C6.09828 12.4656 5.98928 6.09961 5.98028 6.09261C5.79744 6.02242 5.64374 5.89239 5.54424 5.7237C5.44473 5.55501 5.40527 5.35759 5.43228 5.16361C5.42128 4.10961 5.41728 3.05361 5.43228 1.99961C5.41829 1.86358 5.43528 1.72614 5.48197 1.5976C5.52866 1.46907 5.60384 1.35277 5.70188 1.25743C5.79991 1.16208 5.91826 1.09017 6.04805 1.04708C6.17783 1.00399 6.31569 0.990837 6.45128 1.00861C8.62628 1.00861 9.84428 1.00861 12.0193 1.00861C12.1548 0.989726 12.2929 1.002 12.423 1.04449C12.553 1.08699 12.6717 1.15859 12.77 1.25385C12.8682 1.34911 12.9435 1.46552 12.9899 1.59423C13.0364 1.72294 13.053 1.86055 13.0383 1.99661C13.0533 3.05161 13.0483 4.10661 13.0383 5.16161C13.0383 5.55361 12.5493 6.06161 12.5903 6.08861C12.6313 6.11561 12.3163 12.4516 12.5903 12.7796C13.1563 13.4576 13.7333 14.1256 14.3103 14.7956C15.0403 15.6456 15.7673 16.4956 16.5103 17.3406C17.1797 18.0988 17.537 19.0825 17.5103 20.0936C17.5003 27.9116 17.4813 35.7306 17.5223 43.5486C17.5919 44.4497 17.3396 45.3462 16.8102 46.0787C16.2808 46.8112 15.5087 47.332 14.6313 47.5486L3.87428 47.5496Z" stroke="#FFFAF4" stroke-width="0.5"/>
</svg>
