<svg width="56" height="56" viewBox="0 0 56 56" fill="none" xmlns="http://www.w3.org/2000/svg">
<g clip-path="url(#clip0_1_756)">
<path d="M38.592 25.9128C39.0429 26.1775 39.4168 26.5555 39.6766 27.0093C39.9363 27.4631 40.073 27.9769 40.073 28.4998C40.073 29.0226 39.9363 29.5364 39.6766 29.9902C39.4168 30.444 39.0429 30.822 38.592 31.0868L24.519 39.3478C24.0633 39.6153 23.545 39.7578 23.0165 39.7607C22.488 39.7636 21.9682 39.6269 21.5096 39.3643C21.0509 39.1017 20.6698 38.7227 20.4047 38.2655C20.1396 37.8083 20 37.2892 20 36.7608V20.2388C20 19.7103 20.1396 19.1912 20.4047 18.734C20.6698 18.2768 21.0509 17.8978 21.5096 17.6352C21.9682 17.3727 22.488 17.2359 23.0165 17.2388C23.545 17.2417 24.0633 17.3842 24.519 17.6518L38.592 25.9128Z" fill="white"/>
<g opacity="0.16">
<path d="M28 55.5C43.1878 55.5 55.5 43.1878 55.5 28C55.5 12.8122 43.1878 0.5 28 0.5C12.8122 0.5 0.5 12.8122 0.5 28C0.5 43.1878 12.8122 55.5 28 55.5Z" stroke="white"/>
</g>
</g>
<defs>
<clipPath id="clip0_1_756">
<rect width="56" height="56" fill="white"/>
</clipPath>
</defs>
</svg>
