<svg width="98" height="98" viewBox="0 0 98 98" fill="none" xmlns="http://www.w3.org/2000/svg">
<g clip-path="url(#clip0_1_480)">
<path d="M16.778 70.5539L11.266 73.9989L9.34735 70.9291L9.95791 70.5475L11.1451 72.447L16.0466 69.3836L16.778 70.5539Z" fill="#7E5531"/>
<path d="M14.3765 66.6681L7.55019 67.2318L6.94986 65.8245L12.136 61.416L12.7089 62.759L11.2546 63.9882L12.1413 66.0669L14.0469 65.8955L14.3765 66.6681ZM11.4834 66.1302L10.7496 64.4101L8.28423 66.4294L8.29208 66.4478L11.4834 66.1302Z" fill="#7E5531"/>
<path d="M5.36886 61.3329L4.9018 59.3985C4.72812 58.6791 4.77501 58.078 5.04247 57.5951C5.30189 57.1072 5.78478 56.778 6.49115 56.6075C6.99662 56.4854 7.44121 56.4947 7.82491 56.6352C8.20862 56.7758 8.5197 56.999 8.75815 57.3049C8.99013 57.6124 9.15072 57.9508 9.2399 58.3202L9.39011 58.9423L11.3634 58.4659L11.6873 59.8073L5.36886 61.3329ZM8.65533 58.6259C8.5771 58.3019 8.40904 58.0887 8.15115 57.9864C7.88678 57.8856 7.46946 57.9041 6.89918 58.0418C6.32242 58.181 5.93617 58.3566 5.74042 58.5685C5.54468 58.7803 5.48592 59.0483 5.56416 59.3723L5.67681 59.8389L8.76799 59.0925L8.65533 58.6259Z" fill="#7E5531"/>
<path d="M10.4547 54.4295L3.81875 52.7326L3.71101 51.2064L10.0526 48.7337L10.1554 50.1901L8.37939 50.8769L8.53854 53.1312L10.3956 53.5916L10.4547 54.4295ZM7.89602 52.9761L7.76433 51.1107L4.7746 52.214L4.77601 52.234L7.89602 52.9761Z" fill="#7E5531"/>
<path d="M10.1179 47.0717L3.65692 46.3632L3.80734 44.9915L6.6303 45.301L6.87555 43.0645L4.05259 42.755L4.20301 41.3833L10.664 42.0918L10.5136 43.4635L7.57135 43.1408L7.3261 45.3773L10.2683 45.7L10.1179 47.0717Z" fill="#7E5531"/>
<path d="M11.4684 38.788L5.91088 37.1998L5.43001 38.8824L4.73773 38.6845L6.07866 33.9924L6.77095 34.1902L6.29283 35.8633L11.8503 37.4515L11.4684 38.788Z" fill="#7E5531"/>
<path d="M12.9039 34.2291L7.05454 31.3944L7.65635 30.1526L11.5349 32.0322L12.0893 32.3786L12.0981 32.3606L8.93148 28.0258L8.77275 27.8488L9.33095 26.697L15.1803 29.5316L14.5785 30.7734L10.7989 28.9418L10.1772 28.5739L10.1728 28.5829L13.3077 32.8913L13.4708 33.0592L12.9039 34.2291Z" fill="#7E5531"/>
<path d="M14.7727 25.2818C14.447 25.4895 14.0962 25.5961 13.7202 25.6017C13.3482 25.6019 12.982 25.47 12.6217 25.206C12.0892 24.816 11.8014 24.3572 11.7581 23.8296C11.7095 23.2981 11.8723 22.777 12.2466 22.266L13.6412 20.3622L18.8848 24.2034L18.0633 25.3248L16.0385 23.8415L15.6012 24.4384L16.976 26.8091L16.1368 27.9546L14.7727 25.2818ZM15.4819 23.4337L13.3522 21.8736L12.8085 22.6157C12.6588 22.8201 12.632 23.0484 12.7282 23.3007C12.8283 23.5476 13.0586 23.803 13.4189 24.067C13.7685 24.323 14.0707 24.4576 14.3255 24.4708C14.5843 24.4785 14.7905 24.3775 14.9441 24.1678L15.4819 23.4337Z" fill="#7E5531"/>
<path d="M22.7956 20.0726L18.7166 15.0119L19.791 14.1458L21.6799 16.4894L21.8694 15.7843L21.7375 12.577L22.4849 11.9745L22.545 15.1884L26.9221 16.7467L25.5596 17.8449L22.3724 16.6633L22.2259 17.1667L23.87 19.2066L22.7956 20.0726Z" fill="#7E5531"/>
<path d="M27.8497 16.1328L26.6207 9.39441L27.9625 8.65925L32.8573 13.3891L31.5769 14.0906L30.2113 12.7636L28.2293 13.8495L28.5863 15.7291L27.8497 16.1328ZM28.102 13.2009L29.7419 12.3024L27.4911 10.0464L27.4735 10.056L28.102 13.2009Z" fill="#7E5531"/>
<path d="M36.3321 9.30985C36.3321 9.30985 36.2986 9.35643 36.2317 9.44959C36.1711 9.5406 36.0327 9.66159 35.8164 9.81256C35.598 9.95722 35.3437 10.0789 35.0533 10.1776C34.4916 10.3686 34.0255 10.3439 33.6551 10.1037C33.2889 9.85497 33.0103 9.44974 32.8194 8.88797L32.0759 6.70089L33.3919 6.25351L34.0807 8.27964C34.1923 8.60786 34.3044 8.85491 34.4171 9.0208C34.534 9.17822 34.6579 9.27341 34.7888 9.30636C34.9261 9.33717 35.0893 9.32039 35.2787 9.25602C35.4807 9.18736 35.652 9.10096 35.7926 8.99682C35.9374 8.88422 36.0486 8.78659 36.1261 8.70391L35.0962 5.67418L36.4122 5.2268L38.5042 11.3809L37.1882 11.8283L36.3321 9.30985Z" fill="#7E5531"/>
<path d="M40.7286 10.8474L39.6605 4.43576L43.5075 3.79489L43.6258 4.5051L41.14 4.9192L41.4917 7.03011L43.6815 6.66531L43.7965 7.35579L41.6067 7.72059L41.9715 9.91042L44.5954 9.47331L44.7137 10.1835L40.7286 10.8474Z" fill="#7E5531"/>
<path d="M49.2566 10.1224C48.2766 10.1273 47.5285 9.83775 47.0122 9.25365C46.4959 8.66288 46.2352 7.85416 46.2301 6.8275C46.2267 6.1475 46.3403 5.55025 46.5711 5.03575C46.8019 4.52125 47.1399 4.12288 47.5852 3.84065C48.0304 3.55841 48.5597 3.41576 49.1731 3.4127C49.4797 3.41116 49.7799 3.44966 50.0737 3.5282C50.374 3.60003 50.6311 3.68208 50.8449 3.77435C51.0653 3.85991 51.1756 3.90603 51.1756 3.9127L51.0393 4.6434C50.9925 4.61696 50.8789 4.56753 50.6985 4.4951C50.5181 4.416 50.3011 4.34041 50.0474 4.26835C49.8003 4.19625 49.5668 4.16075 49.3468 4.16185C48.9735 4.16371 48.6706 4.24856 48.4381 4.4164C48.2056 4.58423 48.0303 4.85845 47.9122 5.23905C47.8007 5.61961 47.7466 6.1299 47.7498 6.7699C47.7545 7.7099 47.8945 8.37921 48.1699 8.77785C48.4452 9.17648 48.8695 9.37436 49.4429 9.3715C49.7629 9.3699 50.0425 9.30183 50.2819 9.1673C50.5278 9.02606 50.7237 8.87508 50.8696 8.71435C51.0221 8.54691 51.0983 8.4532 51.0982 8.4332L51.5406 8.911C51.5408 8.94433 51.4514 9.06478 51.2724 9.27235C51.1001 9.47988 50.8444 9.6745 50.5053 9.8562C50.1662 10.0312 49.7499 10.12 49.2566 10.1224Z" fill="#7E5531"/>
<path d="M54.2596 10.3713L55.1466 4.65975L53.4173 4.39121L53.5278 3.67974L58.35 4.42858L58.2395 5.14005L56.5201 4.87305L55.6332 10.5846L54.2596 10.3713Z" fill="#7E5531"/>
<path d="M60.9802 5.09015L62.8631 5.69999C63.3513 5.8581 63.7324 6.06559 64.0065 6.32247C64.289 6.57507 64.4694 6.85066 64.5478 7.14925C64.6283 7.44151 64.6223 7.73028 64.5299 8.01558C64.4273 8.33258 64.2512 8.57329 64.0018 8.73769C63.7588 8.90415 63.4815 9.014 63.1701 9.06724C63.4945 9.2984 63.7245 9.57252 63.8599 9.88959C63.9954 10.2067 64.0057 10.5427 63.8907 10.8978C63.7162 11.4367 63.3705 11.801 62.8537 11.9909C62.3432 12.1828 61.6949 12.1515 60.9087 11.8969L58.9782 11.2717L60.9802 5.09015ZM62.1822 8.51614C62.3598 8.57364 62.545 8.54255 62.7378 8.42288C62.9391 8.29893 63.1003 8.04992 63.2214 7.67586C63.3405 7.30814 63.3422 7.01097 63.2265 6.78435C63.1107 6.55773 62.9102 6.39822 62.6249 6.30582L62.0923 6.13334L61.4024 8.26358L62.1822 8.51614ZM61.0804 11.2695C61.4227 11.3804 61.724 11.3694 61.9842 11.2365C62.2464 11.0973 62.4433 10.8248 62.5747 10.419C62.7985 9.72795 62.6283 9.29105 62.064 9.1083L61.2176 8.83418L60.4907 11.0785L61.0804 11.2695Z" fill="#7E5531"/>
<path d="M64.4959 13.1371L69.43 8.38897L70.784 9.10042L69.5492 15.7922L68.2571 15.1133L68.6078 13.2422L66.6077 12.1913L65.2393 13.5277L64.4959 13.1371ZM67.0777 11.7268L68.7326 12.5963L69.3679 9.47437L69.3502 9.46507L67.0777 11.7268Z" fill="#7E5531"/>
<path d="M80.6178 26.3158L86.0447 22.7382L88.0371 25.7606L87.436 26.1568L86.2031 24.2867L81.3774 27.4679L80.6178 26.3158Z" fill="#7E5531"/>
<path d="M83.1103 30.1342L89.9217 29.4023L90.5567 30.7946L85.48 35.3303L84.8741 34.0017L86.2979 32.7368L85.36 30.6802L83.4589 30.8986L83.1103 30.1342ZM86.0163 30.6008L86.7923 32.3025L89.2076 30.2227L89.1993 30.2045L86.0163 30.6008Z" fill="#7E5531"/>
<path d="M92.2583 35.2922L92.7717 37.2145C92.9627 37.9294 92.9303 38.5314 92.6745 39.0205C92.427 39.5144 91.9522 39.8551 91.2503 40.0426C90.7479 40.1767 90.3033 40.1782 89.9164 40.047C89.5295 39.9157 89.2132 39.7001 88.9674 39.4C88.7282 39.0983 88.5595 38.7639 88.4615 38.3968L88.2963 37.7785L86.3354 38.3023L85.9793 36.9692L92.2583 35.2922ZM89.0384 38.0771C89.1244 38.3991 89.2975 38.6081 89.5578 38.7042C89.8245 38.7986 90.2412 38.7701 90.8079 38.6187C91.381 38.4656 91.7629 38.2809 91.9535 38.0644C92.144 37.8479 92.1963 37.5787 92.1103 37.2567L91.9865 36.793L88.9146 37.6134L89.0384 38.0771Z" fill="#7E5531"/>
<path d="M87.3349 42.2962L94.0097 43.8336L94.1539 45.3568L87.8734 47.9808L87.7357 46.5273L89.4948 45.7981L89.2817 43.5482L87.4142 43.1325L87.3349 42.2962ZM89.9277 43.6879L90.1041 45.5496L93.0665 44.375L93.0646 44.3551L89.9277 43.6879Z" fill="#7E5531"/>
<path d="M87.8483 49.6442L94.3246 50.1989L94.2068 51.5739L91.3772 51.3315L91.1852 53.5733L94.0148 53.8157L93.897 55.1907L87.4207 54.6359L87.5385 53.2609L90.4877 53.5136L90.6798 51.2718L87.7306 51.0192L87.8483 49.6442Z" fill="#7E5531"/>
<path d="M86.6983 57.9542L92.2934 59.4108L92.7344 57.7168L93.4313 57.8982L92.2016 62.6221L91.5046 62.4406L91.9431 60.7563L86.348 59.2997L86.6983 57.9542Z" fill="#7E5531"/>
<path d="M85.3743 62.5382L91.2913 65.2287L90.7201 66.485L86.7967 64.7009L86.234 64.3681L86.2257 64.3864L89.4974 68.6424L89.6604 68.8154L89.1306 69.9806L83.2136 67.29L83.7848 66.0338L87.6081 67.7723L88.2387 68.1249L88.2429 68.1158L85.0034 63.8855L84.8362 63.7216L85.3743 62.5382Z" fill="#7E5531"/>
<path d="M83.718 71.5391C84.0385 71.3235 84.3866 71.2083 84.7623 71.1935C85.1342 71.1842 85.5035 71.3071 85.8703 71.5621C86.4121 71.939 86.7112 72.3906 86.7674 72.9169C86.8291 73.4471 86.6791 73.9721 86.3175 74.4921L84.9699 76.4297L79.6334 72.7182L80.4271 71.577L82.4878 73.0102L82.9103 72.4026L81.4777 70.0663L82.2885 68.9005L83.718 71.5391ZM83.0543 73.4042L85.2217 74.9116L85.747 74.1563C85.8917 73.9483 85.9128 73.7194 85.8105 73.4695C85.7043 73.2252 85.4679 72.9755 85.1012 72.7204C84.7454 72.473 84.44 72.3458 84.1849 72.339C83.926 72.3376 83.7224 72.4436 83.5739 72.6571L83.0543 73.4042Z" fill="#7E5531"/>
<path d="M75.8289 76.9418L80.0132 81.9159L78.9571 82.8043L77.0195 80.5009L76.8448 81.2098L77.044 84.4136L76.3094 85.0316L76.1818 81.8197L71.7731 80.3536L73.1122 79.2271L76.3235 80.3415L76.4594 79.8351L74.7728 77.8302L75.8289 76.9418Z" fill="#7E5531"/>
<path d="M70.8682 80.9967L72.2628 87.7035L70.9394 88.4715L65.9291 83.8631L67.192 83.1302L68.59 84.4233L70.5449 83.2888L70.1416 81.4183L70.8682 80.9967ZM70.6882 83.9342L69.0706 84.8729L71.3766 87.073L71.3939 87.063L70.6882 83.9342Z" fill="#7E5531"/>
<path d="M62.5627 88.024C62.5627 88.024 62.595 87.9766 62.6596 87.8818C62.718 87.7893 62.8535 87.6649 63.0661 87.5086C63.281 87.3586 63.5324 87.2307 63.8203 87.1249C64.3775 86.9202 64.8442 86.9335 65.2204 87.1647C65.5927 87.4045 65.8812 87.803 66.0859 88.3601L66.8829 90.5292L65.5777 91.0087L64.8394 88.9993C64.7198 88.6738 64.6016 88.4294 64.4848 88.2663C64.3641 88.1117 64.2378 88.0195 64.1061 87.9898C63.9681 87.9623 63.8052 87.9831 63.6174 88.0521C63.4171 88.1257 63.2479 88.2163 63.1098 88.3239C62.9678 88.44 62.859 88.5404 62.7835 88.6249L63.8875 91.6297L62.5823 92.1093L60.3398 86.0058L61.645 85.5262L62.5627 88.024Z" fill="#7E5531"/>
<path d="M58.1208 86.5918L59.3432 92.9758L55.5128 93.7093L55.3774 93.0021L57.8524 92.5282L57.4499 90.4264L55.2696 90.8439L55.1379 90.1564L57.3183 89.7389L56.9008 87.5585L54.2883 88.0587L54.1528 87.3516L58.1208 86.5918Z" fill="#7E5531"/>
<path d="M49.6072 87.5223C50.5868 87.4942 51.3416 87.7661 51.8715 88.3378C52.4016 88.9162 52.6813 89.7186 52.7107 90.7448C52.7301 91.4245 52.6306 92.0243 52.412 92.5441C52.1935 93.0639 51.8649 93.4701 51.4265 93.7628C50.988 94.0554 50.4622 94.2105 49.8491 94.2281C49.5426 94.2369 49.2416 94.2055 48.9461 94.1339C48.6441 94.0692 48.3851 93.9932 48.1692 93.906C47.9468 93.8257 47.8355 93.7822 47.8354 93.7755L47.9544 93.0418C48.0018 93.0671 48.1165 93.1139 48.2986 93.182C48.4808 93.2568 48.6996 93.3273 48.9549 93.3933C49.2035 93.4596 49.4378 93.4896 49.6577 93.4833C50.0309 93.4726 50.3318 93.3806 50.5602 93.2073C50.7887 93.0341 50.9575 92.7558 51.0666 92.3725C51.169 91.9894 51.211 91.478 51.1927 90.8383C51.1658 89.8987 51.0101 89.2328 50.7254 88.8408C50.4407 88.4488 50.0119 88.261 49.4388 88.2774C49.1189 88.2865 48.8409 88.3612 48.6048 88.5013C48.3623 88.6483 48.17 88.8039 48.0279 88.968C47.8794 89.139 47.8055 89.2345 47.806 89.2545L47.3525 88.7873C47.3515 88.754 47.4381 88.6314 47.6121 88.4197C47.7794 88.2082 48.0305 88.0076 48.3652 87.8179C48.7001 87.6349 49.1141 87.5364 49.6072 87.5223Z" fill="#7E5531"/>
<path d="M44.5986 87.3972L43.8472 93.1309L45.5832 93.3584L45.4896 94.0727L40.6486 93.4383L40.7422 92.724L42.4683 92.9502L43.2197 87.2165L44.5986 87.3972Z" fill="#7E5531"/>
<path d="M38.0124 92.8417L36.1145 92.2777C35.6224 92.1314 35.2362 91.9332 34.9558 91.683C34.6672 91.4373 34.4801 91.1661 34.3944 90.8694C34.3068 90.579 34.3057 90.2901 34.3911 90.0025C34.4861 89.683 34.6563 89.438 34.9017 89.2675C35.1407 89.0951 35.4153 88.9785 35.7254 88.9177C35.3954 88.6944 35.1587 88.4259 35.0155 88.1121C34.8723 87.7983 34.8539 87.4624 34.9602 87.1046C35.1216 86.5614 35.4584 86.1885 35.9707 85.9861C36.4765 85.7817 37.1256 85.7972 37.9181 86.0327L39.864 86.611L38.0124 92.8417ZM36.7268 89.4447C36.5479 89.3916 36.3634 89.4272 36.1734 89.5515C35.9752 89.6804 35.82 89.9334 35.708 90.3104C35.5979 90.681 35.6034 90.9783 35.7247 91.2021C35.846 91.4259 36.0504 91.5805 36.3379 91.666L36.8747 91.8255L37.5128 89.6783L36.7268 89.4447ZM37.7617 86.6643C37.4166 86.5618 37.1155 86.5801 36.8586 86.7194C36.5997 86.865 36.4095 87.1423 36.288 87.5513C36.081 88.2479 36.2618 88.6806 36.8306 88.8497L37.6837 89.1032L38.356 86.8409L37.7617 86.6643Z" fill="#7E5531"/>
<path d="M34.2857 84.8706L29.4663 89.7377L28.0951 89.059L29.1684 82.3375L30.4768 82.9852L30.1713 84.8647L32.1967 85.8673L33.5329 84.498L34.2857 84.8706ZM31.738 86.3432L30.0621 85.5136L29.5022 88.6508L29.5201 88.6597L31.738 86.3432Z" fill="#7E5531"/>
<path d="M21.2264 81.2055C21.0668 81.3442 20.8697 81.4325 20.6599 81.4592C20.4502 81.4859 20.2373 81.4498 20.0481 81.3554C19.8588 81.2611 19.7018 81.1128 19.5969 80.9292C19.492 80.7456 19.4439 80.5351 19.4586 80.3242C19.4734 80.1133 19.5504 79.9114 19.6798 79.7443C19.8092 79.5771 19.9853 79.4521 20.1858 79.385C20.3863 79.3179 20.6022 79.3118 20.8062 79.3674C21.0102 79.423 21.1931 79.5378 21.3318 79.6974C21.5176 79.9115 21.6108 80.1905 21.591 80.4733C21.5713 80.756 21.4401 81.0194 21.2264 81.2055Z" fill="#7E5531"/>
<path d="M79.1803 18.686C79.0208 18.8247 78.8237 18.913 78.6139 18.9397C78.4042 18.9663 78.1912 18.9302 78.002 18.8359C77.8128 18.7416 77.6558 18.5932 77.5509 18.4097C77.446 18.2261 77.3979 18.0155 77.4126 17.8046C77.4274 17.5937 77.5043 17.3919 77.6338 17.2247C77.7632 17.0576 77.9393 16.9325 78.1398 16.8654C78.3403 16.7984 78.5562 16.7922 78.7602 16.8478C78.9642 16.9035 79.1471 17.0183 79.2858 17.1779C79.4716 17.392 79.5648 17.671 79.545 17.9537C79.5252 18.2365 79.3941 18.4998 79.1803 18.686Z" fill="#7E5531"/>
<path d="M45.4679 60.9979C45.692 57.7593 46.2833 54.5565 47.2303 51.4513C47.2773 51.1812 47.2443 50.9033 47.1353 50.6517C46.2879 48.3308 45.7536 45.9073 45.5464 43.4452C45.147 37.6321 47.5218 33.2808 52.437 30.2421C55.2794 28.625 58.2993 27.3421 61.4365 26.4191C62.8338 25.9508 64.2154 25.4297 65.5874 24.8903C65.9026 24.798 66.1931 24.636 66.4372 24.4163C66.6814 24.1966 66.873 23.9248 66.9979 23.621C67.077 23.4359 67.2214 23.2863 67.4036 23.2008C67.5859 23.1153 67.7932 23.0998 67.9861 23.1573C68.2019 23.1892 68.3991 23.2972 68.5423 23.4617C68.6855 23.6262 68.7652 23.8365 68.767 24.0546C68.8674 25.1347 68.9938 26.2146 69.0402 27.2974C69.2625 31.1096 68.9184 34.9337 68.0192 38.645C67.2893 41.8501 65.7884 44.8288 63.6468 47.3227C61.2323 50.0358 57.8959 51.755 54.2851 52.1468C52.704 52.2942 51.1154 52.3475 49.5279 52.3064C49.1408 52.3091 48.9744 52.3808 48.8655 52.7657C47.8802 56.1817 47.3578 59.7146 47.3122 63.2696C47.2844 65.7318 47.4815 68.1955 47.5823 70.6586C47.601 71.1256 47.6638 71.5918 47.6652 72.0564C47.6871 72.3073 47.6085 72.5567 47.4465 72.7496C47.2846 72.9426 47.0526 73.0633 46.8017 73.0852C46.5507 73.1071 46.3013 73.0285 46.1084 72.8665C45.9155 72.7046 45.7947 72.4726 45.7728 72.2217C45.6497 71.3522 45.5751 70.4756 45.4867 69.6012C45.1673 66.3779 44.3274 63.2277 42.9999 60.2731C42.9812 60.1944 42.9454 60.1207 42.8952 60.0573C42.845 59.9938 42.7815 59.942 42.7093 59.9056C42.637 59.8692 42.5576 59.849 42.4767 59.8465C42.3958 59.8439 42.3154 59.8591 42.2409 59.8908C36.1234 61.3094 31.6162 58.7575 29 53.5204C27.4671 50.3238 26.6069 46.8464 26.4727 43.3037C26.4347 43.0891 26.4741 42.868 26.5839 42.6798C26.6937 42.4915 26.8669 42.3484 27.0724 42.2759C27.2841 42.1975 27.5158 42.1923 27.7308 42.261C27.9458 42.3297 28.1316 42.4684 28.2586 42.655C28.488 42.8917 28.7843 43.0525 29.1078 43.1157C30.5559 43.3907 32.0139 43.6176 33.4692 43.8598C35.832 44.1419 38.116 44.8875 40.1902 46.0537C41.3632 46.7639 42.3575 47.7341 43.0963 48.8893C43.8351 50.0445 44.2987 51.354 44.4514 52.7167C44.6715 54.482 44.6343 56.2698 44.341 58.0244C44.3111 58.2943 44.3519 58.5674 44.4594 58.8169C44.7451 59.5025 45.0792 60.1678 45.4648 60.9972M48.407 48.3668C48.5674 48.0427 48.6639 47.8606 48.7483 47.6777C50.1556 44.6625 52.282 42.0392 54.9406 40.0383C55.5235 39.611 56.0761 39.63 56.4305 40.0788C56.8046 40.5479 56.6852 41.1223 56.0906 41.5647C53.2431 43.7605 51.0698 46.7121 49.8185 50.0831C49.7879 50.1904 49.7639 50.2994 49.7466 50.4096C50.54 50.4155 51.2827 50.45 52.0218 50.4216C55.6785 50.449 59.1978 49.0306 61.8135 46.4752C63.7234 44.4513 65.103 41.9863 65.8294 39.2999C66.8046 35.8794 67.2523 32.3302 67.1571 28.7746C67.1507 27.9783 67.1092 27.1811 67.0863 26.4364C65.4409 27.0277 63.8539 27.622 62.2483 28.1637C59.3436 29.0259 56.5357 30.1859 53.8695 31.6253C50.8048 33.4326 48.4788 35.8376 47.711 39.4444C47.1915 42.4299 47.4309 45.498 48.407 48.3668ZM28.5501 44.9227C28.8702 48.2347 29.9415 51.43 31.6825 54.2656C32.362 55.3816 33.2912 56.3248 34.3968 57.0211C35.5025 57.7173 36.7545 58.1477 38.0546 58.2784C39.2983 58.4015 40.5539 58.3132 41.7682 58.0173C40.6163 56.1369 38.9855 54.5965 37.0427 53.5535C36.3705 53.2108 36.1447 52.6826 36.4186 52.1538C36.6926 51.6251 37.2403 51.507 37.9206 51.85C39.5906 52.7069 41.0614 53.9059 42.2373 55.3689C42.3494 55.5027 42.4687 55.6277 42.5844 55.7571L42.7971 55.6994C42.7118 54.7223 42.6799 53.7366 42.5301 52.7691C42.4157 51.7698 42.0781 50.809 41.5423 49.9577C41.0066 49.1064 40.2864 48.3864 39.435 47.8509C38.5653 47.2694 37.6085 46.8302 36.6006 46.5499C33.972 45.9274 31.3042 45.466 28.557 44.9221" fill="#7E5531"/>
<path d="M45.4679 60.9979C45.692 57.7593 46.2833 54.5565 47.2303 51.4513C47.2773 51.1812 47.2443 50.9033 47.1353 50.6517C46.2879 48.3308 45.7536 45.9073 45.5464 43.4452C45.147 37.6321 47.5218 33.2808 52.437 30.2421C55.2794 28.625 58.2993 27.3421 61.4365 26.4191C62.8338 25.9508 64.2154 25.4297 65.5874 24.8903C65.9026 24.798 66.1931 24.636 66.4372 24.4163C66.6814 24.1966 66.873 23.9248 66.9979 23.621C67.077 23.4359 67.2214 23.2863 67.4036 23.2008C67.5859 23.1153 67.7932 23.0998 67.9861 23.1573C68.2019 23.1892 68.3991 23.2972 68.5423 23.4617C68.6855 23.6262 68.7652 23.8365 68.767 24.0546C68.8674 25.1347 68.9938 26.2146 69.0402 27.2974C69.2625 31.1096 68.9184 34.9337 68.0192 38.645C67.2893 41.8501 65.7884 44.8288 63.6468 47.3227C61.2323 50.0358 57.8959 51.755 54.2851 52.1468C52.704 52.2942 51.1154 52.3475 49.5279 52.3064C49.1408 52.3091 48.9744 52.3808 48.8655 52.7657C47.8802 56.1817 47.3578 59.7145 47.3122 63.2696C47.2844 65.7318 47.4815 68.1955 47.5823 70.6586C47.601 71.1256 47.6638 71.5918 47.6652 72.0564C47.6871 72.3073 47.6085 72.5567 47.4465 72.7496C47.2846 72.9426 47.0526 73.0633 46.8017 73.0852C46.5507 73.1071 46.3013 73.0285 46.1084 72.8665C45.9155 72.7046 45.7947 72.4726 45.7728 72.2217C45.6497 71.3523 45.5751 70.4756 45.4867 69.6012C45.1673 66.3779 44.3274 63.2277 42.9999 60.2731C42.9812 60.1944 42.9454 60.1207 42.8952 60.0573C42.845 59.9938 42.7815 59.942 42.7093 59.9056C42.637 59.8692 42.5576 59.849 42.4767 59.8465C42.3958 59.8439 42.3154 59.8591 42.2409 59.8908C36.1234 61.3094 31.6162 58.7575 29 53.5204C27.4671 50.3238 26.6069 46.8464 26.4727 43.3037C26.4347 43.0891 26.4741 42.868 26.5839 42.6798C26.6937 42.4915 26.8669 42.3484 27.0724 42.2759C27.2841 42.1975 27.5158 42.1923 27.7308 42.261C27.9458 42.3297 28.1316 42.4684 28.2586 42.655C28.488 42.8917 28.7843 43.0525 29.1078 43.1157C30.5559 43.3907 32.0139 43.6176 33.4692 43.8598C35.832 44.1419 38.116 44.8875 40.1902 46.0537C41.3632 46.7639 42.3575 47.7341 43.0963 48.8893C43.8351 50.0445 44.2987 51.354 44.4514 52.7167C44.6715 54.482 44.6343 56.2698 44.341 58.0244C44.3111 58.2943 44.3519 58.5674 44.4594 58.8169C44.7451 59.5025 45.0792 60.1678 45.4648 60.9972M28.5501 44.9227C28.8702 48.2347 29.9415 51.43 31.6825 54.2656C32.362 55.3816 33.2912 56.3248 34.3968 57.0211C35.5025 57.7173 36.7545 58.1477 38.0546 58.2784C39.2983 58.4015 40.5539 58.3132 41.7682 58.0173C40.6163 56.1369 38.9855 54.5965 37.0427 53.5535C36.3705 53.2108 36.1447 52.6826 36.4186 52.1538C36.6926 51.6251 37.2403 51.507 37.9206 51.85C39.5906 52.7069 41.0614 53.9059 42.2373 55.3689C42.3494 55.5027 42.4687 55.6277 42.5844 55.7571L42.7971 55.6994C42.7118 54.7223 42.6799 53.7366 42.5301 52.7691C42.4157 51.7698 42.0781 50.809 41.5423 49.9577C41.0066 49.1064 40.2864 48.3864 39.435 47.8509C38.5653 47.2694 37.6085 46.8302 36.6006 46.5499C33.972 45.9274 31.3042 45.466 28.557 44.9221M48.407 48.3668C48.5674 48.0427 48.6639 47.8607 48.7483 47.6777C50.1556 44.6625 52.282 42.0392 54.9406 40.0383C55.5235 39.611 56.0761 39.63 56.4305 40.0788C56.8046 40.5479 56.6852 41.1223 56.0906 41.5647C53.2431 43.7605 51.0698 46.7121 49.8185 50.0831C49.7879 50.1904 49.7639 50.2994 49.7466 50.4096C50.54 50.4155 51.2827 50.45 52.0218 50.4216C55.6785 50.449 59.1978 49.0306 61.8135 46.4752C63.7234 44.4513 65.103 41.9863 65.8294 39.2999C66.8046 35.8794 67.2523 32.3302 67.1571 28.7746C67.1507 27.9783 67.1092 27.1811 67.0863 26.4364C65.4409 27.0277 63.8539 27.622 62.2483 28.1637C59.3436 29.0259 56.5357 30.1859 53.8695 31.6253C50.8048 33.4326 48.4788 35.8376 47.711 39.4444C47.1915 42.4299 47.4309 45.498 48.407 48.3668Z" stroke="#FDF5EE" stroke-width="0.999792"/>
</g>
<defs>
<clipPath id="clip0_1_480">
<rect width="97.932" height="97.703" fill="white"/>
</clipPath>
</defs>
</svg>
