<svg width="46" height="46" viewBox="0 0 46 46" fill="none" xmlns="http://www.w3.org/2000/svg">
<mask id="mask0_1_449" style="mask-type:luminance" maskUnits="userSpaceOnUse" x="0" y="0" width="46" height="46">
<path d="M46 0H0V46H46V0Z" fill="white"/>
</mask>
<g mask="url(#mask0_1_449)">
<path d="M38.0806 14.48C38.5103 13.0268 38.6266 11.499 38.4218 9.99749C38.2171 8.49602 37.6959 7.05504 36.8928 5.7697C35.84 4.12526 34.5181 2.66931 32.9825 1.46264C32.8091 1.32488 32.5837 1.12386 32.5741 0.942779C32.5659 0.665063 32.6583 0.393722 32.8342 0.178582C32.8892 0.12236 32.9549 0.0776869 33.0274 0.0471874C33.0999 0.0166878 33.1778 0.000976563 33.2565 0.000976562C33.3351 0.000976562 33.413 0.0166878 33.4855 0.0471874C33.558 0.0776869 33.6237 0.12236 33.6787 0.178582C34.3082 0.698444 34.9541 1.21224 35.5333 1.78669C37.483 3.59409 38.8986 5.90186 39.6256 8.45825C40.0978 10.499 40.071 12.6233 39.5476 14.6515C39.4985 14.7922 39.4911 14.944 39.5262 15.0887C39.5612 15.2335 39.6373 15.3651 39.7453 15.4677C40.1895 15.9769 40.5113 16.5808 40.6862 17.2332C40.8611 17.8857 40.8845 18.5695 40.7545 19.2324C40.6064 20.1905 40.2519 21.105 39.7156 21.9128C39.1792 22.7206 38.4738 23.4024 37.648 23.9112C37.434 24.0699 37.2774 24.2936 37.2014 24.5489C36.5482 27.4011 35.3353 30.0954 33.6328 32.4759C33.1706 33.0919 32.6201 33.6412 32.1189 34.2287C32.0244 34.3387 31.9004 34.4825 31.9039 34.6082C31.8827 36.1653 31.9487 37.7224 32.1016 39.2722C32.4264 41.3095 33.4846 43.1582 35.0772 44.4708C35.2106 44.5752 35.3345 44.6912 35.4474 44.8174C35.5616 44.9567 35.6179 45.1346 35.6047 45.3142C35.5915 45.4938 35.5097 45.6615 35.3763 45.7826C35.3117 45.8509 35.2337 45.9052 35.1472 45.942C35.0606 45.9788 34.9674 45.9974 34.8733 45.9966C34.7793 45.9958 34.6864 45.9756 34.6005 45.9373C34.5146 45.899 34.4375 45.8434 34.3741 45.774C33.6624 45.1128 33.0024 44.3982 32.3998 43.6365C31.085 41.8373 30.395 39.6577 30.4352 37.4302C30.4352 36.8592 30.4352 36.2899 30.4352 35.6973C25.4741 38.5791 20.5468 38.5661 15.5588 35.6973C15.5588 36.2691 15.5588 36.8332 15.5588 37.3955C15.5962 39.83 14.7827 42.2013 13.2585 44.1009C12.7719 44.6797 12.2451 45.2237 11.6823 45.7289C11.616 45.811 11.5325 45.8775 11.4376 45.9238C11.3428 45.9701 11.2389 45.995 11.1334 45.9967C11.0279 45.9985 10.9232 45.977 10.8269 45.9339C10.7306 45.8907 10.6449 45.827 10.576 45.7471C10.5041 45.6655 10.451 45.5692 10.4204 45.4649C10.3899 45.3606 10.3826 45.2508 10.3992 45.1434C10.4157 45.036 10.4556 44.9335 10.5161 44.8432C10.5767 44.7529 10.6563 44.6769 10.7494 44.6207C11.8432 43.7148 12.7141 42.5699 13.2951 41.2744C13.8761 39.9789 14.1516 38.5673 14.1004 37.1486C14.0909 36.361 14.1082 35.5717 14.0918 34.7841C14.0943 34.6065 14.0351 34.4335 13.9244 34.2945C11.4416 31.7007 9.71163 28.4807 8.91995 24.9795C8.80609 24.4475 8.49671 23.9776 8.05293 23.6625C7.13579 23.0749 6.38908 22.257 5.88744 21.2906C5.38579 20.3242 5.1468 19.2431 5.19435 18.1554C5.1658 17.3522 5.40414 16.5622 5.87217 15.9085C6.3402 15.2549 7.01158 14.7746 7.78155 14.5424C7.80955 14.5305 7.83857 14.5213 7.86825 14.5146C10.3826 14.37 11.7135 12.6362 12.9161 10.75C13.3918 10.0401 13.6728 9.21792 13.7311 8.36554C13.733 8.26845 13.7542 8.17272 13.7935 8.08391C13.8328 7.99511 13.8894 7.91502 13.9601 7.84831C14.0307 7.78161 14.1139 7.72963 14.2048 7.69541C14.2958 7.66119 14.3926 7.64542 14.4897 7.649C14.5871 7.65067 14.6831 7.67282 14.7713 7.71401C14.8596 7.75521 14.9382 7.81452 15.002 7.88808C15.0658 7.96165 15.1134 8.04782 15.1416 8.14098C15.1699 8.23414 15.1782 8.33221 15.166 8.42879C15.0592 9.20419 14.8608 9.96417 14.5747 10.6928C13.8044 12.4447 12.5544 13.9435 10.9687 15.0163C10.2736 15.512 9.45847 15.8129 8.60782 15.8879C7.40439 15.9833 6.75152 16.7821 6.65702 18.1779C6.60565 18.8125 6.69486 19.4505 6.91829 20.0467C7.14173 20.6429 7.4939 21.1825 7.94975 21.6272C8.43095 22.1168 9.0396 22.4798 9.56068 22.9329C9.79502 23.1136 9.97232 23.3578 10.0714 23.6365C10.6939 26.7535 12.0358 29.6824 13.9903 32.19C15.1827 33.6753 16.7333 34.8335 18.4966 35.5557C20.2598 36.2779 22.1777 36.5404 24.0703 36.3185C28.8 35.946 31.8736 33.2366 33.9544 29.1904C34.8204 27.4639 35.4659 25.6355 35.8758 23.7483C35.9139 23.5614 35.9924 23.3851 36.1057 23.2317C36.2191 23.0784 36.3646 22.9515 36.5321 22.8602C37.2528 22.4953 37.8772 21.9656 38.3545 21.3141C38.8317 20.6627 39.1484 19.9079 39.2788 19.1111C39.3365 18.4233 39.2611 17.7308 39.0569 17.0715C38.968 16.7372 38.7688 16.4427 38.4915 16.2356C38.2143 16.0285 37.8752 15.9209 37.5292 15.9304C36.7976 15.9281 36.0792 15.7351 35.4451 15.3704C34.8111 15.0057 34.2832 14.482 33.9137 13.851C33.3386 12.9741 32.5585 12.2503 31.6408 11.7422C30.7231 11.234 29.6954 10.9568 28.6465 10.9345C27.1838 10.8106 25.7116 10.7959 24.2533 10.646C22.3915 10.5219 20.6221 9.79034 19.2167 8.56377C17.8114 7.3372 16.8479 5.68346 16.4743 3.85661C16.3855 3.43394 16.3307 3.00484 16.3105 2.57341C16.2915 2.4741 16.2936 2.37192 16.3166 2.27346C16.3396 2.175 16.3829 2.08243 16.4438 2.00171C16.5048 1.921 16.5819 1.85392 16.6703 1.8048C16.7588 1.75568 16.8565 1.72561 16.9573 1.71651C17.3734 1.67492 17.676 1.9929 17.7645 2.4963C17.8494 3.19883 17.9944 3.89279 18.198 4.57055C18.6186 5.76749 19.3643 6.82377 20.3517 7.62105C21.3391 8.41834 22.5292 8.92514 23.7886 9.08469C24.8569 9.25264 25.936 9.34327 27.0174 9.35588C28.3933 9.3723 29.7611 9.56982 31.0854 9.94333C32.5057 10.3631 33.7539 11.2271 34.6463 12.4083C34.9446 12.8026 35.2446 13.1968 35.5567 13.5798C35.7652 13.8506 36.0357 14.0675 36.3454 14.2124C36.6551 14.3573 36.995 14.4258 37.3367 14.4124C37.5854 14.4217 37.8343 14.4443 38.0806 14.48Z" fill="#7E5531"/>
<path d="M22.9735 31.156C21.2496 31.1132 19.5962 30.4629 18.3055 29.32C18.2225 29.2626 18.1526 29.1883 18.1003 29.102C18.048 29.0157 18.0145 28.9193 18.0021 28.8192C17.9897 28.7191 17.9985 28.6175 18.0281 28.521C18.0577 28.4246 18.1073 28.3354 18.1737 28.2595C18.239 28.1828 18.3196 28.1206 18.4102 28.0766C18.5009 28.0326 18.5997 28.0079 18.7004 28.004C18.8011 28.0001 18.9015 28.0171 18.9953 28.0539C19.0891 28.0907 19.1742 28.1465 19.2453 28.2179C20.087 28.9515 21.1176 29.4347 22.2201 29.6129C22.9622 29.7204 23.7186 29.6745 24.4422 29.4779C25.1659 29.2813 25.8414 28.9383 26.4269 28.47C26.5387 28.3877 26.641 28.2967 26.752 28.2101C26.8253 28.1414 26.9117 28.0884 27.0061 28.0542C27.1005 28.02 27.2008 28.0053 27.3011 28.011C27.4013 28.0168 27.4993 28.0429 27.5892 28.0877C27.679 28.1325 27.7588 28.195 27.8237 28.2716C27.8884 28.349 27.9362 28.4392 27.964 28.5362C27.9917 28.6332 27.9988 28.735 27.9848 28.835C27.9707 28.9349 27.9358 29.0308 27.8824 29.1164C27.829 29.2021 27.7582 29.2755 27.6745 29.3321C26.3739 30.4785 24.7075 31.125 22.9735 31.156Z" fill="#7E5531"/>
<path d="M27.1049 18.6597C27.8366 18.8191 28.3881 18.9699 28.949 19.0556C29.4711 19.1832 30.0187 19.1607 30.5285 18.9905C31.0384 18.8203 31.4896 18.5095 31.8301 18.0939C31.924 17.9679 32.0587 17.8783 32.2113 17.8404C32.3638 17.8025 32.5248 17.8186 32.6668 17.8859C32.9391 17.9942 33.2174 18.0887 33.4836 18.2109C33.5757 18.2436 33.6603 18.2945 33.7323 18.3606C33.8043 18.4266 33.8622 18.5065 33.9027 18.5955C33.9431 18.6844 33.9653 18.7806 33.9677 18.8782C33.9702 18.9759 33.953 19.0731 33.9171 19.1639C33.8408 19.3429 33.6983 19.4855 33.5192 19.5619C33.3402 19.6383 33.1385 19.6425 32.9564 19.5738C32.7815 19.5124 32.5897 19.5205 32.4206 19.5963C31.8451 20.0452 31.1737 20.3554 30.4586 20.5025C29.7435 20.6496 29.004 20.6298 28.2979 20.4445C27.8435 20.3578 27.3986 20.2269 26.9696 20.0538C26.8863 20.0295 26.8092 19.9879 26.7432 19.9316C26.6773 19.8753 26.6241 19.8056 26.5871 19.7272C26.5501 19.6488 26.5302 19.5635 26.5288 19.4768C26.5273 19.3902 26.5443 19.3042 26.5786 19.2246C26.6896 18.9647 26.9791 18.7914 27.1049 18.6605" fill="#7E5531"/>
<path d="M16.4171 20.6763C15.3918 20.617 14.4089 20.2471 13.5993 19.6158C13.527 19.5725 13.4468 19.5442 13.3634 19.5326C13.28 19.521 13.195 19.5263 13.1137 19.5482C12.6004 19.6817 12.2111 19.5482 12.0733 19.1505C11.9268 18.7303 12.1123 18.3829 12.6056 18.1715C12.8329 18.0405 13.0801 17.9478 13.3374 17.8968C13.6136 17.8528 13.896 17.9174 14.1255 18.077C15.0663 19.2103 16.2766 19.2225 17.5581 18.9825C17.8607 18.9261 18.1529 18.817 18.4485 18.7312C18.5416 18.6934 18.6414 18.675 18.7419 18.6773C18.8423 18.6797 18.9412 18.7026 19.0324 18.7447C19.1236 18.7867 19.2052 18.8471 19.2721 18.922C19.339 18.9969 19.3898 19.0847 19.4213 19.18C19.4541 19.2719 19.4673 19.3696 19.46 19.4669C19.4527 19.5641 19.425 19.6588 19.3789 19.7448C19.3327 19.8307 19.2691 19.906 19.192 19.9659C19.115 20.0258 19.0262 20.0689 18.9315 20.0924C18.1034 20.3202 17.2581 20.4849 16.4171 20.6746" fill="#7E5531"/>
</g>
</svg>
