<svg width="43" height="10" viewBox="0 0 43 10" fill="none" xmlns="http://www.w3.org/2000/svg">
<path d="M1 4.4C0.668629 4.4 0.4 4.66863 0.4 5C0.4 5.33137 0.668629 5.6 1 5.6V4.4ZM42.4243 5.42426C42.6586 5.18995 42.6586 4.81005 42.4243 4.57574L38.6059 0.757359C38.3716 0.523045 37.9917 0.523045 37.7574 0.757359C37.523 0.991674 37.523 1.37157 37.7574 1.60589L41.1515 5L37.7574 8.39411C37.523 8.62843 37.523 9.00833 37.7574 9.24264C37.9917 9.47696 38.3716 9.47696 38.6059 9.24264L42.4243 5.42426ZM1 5.6H42V4.4H1V5.6Z" fill="#463830"/>
</svg>
